SourceSerif_d1.ufo
<glyph name="exclam" format="2">
	<unicode hex="0021"/>
	<advance width="268"/>
	<outline>
		<contour>
			<point x="134" y="-8" type="curve" smooth="yes"/>
			<point x="166" y="-8"/>
			<point x="192" y="15"/>
			<point x="192" y="50" type="curve" smooth="yes"/>
			<point x="192" y="85"/>
			<point x="166" y="108"/>
			<point x="134" y="108" type="curve" smooth="yes"/>
			<point x="102" y="108"/>
			<point x="76" y="85"/>
			<point x="76" y="50" type="curve" smooth="yes"/>
			<point x="76" y="15"/>
			<point x="102" y="-8"/>
		</contour>
		<contour>
			<point x="134" y="684" type="curve"/>
			<point x="104" y="684"/>
			<point x="86" y="667"/>
			<point x="86" y="624" type="curve" smooth="yes"/>
			<point x="86" y="587"/>
			<point x="99" y="492"/>
			<point x="111" y="352" type="curve" smooth="yes"/>
			<point x="124" y="212" type="line"/>
			<point x="144" y="212" type="line"/>
			<point x="157" y="352" type="line" smooth="yes"/>
			<point x="169" y="492"/>
			<point x="182" y="587"/>
			<point x="182" y="624" type="curve" smooth="yes"/>
			<point x="182" y="667"/>
			<point x="164" y="684"/>
		</contour>
	</outline>
</glyph>
<glyph name="numbersign" format="2">
	<unicode hex="0023"/>
	<advance width="524"/>
	<outline>
		<contour>
			<point x="92" y="0" type="line"/>
			<point x="128" y="0" type="line"/>
			<point x="228" y="648" type="line"/>
			<point x="192" y="648" type="line"/>
		</contour>
		<contour>
			<point x="24" y="252" type="line"/>
			<point x="24" y="188" type="line"/>
			<point x="468" y="188" type="line"/>
			<point x="468" y="252" type="line"/>
		</contour>
		<contour>
			<point x="500" y="400" type="line"/>
			<point x="500" y="464" type="line"/>
			<point x="56" y="464" type="line"/>
			<point x="56" y="400" type="line"/>
		</contour>
		<contour>
			<point x="296" y="0" type="line"/>
			<point x="332" y="0" type="line"/>
			<point x="432" y="648" type="line"/>
			<point x="396" y="648" type="line"/>
		</contour>
	</outline>
</glyph>
<glyph name="dollar" format="2">
	<unicode hex="0024"/>
	<advance width="468"/>
	<outline>
		<contour>
			<point x="224" y="-12" type="curve" smooth="yes"/>
			<point x="353" y="-12"/>
			<point x="424" y="55"/>
			<point x="424" y="168" type="curve" smooth="yes"/>
			<point x="424" y="384"/>
			<point x="120" y="334"/>
			<point x="120" y="506" type="curve" smooth="yes"/>
			<point x="120" y="605"/>
			<point x="178" y="639"/>
			<point x="252" y="639" type="curve" smooth="yes"/>
			<point x="282" y="639"/>
			<point x="312" y="631"/>
			<point x="346" y="611" type="curve"/>
			<point x="312" y="644" type="line"/>
			<point x="336" y="552" type="line" smooth="yes"/>
			<point x="346" y="511"/>
			<point x="356" y="492"/>
			<point x="381" y="492" type="curve" smooth="yes"/>
			<point x="400" y="492"/>
			<point x="410" y="500"/>
			<point x="418" y="519" type="curve"/>
			<point x="406" y="603"/>
			<point x="335" y="660"/>
			<point x="248" y="660" type="curve" smooth="yes"/>
			<point x="148" y="660"/>
			<point x="64" y="600"/>
			<point x="64" y="489" type="curve" smooth="yes"/>
			<point x="64" y="278"/>
			<point x="364" y="328"/>
			<point x="364" y="153" type="curve" smooth="yes"/>
			<point x="364" y="48"/>
			<point x="309" y="9"/>
			<point x="220" y="9" type="curve"/>
			<point x="190" y="9"/>
			<point x="150" y="17"/>
			<point x="116" y="37" type="curve"/>
			<point x="149" y="8" type="line"/>
			<point x="128" y="92" type="line" smooth="yes"/>
			<point x="118" y="133"/>
			<point x="107" y="152"/>
			<point x="82" y="152" type="curve" smooth="yes"/>
			<point x="63" y="152"/>
			<point x="53" y="144"/>
			<point x="44" y="125" type="curve"/>
			<point x="56" y="37"/>
			<point x="125" y="-12"/>
		</contour>
		<contour>
			<point x="252" y="320" type="line"/>
			<point x="252" y="748" type="line"/>
			<point x="228" y="748" type="line"/>
			<point x="228" y="320" type="line"/>
		</contour>
		<contour>
			<point x="228" y="-116" type="line"/>
			<point x="252" y="-116" type="line"/>
			<point x="252" y="320" type="line"/>
			<point x="228" y="320" type="line"/>
		</contour>
	</outline>
</glyph>
<glyph name="ampersand" format="2">
	<unicode hex="0026"/>
	<advance width="676"/>
	<outline>
		<contour>
			<point x="300" y="220" type="curve" smooth="yes"/>
			<point x="348" y="161"/>
			<point x="396" y="105"/>
			<point x="458" y="32" type="curve" smooth="yes"/>
			<point x="488" y="-2"/>
			<point x="507" y="-12"/>
			<point x="556" y="-12" type="curve" smooth="yes"/>
			<point x="581" y="-12"/>
			<point x="605" y="-8"/>
			<point x="632" y="0" type="curve"/>
			<point x="632" y="14" type="line"/>
			<point x="512" y="28" type="line"/>
			<point x="572" y="8" type="line"/>
			<point x="474" y="120"/>
			<point x="402" y="202"/>
			<point x="328" y="288" type="curve" smooth="yes"/>
			<point x="270" y="356"/>
			<point x="241" y="388"/>
			<point x="204" y="436" type="curve" smooth="yes"/>
			<point x="169" y="483"/>
			<point x="160" y="520"/>
			<point x="160" y="556" type="curve" smooth="yes"/>
			<point x="160" y="618"/>
			<point x="200" y="662"/>
			<point x="248" y="662" type="curve" smooth="yes"/>
			<point x="299" y="662"/>
			<point x="336" y="623"/>
			<point x="336" y="556" type="curve" smooth="yes"/>
			<point x="336" y="484"/>
			<point x="284" y="430"/>
			<point x="216" y="388" type="curve"/>
			<point x="228" y="376" type="line"/>
			<point x="341" y="437"/>
			<point x="392" y="482"/>
			<point x="392" y="556" type="curve" smooth="yes"/>
			<point x="392" y="631"/>
			<point x="344" y="684"/>
			<point x="252" y="684" type="curve" smooth="yes"/>
			<point x="165" y="684"/>
			<point x="100" y="619"/>
			<point x="100" y="540" type="curve" smooth="yes"/>
			<point x="100" y="487"/>
			<point x="117" y="441"/>
			<point x="164" y="384" type="curve" smooth="yes"/>
			<point x="208" y="330"/>
			<point x="245" y="288"/>
		</contour>
		<contour>
			<point x="420" y="124" type="curve"/>
			<point x="434" y="104" type="line"/>
			<point x="490" y="186"/>
			<point x="530" y="286"/>
			<point x="552" y="400" type="curve"/>
			<point x="524" y="400" type="line"/>
			<point x="503" y="293"/>
			<point x="471" y="202"/>
		</contour>
		<contour>
			<point x="212" y="369" type="curve"/>
			<point x="196" y="380" type="line"/>
			<point x="90" y="329"/>
			<point x="24" y="266"/>
			<point x="24" y="168" type="curve" smooth="yes"/>
			<point x="24" y="66"/>
			<point x="106" y="-12"/>
			<point x="224" y="-12" type="curve" smooth="yes"/>
			<point x="334" y="-12"/>
			<point x="396" y="52"/>
			<point x="436" y="116" type="curve"/>
			<point x="414" y="124" type="line"/>
			<point x="380" y="65"/>
			<point x="315" y="40"/>
			<point x="248" y="40" type="curve" smooth="yes"/>
			<point x="148" y="40"/>
			<point x="96" y="119"/>
			<point x="96" y="196" type="curve" smooth="yes"/>
			<point x="96" y="251"/>
			<point x="126" y="327"/>
		</contour>
		<contour>
			<point x="548" y="393" type="line"/>
			<point x="628" y="405" type="line"/>
			<point x="628" y="420" type="line"/>
			<point x="440" y="420" type="line"/>
			<point x="440" y="405" type="line"/>
			<point x="528" y="393" type="line"/>
		</contour>
	</outline>
</glyph>
<glyph name="quotesingle" format="2">
	<unicode hex="0027"/>
	<advance width="180"/>
	<outline>
		<contour>
			<point x="90" y="736" type="curve" smooth="yes"/>
			<point x="66" y="736"/>
			<point x="54" y="719"/>
			<point x="54" y="688" type="curve" smooth="yes"/>
			<point x="54" y="649"/>
			<point x="70" y="533"/>
			<point x="74" y="500" type="curve" smooth="yes"/>
			<point x="82" y="432" type="line"/>
			<point x="98" y="432" type="line"/>
			<point x="106" y="500" type="line" smooth="yes"/>
			<point x="110" y="533"/>
			<point x="126" y="649"/>
			<point x="126" y="688" type="curve" smooth="yes"/>
			<point x="126" y="719"/>
			<point x="114" y="736"/>
		</contour>
	</outline>
</glyph>
<glyph name="asterisk" format="2">
	<unicode hex="002A"/>
	<advance width="440"/>
	<outline>
		<contour>
			<point x="225" y="552" type="line"/>
			<point x="234" y="608" type="line" smooth="yes"/>
			<point x="241" y="653"/>
			<point x="248" y="698"/>
			<point x="248" y="716" type="curve" smooth="yes"/>
			<point x="248" y="737"/>
			<point x="238" y="748"/>
			<point x="220" y="748" type="curve" smooth="yes"/>
			<point x="202" y="748"/>
			<point x="192" y="737"/>
			<point x="192" y="716" type="curve" smooth="yes"/>
			<point x="192" y="698"/>
			<point x="199" y="653"/>
			<point x="206" y="608" type="curve" smooth="yes"/>
			<point x="215" y="552" type="line"/>
		</contour>
		<contour>
			<point x="225" y="560" type="line"/>
			<point x="175" y="585" type="line" smooth="yes"/>
			<point x="118" y="614"/>
			<point x="77" y="635"/>
			<point x="63" y="635" type="curve" smooth="yes"/>
			<point x="49" y="635"/>
			<point x="35" y="623"/>
			<point x="35" y="605" type="curve" smooth="yes"/>
			<point x="35" y="573"/>
			<point x="77" y="573"/>
			<point x="166" y="559" type="curve" smooth="yes"/>
			<point x="222" y="550" type="line"/>
		</contour>
		<contour>
			<point x="218" y="562" type="line"/>
			<point x="179" y="522" type="line" smooth="yes"/>
			<point x="127" y="468"/>
			<point x="95" y="443"/>
			<point x="95" y="421" type="curve" smooth="yes"/>
			<point x="95" y="405"/>
			<point x="108" y="394"/>
			<point x="124" y="394" type="curve" smooth="yes"/>
			<point x="149" y="394"/>
			<point x="162" y="433"/>
			<point x="200" y="506" type="curve" smooth="yes"/>
			<point x="226" y="556" type="line"/>
		</contour>
		<contour>
			<point x="218" y="550" type="line"/>
			<point x="274" y="559" type="line" smooth="yes"/>
			<point x="363" y="573"/>
			<point x="405" y="573"/>
			<point x="405" y="605" type="curve" smooth="yes"/>
			<point x="405" y="623"/>
			<point x="391" y="635"/>
			<point x="377" y="635" type="curve" smooth="yes"/>
			<point x="363" y="635"/>
			<point x="322" y="614"/>
			<point x="265" y="585" type="curve" smooth="yes"/>
			<point x="215" y="560" type="line"/>
		</contour>
		<contour>
			<point x="214" y="556" type="line"/>
			<point x="240" y="506" type="line" smooth="yes"/>
			<point x="278" y="433"/>
			<point x="291" y="394"/>
			<point x="316" y="394" type="curve" smooth="yes"/>
			<point x="332" y="394"/>
			<point x="345" y="405"/>
			<point x="345" y="421" type="curve" smooth="yes"/>
			<point x="345" y="443"/>
			<point x="313" y="468"/>
			<point x="261" y="522" type="curve" smooth="yes"/>
			<point x="222" y="562" type="line"/>
		</contour>
	</outline>
</glyph>
<glyph name="plus" format="2">
	<unicode hex="002B"/>
	<advance width="496"/>
	<outline>
		<contour>
			<point x="231" y="88" type="line"/>
			<point x="265" y="88" type="line"/>
			<point x="265" y="568" type="line"/>
			<point x="231" y="568" type="line"/>
		</contour>
		<contour>
			<point x="468" y="316" type="line"/>
			<point x="468" y="348" type="line"/>
			<point x="28" y="348" type="line"/>
			<point x="28" y="316" type="line"/>
		</contour>
	</outline>
</glyph>
<glyph name="comma" format="2">
	<unicode hex="002C"/>
	<advance width="258"/>
	<outline>
		<contour>
			<point x="181" y="24" type="curve" smooth="yes"/>
			<point x="181" y="42"/>
			<point x="178" y="62"/>
			<point x="173" y="81" type="curve"/>
			<point x="153" y="98"/>
			<point x="140" y="99"/>
			<point x="127" y="99" type="curve" smooth="yes"/>
			<point x="96" y="99"/>
			<point x="76" y="79"/>
			<point x="76" y="48" type="curve" smooth="yes"/>
			<point x="76" y="31"/>
			<point x="86" y="14"/>
			<point x="105" y="0" type="curve" smooth="yes"/>
			<point x="153" y="-37" type="line"/>
			<point x="154" y="-4" type="line"/>
			<point x="131" y="-84"/>
			<point x="93" y="-128"/>
			<point x="41" y="-159" type="curve"/>
			<point x="49" y="-175" type="line"/>
			<point x="113" y="-147"/>
			<point x="181" y="-66"/>
		</contour>
	</outline>
</glyph>
<glyph name="period" format="2">
	<unicode hex="002E"/>
	<advance width="258"/>
	<outline>
		<contour>
			<point x="129" y="-7" type="curve" smooth="yes"/>
			<point x="158" y="-7"/>
			<point x="182" y="14"/>
			<point x="182" y="46" type="curve" smooth="yes"/>
			<point x="182" y="78"/>
			<point x="158" y="99"/>
			<point x="129" y="99" type="curve" smooth="yes"/>
			<point x="100" y="99"/>
			<point x="76" y="78"/>
			<point x="76" y="46" type="curve" smooth="yes"/>
			<point x="76" y="14"/>
			<point x="100" y="-7"/>
		</contour>
	</outline>
</glyph>
<glyph name="slash" format="2">
	<unicode hex="002F"/>
	<advance width="308"/>
	<outline>
		<contour>
			<point x="4" y="-160" type="line"/>
			<point x="50" y="-160" type="line"/>
			<point x="304" y="708" type="line"/>
			<point x="258" y="708" type="line"/>
		</contour>
	</outline>
</glyph>
<glyph name="zero" format="2">
	<unicode hex="0030"/>
	<advance width="468"/>
	<outline>
		<contour>
			<point x="114" y="324" type="curve" smooth="yes"/>
			<point x="114" y="577"/>
			<point x="175" y="639"/>
			<point x="234" y="639" type="curve"/>
			<point x="293" y="639"/>
			<point x="354" y="577"/>
			<point x="354" y="324" type="curve" smooth="yes"/>
			<point x="354" y="72"/>
			<point x="293" y="9"/>
			<point x="234" y="9" type="curve"/>
			<point x="175" y="9"/>
			<point x="114" y="72"/>
		</contour>
		<contour>
			<point x="234" y="660" type="curve"/>
			<point x="134" y="660"/>
			<point x="44" y="573"/>
			<point x="44" y="324" type="curve" smooth="yes"/>
			<point x="44" y="76"/>
			<point x="134" y="-12"/>
			<point x="234" y="-12" type="curve"/>
			<point x="334" y="-12"/>
			<point x="424" y="76"/>
			<point x="424" y="324" type="curve" smooth="yes"/>
			<point x="424" y="573"/>
			<point x="334" y="660"/>
		</contour>
	</outline>
</glyph>
<glyph name="one" format="2">
	<unicode hex="0031"/>
	<advance width="468"/>
	<outline>
		<contour>
			<point x="72" y="0" type="line"/>
			<point x="412" y="0" type="line"/>
			<point x="412" y="16" type="line"/>
			<point x="248" y="34" type="line"/>
			<point x="232" y="34" type="line"/>
			<point x="72" y="16" type="line"/>
		</contour>
		<contour>
			<point x="270" y="652" type="line"/>
			<point x="80" y="594" type="line"/>
			<point x="80" y="580" type="line"/>
			<point x="210" y="593" type="line"/>
			<point x="210" y="212" type="line" smooth="yes"/>
			<point x="210" y="148"/>
			<point x="209" y="46"/>
			<point x="206" y="0" type="curve"/>
			<point x="278" y="0" type="line"/>
			<point x="275" y="46"/>
			<point x="274" y="148"/>
			<point x="274" y="212" type="curve" smooth="yes"/>
			<point x="274" y="448" type="line" smooth="yes"/>
			<point x="274" y="507"/>
			<point x="275" y="601"/>
			<point x="278" y="644" type="curve"/>
		</contour>
	</outline>
</glyph>
<glyph name="less" format="2">
	<unicode hex="003C"/>
	<advance width="496"/>
	<outline>
		<contour>
			<point x="56" y="320" type="line"/>
			<point x="424" y="92" type="line"/>
			<point x="440" y="120" type="line"/>
			<point x="84" y="340" type="line"/>
			<point x="84" y="320" type="line"/>
			<point x="440" y="536" type="line"/>
			<point x="424" y="564" type="line"/>
			<point x="56" y="340" type="line"/>
		</contour>
	</outline>
</glyph>
<glyph name="question" format="2">
	<unicode hex="003F"/>
	<advance width="389"/>
	<outline>
		<contour>
			<point x="322" y="466" type="curve" smooth="yes"/>
			<point x="322" y="588"/>
			<point x="186" y="676"/>
			<point x="108" y="684" type="curve"/>
			<point x="82" y="679"/>
			<point x="62" y="662"/>
			<point x="62" y="640" type="curve" smooth="yes"/>
			<point x="62" y="616"/>
			<point x="72" y="600"/>
			<point x="128" y="590" type="curve" smooth="yes"/>
			<point x="278" y="563" type="line"/>
			<point x="212" y="616" type="line"/>
			<point x="252" y="580"/>
			<point x="288" y="527"/>
			<point x="288" y="478" type="curve" smooth="yes"/>
			<point x="288" y="444"/>
			<point x="261" y="420"/>
			<point x="220" y="404" type="curve" smooth="yes"/>
			<point x="172" y="386" type="line" smooth="yes"/>
			<point x="117" y="365"/>
			<point x="104" y="349"/>
			<point x="104" y="320" type="curve" smooth="yes"/>
			<point x="104" y="308"/>
			<point x="107" y="294"/>
			<point x="118" y="254" type="curve" smooth="yes"/>
			<point x="130" y="212" type="line"/>
			<point x="152" y="212" type="line"/>
			<point x="152" y="272" type="line" smooth="yes"/>
			<point x="152" y="305"/>
			<point x="161" y="318"/>
			<point x="202" y="332" type="curve" smooth="yes"/>
			<point x="236" y="344" type="line" smooth="yes"/>
			<point x="299" y="366"/>
			<point x="322" y="404"/>
		</contour>
		<contour>
			<point x="142" y="-8" type="curve" smooth="yes"/>
			<point x="174" y="-8"/>
			<point x="200" y="15"/>
			<point x="200" y="50" type="curve" smooth="yes"/>
			<point x="200" y="85"/>
			<point x="174" y="108"/>
			<point x="142" y="108" type="curve" smooth="yes"/>
			<point x="110" y="108"/>
			<point x="84" y="85"/>
			<point x="84" y="50" type="curve" smooth="yes"/>
			<point x="84" y="15"/>
			<point x="110" y="-8"/>
		</contour>
	</outline>
</glyph>
<glyph name="at" format="2">
	<unicode hex="0040"/>
	<advance width="820"/>
	<outline>
		<contour>
			<point x="576" y="473" type="line"/>
			<point x="569" y="480" type="line"/>
			<point x="516" y="437" type="line"/>
			<point x="462" y="164" type="line"/>
			<point x="463" y="156" type="line"/>
			<point x="450" y="104"/>
			<point x="480" y="48"/>
			<point x="560" y="48" type="curve" smooth="yes"/>
			<point x="645" y="48"/>
			<point x="792" y="131"/>
			<point x="792" y="332" type="curve" smooth="yes"/>
			<point x="792" y="522"/>
			<point x="671" y="660"/>
			<point x="468" y="660" type="curve" smooth="yes"/>
			<point x="223" y="660"/>
			<point x="28" y="461"/>
			<point x="28" y="212" type="curve" smooth="yes"/>
			<point x="28" y="-36"/>
			<point x="188" y="-156"/>
			<point x="388" y="-156" type="curve" smooth="yes"/>
			<point x="454" y="-156"/>
			<point x="520" y="-137"/>
			<point x="574" y="-108" type="curve"/>
			<point x="568" y="-96" type="line"/>
			<point x="507" y="-123"/>
			<point x="448" y="-134"/>
			<point x="388" y="-134" type="curve" smooth="yes"/>
			<point x="213" y="-134"/>
			<point x="72" y="-18"/>
			<point x="72" y="212" type="curve" smooth="yes"/>
			<point x="72" y="443"/>
			<point x="237" y="638"/>
			<point x="468" y="638" type="curve" smooth="yes"/>
			<point x="630" y="638"/>
			<point x="748" y="521"/>
			<point x="748" y="332" type="curve" smooth="yes"/>
			<point x="748" y="152"/>
			<point x="648" y="72"/>
			<point x="572" y="72" type="curve" smooth="yes"/>
			<point x="524" y="72"/>
			<point x="502" y="107"/>
			<point x="515" y="172" type="curve" smooth="yes"/>
		</contour>
		<contour>
			<point x="317" y="48" type="curve" smooth="yes"/>
			<point x="383" y="48"/>
			<point x="437" y="106"/>
			<point x="492" y="191" type="curve"/>
			<point x="485" y="194" type="line"/>
			<point x="418" y="117"/>
			<point x="371" y="94"/>
			<point x="336" y="94" type="curve" smooth="yes"/>
			<point x="298" y="94"/>
			<point x="282" y="125"/>
			<point x="282" y="177" type="curve" smooth="yes"/>
			<point x="282" y="268"/>
			<point x="348" y="434"/>
			<point x="450" y="434" type="curve" smooth="yes"/>
			<point x="491" y="434"/>
			<point x="516" y="408"/>
			<point x="532" y="387" type="curve"/>
			<point x="552" y="422" type="line"/>
			<point x="533" y="454"/>
			<point x="500" y="473"/>
			<point x="469" y="473" type="curve" smooth="yes"/>
			<point x="353" y="473"/>
			<point x="226" y="287"/>
			<point x="226" y="155" type="curve" smooth="yes"/>
			<point x="226" y="80"/>
			<point x="270" y="48"/>
		</contour>
	</outline>
</glyph>
<glyph name="A" format="2">
	<unicode hex="0041"/>
	<advance width="612"/>
	<outline>
		<contour>
			<point x="72" y="0" type="line"/>
			<point x="106" y="0" type="line"/>
			<point x="290" y="576" type="line"/>
			<point x="284" y="576" type="line"/>
			<point x="464" y="0" type="line"/>
			<point x="540" y="0" type="line"/>
			<point x="316" y="676" type="line"/>
			<point x="292" y="676" type="line"/>
		</contour>
		<contour>
			<point x="158" y="224" type="line"/>
			<point x="442" y="224" type="line"/>
			<point x="426" y="252" type="line"/>
			<point x="174" y="252" type="line"/>
		</contour>
		<contour>
			<point x="600" y="0" type="line"/>
			<point x="600" y="20" type="line"/>
			<point x="516" y="32" type="line"/>
			<point x="476" y="32" type="line"/>
			<point x="368" y="20" type="line"/>
			<point x="368" y="0" type="line"/>
		</contour>
		<contour>
			<point x="204" y="0" type="line"/>
			<point x="204" y="20" type="line"/>
			<point x="108" y="30" type="line"/>
			<point x="88" y="30" type="line"/>
			<point x="12" y="20" type="line"/>
			<point x="12" y="0" type="line"/>
		</contour>
	</outline>
	<anchor name="aboveUC" x="321" y="691"/>
	<anchor name="belowLC" x="312" y="-22"/>
	<anchor name="ogonek" x="546" y="0"/>
</glyph>
<glyph name="B" format="2">
	<unicode hex="0042"/>
	<advance width="590"/>
	<outline>
		<contour>
			<point x="42" y="0" type="line"/>
			<point x="174" y="0" type="line"/>
			<point x="174" y="55" type="line"/>
			<point x="164" y="55" type="line"/>
			<point x="42" y="40" type="line"/>
		</contour>
		<contour>
			<point x="132" y="205"/>
			<point x="132" y="101"/>
			<point x="129" y="0" type="curve"/>
			<point x="219" y="0" type="line"/>
			<point x="216" y="103"/>
			<point x="216" y="207"/>
			<point x="216" y="325" type="curve" smooth="yes"/>
			<point x="216" y="360" type="line" smooth="yes"/>
			<point x="216" y="465"/>
			<point x="216" y="569"/>
			<point x="219" y="670" type="curve"/>
			<point x="129" y="670" type="line"/>
			<point x="132" y="567"/>
			<point x="132" y="463"/>
			<point x="132" y="360" type="curve" smooth="yes"/>
			<point x="132" y="310" type="line" smooth="yes"/>
		</contour>
		<contour>
			<point x="174" y="0" type="line"/>
			<point x="300" y="0" type="line" smooth="yes"/>
			<point x="478" y="0"/>
			<point x="548" y="92"/>
			<point x="548" y="183" type="curve" smooth="yes"/>
			<point x="548" y="269"/>
			<point x="488" y="339"/>
			<point x="341" y="352" type="curve"/>
			<point x="341" y="343" type="line"/>
			<point x="466" y="359"/>
			<point x="517" y="428"/>
			<point x="517" y="506" type="curve" smooth="yes"/>
			<point x="517" y="602"/>
			<point x="442" y="670"/>
			<point x="313" y="670" type="curve" smooth="yes"/>
			<point x="174" y="670" type="line"/>
			<point x="174" y="624" type="line"/>
			<point x="286" y="624" type="line" smooth="yes"/>
			<point x="383" y="624"/>
			<point x="432" y="592"/>
			<point x="432" y="500" type="curve" smooth="yes"/>
			<point x="432" y="408"/>
			<point x="383" y="369"/>
			<point x="267" y="369" type="curve" smooth="yes"/>
			<point x="174" y="369" type="line"/>
			<point x="174" y="323" type="line"/>
			<point x="270" y="323" type="line" smooth="yes"/>
			<point x="401" y="323"/>
			<point x="459" y="276"/>
			<point x="459" y="183" type="curve" smooth="yes"/>
			<point x="459" y="95"/>
			<point x="400" y="46"/>
			<point x="277" y="46" type="curve" smooth="yes"/>
			<point x="174" y="46" type="line"/>
		</contour>
		<contour>
			<point x="42" y="630" type="line"/>
			<point x="164" y="615" type="line"/>
			<point x="174" y="615" type="line"/>
			<point x="174" y="670" type="line"/>
			<point x="42" y="670" type="line"/>
		</contour>
	</outline>
	<anchor name="aboveUC" x="282" y="691"/>
	<anchor name="belowLC" x="310" y="-22"/>
</glyph>
<glyph name="C" format="2">
	<unicode hex="0043"/>
	<advance width="568"/>
	<outline>
		<contour>
			<point x="44" y="336" type="curve" smooth="yes"/>
			<point x="44" y="132"/>
			<point x="165" y="-16"/>
			<point x="347" y="-16" type="curve" smooth="yes"/>
			<point x="411" y="-16"/>
			<point x="469" y="-5"/>
			<point x="526" y="32" type="curve"/>
			<point x="532" y="188" type="line"/>
			<point x="504" y="188" type="line"/>
			<point x="471" y="28" type="line"/>
			<point x="508" y="28" type="line"/>
			<point x="508" y="60" type="line"/>
			<point x="454" y="17"/>
			<point x="397" y="10"/>
			<point x="348" y="10" type="curve" smooth="yes"/>
			<point x="213" y="10"/>
			<point x="120" y="122"/>
			<point x="120" y="334" type="curve" smooth="yes"/>
			<point x="120" y="546"/>
			<point x="221" y="658"/>
			<point x="352" y="658" type="curve" smooth="yes"/>
			<point x="393" y="658"/>
			<point x="446" y="649"/>
			<point x="500" y="608" type="curve"/>
			<point x="500" y="640" type="line"/>
			<point x="464" y="640" type="line"/>
			<point x="496" y="482" type="line"/>
			<point x="524" y="482" type="line"/>
			<point x="518" y="636" type="line"/>
			<point x="461" y="677"/>
			<point x="393" y="684"/>
			<point x="344" y="684" type="curve" smooth="yes"/>
			<point x="168" y="684"/>
			<point x="44" y="536"/>
		</contour>
	</outline>
	<anchor name="aboveUC" x="371" y="691"/>
	<anchor name="belowLC" x="378" y="-22"/>
	<anchor name="baseLC" x="379" y="0"/>
</glyph>
<glyph name="D" format="2">
	<unicode hex="0044"/>
	<advance width="659"/>
	<outline>
		<contour>
			<point x="35" y="0" type="line"/>
			<point x="167" y="0" type="line"/>
			<point x="167" y="35" type="line"/>
			<point x="157" y="35" type="line"/>
			<point x="35" y="20" type="line"/>
		</contour>
		<contour>
			<point x="121" y="0" type="curve"/>
			<point x="209" y="0" type="line"/>
			<point x="206" y="105"/>
			<point x="204" y="212"/>
			<point x="204" y="341" type="curve" smooth="yes"/>
			<point x="204" y="360" type="line" smooth="yes"/>
			<point x="204" y="465"/>
			<point x="206" y="568"/>
			<point x="209" y="670" type="curve"/>
			<point x="121" y="670" type="line"/>
			<point x="124" y="568"/>
			<point x="126" y="463"/>
			<point x="126" y="360" type="curve" smooth="yes"/>
			<point x="126" y="341" type="line" smooth="yes"/>
			<point x="126" y="212"/>
			<point x="124" y="105"/>
		</contour>
		<contour>
			<point x="167" y="0" type="line"/>
			<point x="294" y="0" type="line" smooth="yes"/>
			<point x="476" y="0"/>
			<point x="615" y="118"/>
			<point x="615" y="334" type="curve" smooth="yes"/>
			<point x="615" y="552"/>
			<point x="491" y="670"/>
			<point x="301" y="670" type="curve" smooth="yes"/>
			<point x="167" y="670" type="line"/>
			<point x="167" y="644" type="line"/>
			<point x="297" y="644" type="line" smooth="yes"/>
			<point x="450" y="644"/>
			<point x="520" y="554"/>
			<point x="520" y="334" type="curve" smooth="yes"/>
			<point x="520" y="143"/>
			<point x="449" y="26"/>
			<point x="288" y="26" type="curve" smooth="yes"/>
			<point x="167" y="26" type="line"/>
		</contour>
		<contour>
			<point x="35" y="650" type="line"/>
			<point x="157" y="635" type="line"/>
			<point x="167" y="635" type="line"/>
			<point x="167" y="670" type="line"/>
			<point x="35" y="670" type="line"/>
		</contour>
	</outline>
	<anchor name="aboveUC" x="312" y="691"/>
	<anchor name="belowLC" x="314" y="-22"/>
</glyph>
<glyph name="E" format="2">
	<unicode hex="0045"/>
	<advance width="546"/>
	<outline>
		<contour>
			<point x="128" y="340" type="line" smooth="yes"/>
			<point x="128" y="211"/>
			<point x="127" y="105"/>
			<point x="126" y="0" type="curve"/>
			<point x="198" y="0" type="line"/>
			<point x="197" y="105"/>
			<point x="196" y="211"/>
			<point x="196" y="340" type="curve" smooth="yes"/>
			<point x="196" y="362" type="line" smooth="yes"/>
			<point x="196" y="479"/>
			<point x="197" y="577"/>
			<point x="198" y="670" type="curve"/>
			<point x="126" y="670" type="line"/>
			<point x="127" y="577"/>
			<point x="128" y="479"/>
			<point x="128" y="362" type="curve" smooth="yes"/>
		</contour>
		<contour>
			<point x="173" y="0" type="line"/>
			<point x="173" y="32" type="line"/>
			<point x="148" y="32" type="line"/>
			<point x="44" y="20" type="line"/>
			<point x="44" y="0" type="line"/>
		</contour>
		<contour>
			<point x="44" y="670" type="line"/>
			<point x="44" y="650" type="line"/>
			<point x="148" y="638" type="line"/>
			<point x="173" y="638" type="line"/>
			<point x="173" y="670" type="line"/>
		</contour>
		<contour>
			<point x="161" y="0" type="line"/>
			<point x="502" y="0" type="line"/>
			<point x="510" y="176" type="line"/>
			<point x="482" y="176" type="line"/>
			<point x="450" y="16" type="line"/>
			<point x="476" y="28" type="line"/>
			<point x="161" y="28" type="line"/>
		</contour>
		<contour>
			<point x="161" y="329" type="line"/>
			<point x="361" y="329" type="line"/>
			<point x="361" y="355" type="line"/>
			<point x="161" y="355" type="line"/>
		</contour>
		<contour>
			<point x="366" y="228" type="line"/>
			<point x="390" y="228" type="line"/>
			<point x="390" y="456" type="line"/>
			<point x="366" y="456" type="line"/>
			<point x="348" y="352" type="line"/>
			<point x="348" y="332" type="line"/>
		</contour>
		<contour>
			<point x="161" y="642" type="line"/>
			<point x="460" y="642" type="line"/>
			<point x="434" y="654" type="line"/>
			<point x="466" y="494" type="line"/>
			<point x="494" y="494" type="line"/>
			<point x="486" y="670" type="line"/>
			<point x="161" y="670" type="line"/>
		</contour>
	</outline>
	<anchor name="aboveUC" x="327" y="691"/>
	<anchor name="belowLC" x="352" y="-22"/>
	<anchor name="ogonek" x="482" y="0"/>
</glyph>
<glyph name="F" format="2">
	<unicode hex="0046"/>
	<advance width="526"/>
	<outline>
		<contour>
			<point x="128" y="340" type="line" smooth="yes"/>
			<point x="128" y="211"/>
			<point x="127" y="105"/>
			<point x="126" y="0" type="curve"/>
			<point x="198" y="0" type="line"/>
			<point x="197" y="105"/>
			<point x="196" y="211"/>
			<point x="196" y="340" type="curve" smooth="yes"/>
			<point x="196" y="362" type="line" smooth="yes"/>
			<point x="196" y="479"/>
			<point x="197" y="577"/>
			<point x="198" y="670" type="curve"/>
			<point x="126" y="670" type="line"/>
			<point x="127" y="577"/>
			<point x="128" y="479"/>
			<point x="128" y="362" type="curve" smooth="yes"/>
		</contour>
		<contour>
			<point x="44" y="670" type="line"/>
			<point x="44" y="650" type="line"/>
			<point x="148" y="638" type="line"/>
			<point x="173" y="638" type="line"/>
			<point x="173" y="670" type="line"/>
		</contour>
		<contour>
			<point x="161" y="329" type="line"/>
			<point x="363" y="329" type="line"/>
			<point x="363" y="355" type="line"/>
			<point x="161" y="355" type="line"/>
		</contour>
		<contour>
			<point x="366" y="228" type="line"/>
			<point x="390" y="228" type="line"/>
			<point x="390" y="456" type="line"/>
			<point x="366" y="456" type="line"/>
			<point x="348" y="352" type="line"/>
			<point x="348" y="332" type="line"/>
		</contour>
		<contour>
			<point x="161" y="642" type="line"/>
			<point x="460" y="642" type="line"/>
			<point x="434" y="654" type="line"/>
			<point x="466" y="494" type="line"/>
			<point x="494" y="494" type="line"/>
			<point x="486" y="670" type="line"/>
			<point x="161" y="670" type="line"/>
		</contour>
		<contour>
			<point x="292" y="0" type="line"/>
			<point x="292" y="20" type="line"/>
			<point x="176" y="32" type="line"/>
			<point x="148" y="32" type="line"/>
			<point x="44" y="20" type="line"/>
			<point x="44" y="0" type="line"/>
		</contour>
	</outline>
	<anchor name="aboveUC" x="332" y="691"/>
	<anchor name="belowLC" x="183" y="-22"/>
</glyph>
<glyph name="G" format="2">
	<unicode hex="0047"/>
	<advance width="616"/>
	<outline>
		<contour>
			<point x="472" y="21" type="line"/>
			<point x="520" y="32" type="line"/>
			<point x="520" y="64" type="line"/>
			<point x="466" y="21"/>
			<point x="401" y="10"/>
			<point x="348" y="10" type="curve" smooth="yes"/>
			<point x="213" y="10"/>
			<point x="120" y="122"/>
			<point x="120" y="334" type="curve" smooth="yes"/>
			<point x="120" y="546"/>
			<point x="221" y="658"/>
			<point x="352" y="658" type="curve" smooth="yes"/>
			<point x="397" y="658"/>
			<point x="458" y="647"/>
			<point x="512" y="606" type="curve"/>
			<point x="512" y="636" type="line"/>
			<point x="476" y="636" type="line"/>
			<point x="508" y="482" type="line"/>
			<point x="536" y="482" type="line"/>
			<point x="530" y="632" type="line"/>
			<point x="473" y="673"/>
			<point x="397" y="684"/>
			<point x="344" y="684" type="curve" smooth="yes"/>
			<point x="168" y="684"/>
			<point x="44" y="536"/>
			<point x="44" y="336" type="curve" smooth="yes"/>
			<point x="44" y="132"/>
			<point x="165" y="-16"/>
			<point x="347" y="-16" type="curve" smooth="yes"/>
			<point x="415" y="-16"/>
			<point x="481" y="-1"/>
			<point x="538" y="36" type="curve"/>
			<point x="536" y="88" type="line"/>
			<point x="536" y="175"/>
			<point x="539" y="249"/>
			<point x="540" y="318" type="curve"/>
			<point x="470" y="318" type="line"/>
			<point x="471" y="249"/>
			<point x="472" y="175"/>
			<point x="472" y="88" type="curve"/>
		</contour>
		<contour>
			<point x="368" y="318" type="line"/>
			<point x="368" y="298" type="line"/>
			<point x="492" y="286" type="line"/>
			<point x="520" y="286" type="line"/>
			<point x="600" y="298" type="line"/>
			<point x="600" y="318" type="line"/>
		</contour>
	</outline>
	<anchor name="aboveUC" x="379" y="691"/>
	<anchor name="belowLC" x="394" y="-22"/>
</glyph>
<glyph name="H" format="2">
	<unicode hex="0048"/>
	<advance width="728"/>
	<outline>
		<contour>
			<point x="35" y="0" type="line"/>
			<point x="299" y="0" type="line"/>
			<point x="299" y="20" type="line"/>
			<point x="176" y="35" type="line"/>
			<point x="157" y="35" type="line"/>
			<point x="35" y="20" type="line"/>
		</contour>
		<contour>
			<point x="128" y="212"/>
			<point x="126" y="105"/>
			<point x="123" y="0" type="curve"/>
			<point x="211" y="0" type="line"/>
			<point x="208" y="105"/>
			<point x="206" y="212"/>
			<point x="206" y="341" type="curve" smooth="yes"/>
			<point x="206" y="360" type="line" smooth="yes"/>
			<point x="206" y="465"/>
			<point x="208" y="568"/>
			<point x="211" y="670" type="curve"/>
			<point x="123" y="670" type="line"/>
			<point x="126" y="568"/>
			<point x="128" y="463"/>
			<point x="128" y="360" type="curve" smooth="yes"/>
			<point x="128" y="341" type="line" smooth="yes"/>
		</contour>
		<contour>
			<point x="167" y="336" type="line"/>
			<point x="562" y="336" type="line"/>
			<point x="562" y="362" type="line"/>
			<point x="167" y="362" type="line"/>
		</contour>
		<contour>
			<point x="430" y="0" type="line"/>
			<point x="693" y="0" type="line"/>
			<point x="693" y="20" type="line"/>
			<point x="571" y="35" type="line"/>
			<point x="552" y="35" type="line"/>
			<point x="430" y="20" type="line"/>
		</contour>
		<contour>
			<point x="522" y="212"/>
			<point x="522" y="105"/>
			<point x="520" y="0" type="curve"/>
			<point x="604" y="0" type="line"/>
			<point x="600" y="105"/>
			<point x="601" y="212"/>
			<point x="601" y="341" type="curve" smooth="yes"/>
			<point x="601" y="360" type="line" smooth="yes"/>
			<point x="601" y="465"/>
			<point x="603" y="568"/>
			<point x="606" y="670" type="curve"/>
			<point x="517" y="670" type="line"/>
			<point x="520" y="568"/>
			<point x="522" y="463"/>
			<point x="522" y="360" type="curve" smooth="yes"/>
			<point x="522" y="341" type="line" smooth="yes"/>
		</contour>
		<contour>
			<point x="35" y="650" type="line"/>
			<point x="157" y="635" type="line"/>
			<point x="176" y="635" type="line"/>
			<point x="299" y="650" type="line"/>
			<point x="299" y="670" type="line"/>
			<point x="35" y="670" type="line"/>
		</contour>
		<contour>
			<point x="430" y="650" type="line"/>
			<point x="552" y="635" type="line"/>
			<point x="571" y="635" type="line"/>
			<point x="693" y="650" type="line"/>
			<point x="693" y="670" type="line"/>
			<point x="430" y="670" type="line"/>
		</contour>
	</outline>
	<anchor name="aboveUC" x="364" y="691"/>
	<anchor name="belowLC" x="364" y="-22"/>
</glyph>
<glyph name="I" format="2">
	<unicode hex="0049"/>
	<advance width="316"/>
	<outline>
		<contour>
			<point x="276" y="0" type="line"/>
			<point x="276" y="16" type="line"/>
			<point x="172" y="28" type="line"/>
			<point x="144" y="28" type="line"/>
			<point x="40" y="16" type="line"/>
			<point x="40" y="0" type="line"/>
		</contour>
		<contour>
			<point x="40" y="668" type="line"/>
			<point x="40" y="652" type="line"/>
			<point x="144" y="640" type="line"/>
			<point x="172" y="640" type="line"/>
			<point x="276" y="652" type="line"/>
			<point x="276" y="668" type="line"/>
		</contour>
		<contour>
			<point x="120" y="668" type="line"/>
			<point x="124" y="588"/>
			<point x="124" y="463"/>
			<point x="124" y="360" type="curve" smooth="yes"/>
			<point x="124" y="316" type="line" smooth="yes"/>
			<point x="124" y="210"/>
			<point x="124" y="80"/>
			<point x="120" y="0" type="curve"/>
			<point x="196" y="0" type="line"/>
			<point x="192" y="80"/>
			<point x="192" y="210"/>
			<point x="192" y="316" type="curve" smooth="yes"/>
			<point x="192" y="360" type="line" smooth="yes"/>
			<point x="192" y="463"/>
			<point x="192" y="588"/>
			<point x="196" y="668" type="curve"/>
		</contour>
	</outline>
	<anchor name="aboveUC" x="185" y="691"/>
	<anchor name="belowLC" x="185" y="-22"/>
	<anchor name="ogonek" x="224" y="0"/>
	<anchor name="aboveUC" x="185" y="691"/>
	<anchor name="belowLC" x="185" y="-22"/>
	<anchor name="ogonek" x="224" y="0"/>
</glyph>
<glyph name="J" format="2">
	<unicode hex="004A"/>
	<advance width="351"/>
	<outline>
		<contour>
			<point x="-29" y="-152"/>
			<point x="8" y="-162"/>
			<point x="42" y="-162" type="curve" smooth="yes"/>
			<point x="92" y="-162"/>
			<point x="139" y="-141"/>
			<point x="169" y="-109" type="curve" smooth="yes"/>
			<point x="220" y="-55"/>
			<point x="228" y="-3"/>
			<point x="228" y="201" type="curve" smooth="yes"/>
			<point x="228" y="360" type="line" smooth="yes"/>
			<point x="228" y="465"/>
			<point x="228" y="569"/>
			<point x="231" y="670" type="curve"/>
			<point x="141" y="670" type="line"/>
			<point x="146" y="169"/>
			<point x="150" y="65"/>
			<point x="150" y="5" type="curve" smooth="yes"/>
			<point x="150" y="-58"/>
			<point x="138" y="-95"/>
			<point x="102" y="-124" type="curve"/>
			<point x="104" y="-132" type="line"/>
			<point x="112" y="-131" type="line"/>
			<point x="119" y="-120" type="line"/>
			<point x="88" y="-95" type="line" smooth="yes"/>
			<point x="62" y="-74"/>
			<point x="42" y="-66"/>
			<point x="19" y="-66" type="curve" smooth="yes"/>
			<point x="-10" y="-66"/>
			<point x="-32" y="-78"/>
			<point x="-38" y="-114" type="curve"/>
		</contour>
		<contour>
			<point x="45" y="630" type="line"/>
			<point x="177" y="615" type="line"/>
			<point x="196" y="615" type="line"/>
			<point x="318" y="630" type="line"/>
			<point x="318" y="670" type="line"/>
			<point x="45" y="670" type="line"/>
		</contour>
	</outline>
	<anchor name="aboveUC" x="185" y="691"/>
	<anchor name="belowLC" x="88" y="-164"/>
</glyph>
<glyph name="K" format="2">
	<unicode hex="004B"/>
	<advance width="604"/>
	<outline>
		<contour>
			<point x="124" y="340" type="line" smooth="yes"/>
			<point x="124" y="211"/>
			<point x="123" y="105"/>
			<point x="122" y="0" type="curve"/>
			<point x="194" y="0" type="line"/>
			<point x="193" y="105"/>
			<point x="192" y="211"/>
			<point x="192" y="340" type="curve" smooth="yes"/>
			<point x="192" y="362" type="line" smooth="yes"/>
			<point x="192" y="479"/>
			<point x="193" y="577"/>
			<point x="194" y="670" type="curve"/>
			<point x="122" y="670" type="line"/>
			<point x="123" y="577"/>
			<point x="124" y="479"/>
			<point x="124" y="362" type="curve" smooth="yes"/>
		</contour>
		<contour>
			<point x="276" y="0" type="line"/>
			<point x="276" y="20" type="line"/>
			<point x="172" y="32" type="line"/>
			<point x="144" y="32" type="line"/>
			<point x="40" y="20" type="line"/>
			<point x="40" y="0" type="line"/>
		</contour>
		<contour>
			<point x="40" y="670" type="line"/>
			<point x="40" y="650" type="line"/>
			<point x="144" y="638" type="line"/>
			<point x="172" y="638" type="line"/>
			<point x="276" y="650" type="line"/>
			<point x="276" y="670" type="line"/>
		</contour>
		<contour>
			<point x="152" y="176" type="line"/>
			<point x="532" y="668" type="line"/>
			<point x="495" y="668" type="line"/>
			<point x="167" y="239" type="line"/>
		</contour>
		<contour>
			<point x="472" y="0" type="line"/>
			<point x="548" y="0" type="line"/>
			<point x="320" y="420" type="line"/>
			<point x="276" y="372" type="line"/>
		</contour>
		<contour>
			<point x="372" y="670" type="line"/>
			<point x="372" y="650" type="line"/>
			<point x="476" y="638" type="line"/>
			<point x="504" y="638" type="line"/>
			<point x="592" y="650" type="line"/>
			<point x="592" y="670" type="line"/>
		</contour>
		<contour>
			<point x="596" y="0" type="line"/>
			<point x="596" y="20" type="line"/>
			<point x="512" y="32" type="line"/>
			<point x="484" y="32" type="line"/>
			<point x="380" y="20" type="line"/>
			<point x="380" y="0" type="line"/>
		</contour>
	</outline>
	<anchor name="aboveUC" x="355" y="691"/>
	<anchor name="belowLC" x="363" y="-22"/>
</glyph>
<glyph name="L" format="2">
	<unicode hex="004C"/>
	<advance width="561"/>
	<outline>
		<contour>
			<point x="42" y="0" type="line"/>
			<point x="174" y="0" type="line"/>
			<point x="174" y="55" type="line"/>
			<point x="164" y="55" type="line"/>
			<point x="42" y="40" type="line"/>
		</contour>
		<contour>
			<point x="132" y="207"/>
			<point x="132" y="103"/>
			<point x="129" y="0" type="curve"/>
			<point x="219" y="0" type="line"/>
			<point x="216" y="101"/>
			<point x="216" y="205"/>
			<point x="216" y="290" type="curve" smooth="yes"/>
			<point x="216" y="360" type="line" smooth="yes"/>
			<point x="216" y="463"/>
			<point x="216" y="567"/>
			<point x="219" y="670" type="curve"/>
			<point x="129" y="670" type="line"/>
			<point x="132" y="569"/>
			<point x="132" y="465"/>
			<point x="132" y="360" type="curve" smooth="yes"/>
			<point x="132" y="310" type="line" smooth="yes"/>
		</contour>
		<contour>
			<point x="174" y="0" type="line"/>
			<point x="509" y="0" type="line"/>
			<point x="519" y="188" type="line"/>
			<point x="462" y="188" type="line"/>
			<point x="429" y="21" type="line"/>
			<point x="465" y="50" type="line"/>
			<point x="174" y="50" type="line"/>
		</contour>
		<contour>
			<point x="42" y="630" type="line"/>
			<point x="164" y="615" type="line"/>
			<point x="183" y="615" type="line"/>
			<point x="306" y="630" type="line"/>
			<point x="306" y="670" type="line"/>
			<point x="42" y="670" type="line"/>
		</contour>
	</outline>
	<anchor name="aboveUC" x="181" y="691"/>
	<anchor name="belowLC" x="307" y="-22"/>
</glyph>
<glyph name="M" format="2">
	<unicode hex="004D"/>
	<advance width="814"/>
	<outline>
		<contour>
			<point x="622" y="340" type="line" smooth="yes"/>
			<point x="622" y="211"/>
			<point x="621" y="105"/>
			<point x="620" y="0" type="curve"/>
			<point x="692" y="0" type="line"/>
			<point x="691" y="105"/>
			<point x="690" y="211"/>
			<point x="690" y="340" type="curve" smooth="yes"/>
			<point x="690" y="362" type="line" smooth="yes"/>
			<point x="690" y="479"/>
			<point x="691" y="577"/>
			<point x="692" y="670" type="curve"/>
			<point x="620" y="670" type="line"/>
			<point x="621" y="577"/>
			<point x="622" y="479"/>
			<point x="622" y="362" type="curve" smooth="yes"/>
		</contour>
		<contour>
			<point x="774" y="0" type="line"/>
			<point x="774" y="20" type="line"/>
			<point x="670" y="32" type="line"/>
			<point x="642" y="32" type="line"/>
			<point x="546" y="20" type="line"/>
			<point x="546" y="0" type="line"/>
		</contour>
		<contour>
			<point x="642" y="670" type="line"/>
			<point x="642" y="638" type="line"/>
			<point x="670" y="638" type="line"/>
			<point x="774" y="650" type="line"/>
			<point x="774" y="670" type="line"/>
		</contour>
		<contour>
			<point x="242" y="0" type="line"/>
			<point x="242" y="20" type="line"/>
			<point x="150" y="30" type="line"/>
			<point x="132" y="30" type="line"/>
			<point x="40" y="20" type="line"/>
			<point x="40" y="0" type="line"/>
		</contour>
		<contour>
			<point x="40" y="670" type="line"/>
			<point x="40" y="650" type="line"/>
			<point x="144" y="638" type="line"/>
			<point x="148" y="638" type="line"/>
			<point x="148" y="670" type="line"/>
		</contour>
		<contour>
			<point x="377" y="0" type="line"/>
			<point x="404" y="0" type="line"/>
			<point x="650" y="670" type="line"/>
			<point x="615" y="670" type="line"/>
			<point x="395" y="68" type="line"/>
			<point x="424" y="68" type="line"/>
			<point x="205" y="670" type="line"/>
			<point x="130" y="670" type="line"/>
		</contour>
		<contour>
			<point x="124" y="0" type="line"/>
			<point x="158" y="0" type="line"/>
			<point x="158" y="361" type="line"/>
			<point x="158" y="656" type="line"/>
			<point x="124" y="656" type="line"/>
		</contour>
	</outline>
	<anchor name="aboveUC" x="440" y="691"/>
	<anchor name="belowLC" x="426" y="-22"/>
</glyph>
<glyph name="N" format="2">
	<unicode hex="004E"/>
	<advance width="691"/>
	<outline>
		<contour>
			<point x="38" y="0" type="line"/>
			<point x="263" y="0" type="line"/>
			<point x="263" y="40" type="line"/>
			<point x="155" y="55" type="line"/>
			<point x="136" y="55" type="line"/>
			<point x="38" y="40" type="line"/>
		</contour>
		<contour>
			<point x="118" y="0" type="line"/>
			<point x="164" y="0" type="line"/>
			<point x="164" y="647" type="line"/>
			<point x="118" y="647" type="line"/>
		</contour>
		<contour>
			<point x="428" y="630" type="line"/>
			<point x="540" y="615" type="line"/>
			<point x="559" y="615" type="line"/>
			<point x="653" y="630" type="line"/>
			<point x="653" y="670" type="line"/>
			<point x="428" y="670" type="line"/>
		</contour>
		<contour>
			<point x="543" y="-7" type="line"/>
			<point x="573" y="-7" type="line"/>
			<point x="573" y="670" type="line"/>
			<point x="526" y="670" type="line"/>
			<point x="526" y="168" type="line"/>
			<point x="183" y="670" type="line"/>
			<point x="42" y="670" type="line"/>
			<point x="42" y="630" type="line"/>
			<point x="109" y="621" type="line"/>
		</contour>
	</outline>
	<anchor name="aboveUC" x="341" y="691"/>
	<anchor name="belowLC" x="353" y="-22"/>
</glyph>
<glyph name="O" format="2">
	<unicode hex="004F"/>
	<advance width="624"/>
	<outline>
		<contour>
			<point x="312" y="10" type="curve" smooth="yes"/>
			<point x="176" y="10"/>
			<point x="120" y="153"/>
			<point x="120" y="336" type="curve" smooth="yes"/>
			<point x="120" y="520"/>
			<point x="176" y="658"/>
			<point x="312" y="658" type="curve" smooth="yes"/>
			<point x="448" y="658"/>
			<point x="504" y="515"/>
			<point x="504" y="332" type="curve" smooth="yes"/>
			<point x="504" y="148"/>
			<point x="448" y="10"/>
		</contour>
		<contour>
			<point x="312" y="-16" type="curve" smooth="yes"/>
			<point x="457" y="-16"/>
			<point x="580" y="113"/>
			<point x="580" y="332" type="curve" smooth="yes"/>
			<point x="580" y="560"/>
			<point x="458" y="684"/>
			<point x="312" y="684" type="curve" smooth="yes"/>
			<point x="167" y="684"/>
			<point x="44" y="555"/>
			<point x="44" y="336" type="curve" smooth="yes"/>
			<point x="44" y="108"/>
			<point x="166" y="-16"/>
		</contour>
	</outline>
	<anchor name="aboveUC" x="353" y="691"/>
	<anchor name="belowLC" x="353" y="-22"/>
	<anchor name="ogonek" x="444" y="0"/>
	<anchor name="hornLC" x="505" y="658"/>
</glyph>
<glyph name="P" format="2">
	<unicode hex="0050"/>
	<advance width="512"/>
	<outline>
		<contour>
			<point x="40" y="0" type="line"/>
			<point x="289" y="0" type="line"/>
			<point x="289" y="16" type="line"/>
			<point x="172" y="28" type="line"/>
			<point x="144" y="28" type="line"/>
			<point x="40" y="16" type="line"/>
		</contour>
		<contour>
			<point x="120" y="0" type="curve"/>
			<point x="196" y="0" type="line"/>
			<point x="192" y="80"/>
			<point x="192" y="210"/>
			<point x="192" y="316" type="curve" smooth="yes"/>
			<point x="192" y="360" type="line" smooth="yes"/>
			<point x="192" y="463"/>
			<point x="192" y="588"/>
			<point x="196" y="668" type="curve"/>
			<point x="120" y="668" type="line"/>
			<point x="124" y="588"/>
			<point x="124" y="463"/>
			<point x="124" y="360" type="curve" smooth="yes"/>
			<point x="124" y="316" type="line" smooth="yes"/>
			<point x="124" y="210"/>
			<point x="124" y="80"/>
		</contour>
		<contour>
			<point x="150" y="288" type="line"/>
			<point x="243" y="288" type="line" smooth="yes"/>
			<point x="420" y="288"/>
			<point x="488" y="379"/>
			<point x="488" y="482" type="curve" smooth="yes"/>
			<point x="488" y="591"/>
			<point x="412" y="668"/>
			<point x="271" y="668" type="curve" smooth="yes"/>
			<point x="150" y="668" type="line"/>
			<point x="150" y="644" type="line"/>
			<point x="253" y="644" type="line" smooth="yes"/>
			<point x="367" y="644"/>
			<point x="416" y="583"/>
			<point x="416" y="482" type="curve" smooth="yes"/>
			<point x="416" y="383"/>
			<point x="373" y="312"/>
			<point x="257" y="312" type="curve" smooth="yes"/>
			<point x="150" y="312" type="line"/>
		</contour>
		<contour>
			<point x="40" y="652" type="line"/>
			<point x="144" y="640" type="line"/>
			<point x="172" y="640" type="line"/>
			<point x="172" y="668" type="line"/>
			<point x="40" y="668" type="line"/>
		</contour>
	</outline>
	<anchor name="aboveUC" x="276" y="692"/>
	<anchor name="belowLC" x="158" y="-24"/>
</glyph>
<glyph name="Q" format="2">
	<unicode hex="0051"/>
	<advance width="665"/>
	<outline>
		<contour>
			<point x="470" y="-217" type="curve" smooth="yes"/>
			<point x="509" y="-217"/>
			<point x="553" y="-207"/>
			<point x="586" y="-185" type="curve"/>
			<point x="575" y="-150" type="line"/>
			<point x="545" y="-159"/>
			<point x="521" y="-162"/>
			<point x="502" y="-162" type="curve" smooth="yes"/>
			<point x="415" y="-162"/>
			<point x="364" y="-98"/>
			<point x="370" y="16" type="curve"/>
			<point x="286" y="31" type="line"/>
			<point x="286" y="-6" type="line" smooth="yes"/>
			<point x="286" y="-118"/>
			<point x="352" y="-217"/>
		</contour>
		<component base="O" xScale="0.94"/>
	</outline>
	<anchor name="aboveUC" x="332" y="691"/>
</glyph>
<glyph name="R" format="2">
	<unicode hex="0052"/>
	<advance width="588"/>
	<outline>
		<contour>
			<point x="124" y="340" type="line" smooth="yes"/>
			<point x="124" y="211"/>
			<point x="123" y="105"/>
			<point x="122" y="0" type="curve"/>
			<point x="194" y="0" type="line"/>
			<point x="193" y="105"/>
			<point x="192" y="211"/>
			<point x="192" y="340" type="curve" smooth="yes"/>
			<point x="192" y="362" type="line" smooth="yes"/>
			<point x="192" y="479"/>
			<point x="193" y="577"/>
			<point x="194" y="670" type="curve"/>
			<point x="122" y="670" type="line"/>
			<point x="123" y="577"/>
			<point x="124" y="479"/>
			<point x="124" y="362" type="curve" smooth="yes"/>
		</contour>
		<contour>
			<point x="272" y="0" type="line"/>
			<point x="272" y="20" type="line"/>
			<point x="172" y="32" type="line"/>
			<point x="144" y="32" type="line"/>
			<point x="40" y="20" type="line"/>
			<point x="40" y="0" type="line"/>
		</contour>
		<contour>
			<point x="40" y="670" type="line"/>
			<point x="40" y="650" type="line"/>
			<point x="144" y="638" type="line"/>
			<point x="172" y="638" type="line"/>
			<point x="172" y="670" type="line"/>
		</contour>
		<contour>
			<point x="412" y="56" type="line" smooth="yes"/>
			<point x="424" y="6"/>
			<point x="446" y="-8"/>
			<point x="504" y="-8" type="curve" smooth="yes"/>
			<point x="532" y="-8"/>
			<point x="555" y="-5"/>
			<point x="572" y="0" type="curve"/>
			<point x="572" y="20" type="line"/>
			<point x="463" y="30" type="line"/>
			<point x="496" y="16" type="line"/>
			<point x="446" y="199" type="line" smooth="yes"/>
			<point x="421" y="289"/>
			<point x="379" y="320"/>
			<point x="312" y="327" type="curve"/>
			<point x="318" y="319" type="line"/>
			<point x="428" y="328"/>
			<point x="492" y="409"/>
			<point x="492" y="494" type="curve" smooth="yes"/>
			<point x="492" y="605"/>
			<point x="413" y="670"/>
			<point x="288" y="670" type="curve" smooth="yes"/>
			<point x="150" y="670" type="line"/>
			<point x="150" y="642" type="line"/>
			<point x="278" y="642" type="line" smooth="yes"/>
			<point x="376" y="642"/>
			<point x="420" y="588"/>
			<point x="420" y="496" type="curve" smooth="yes"/>
			<point x="420" y="406"/>
			<point x="369" y="338"/>
			<point x="267" y="338" type="curve" smooth="yes"/>
			<point x="150" y="338" type="line"/>
			<point x="150" y="310" type="line"/>
			<point x="243" y="310" type="line" smooth="yes"/>
			<point x="321" y="310"/>
			<point x="356" y="296"/>
			<point x="375" y="215" type="curve" smooth="yes"/>
		</contour>
	</outline>
	<anchor name="aboveUC" x="307" y="691"/>
	<anchor name="belowLC" x="355" y="-22"/>
</glyph>
<glyph name="S" format="2">
	<unicode hex="0053"/>
	<advance width="468"/>
	<outline>
		<contour>
			<point x="428" y="172" type="curve" smooth="yes"/>
			<point x="428" y="284"/>
			<point x="348" y="326"/>
			<point x="268" y="364" type="curve" smooth="yes"/>
			<point x="232" y="381" type="line" smooth="yes"/>
			<point x="166" y="412"/>
			<point x="108" y="447"/>
			<point x="108" y="524" type="curve"/>
			<point x="108" y="627"/>
			<point x="174" y="663"/>
			<point x="248" y="663" type="curve" smooth="yes"/>
			<point x="298" y="663"/>
			<point x="342" y="657"/>
			<point x="388" y="611" type="curve"/>
			<point x="384" y="636" type="line"/>
			<point x="337" y="656" type="line"/>
			<point x="380" y="492" type="line"/>
			<point x="396" y="492" type="line"/>
			<point x="400" y="636" type="line"/>
			<point x="363" y="666"/>
			<point x="315" y="684"/>
			<point x="248" y="684" type="curve" smooth="yes"/>
			<point x="141" y="684"/>
			<point x="52" y="621"/>
			<point x="52" y="506" type="curve" smooth="yes"/>
			<point x="52" y="397"/>
			<point x="130" y="355"/>
			<point x="208" y="318" type="curve" smooth="yes"/>
			<point x="244" y="301" type="line" smooth="yes"/>
			<point x="310" y="270"/>
			<point x="368" y="234"/>
			<point x="368" y="156" type="curve" smooth="yes"/>
			<point x="368" y="46"/>
			<point x="305" y="5"/>
			<point x="216" y="5" type="curve" smooth="yes"/>
			<point x="152" y="5"/>
			<point x="118" y="18"/>
			<point x="60" y="52" type="curve"/>
			<point x="49" y="52" type="line"/>
			<point x="104" y="12" type="line"/>
			<point x="64" y="188" type="line"/>
			<point x="48" y="188" type="line"/>
			<point x="40" y="36" type="line"/>
			<point x="83" y="6"/>
			<point x="145" y="-16"/>
			<point x="216" y="-16" type="curve" smooth="yes"/>
			<point x="349" y="-16"/>
			<point x="428" y="54"/>
		</contour>
	</outline>
	<anchor name="aboveUC" x="248" y="692"/>
	<anchor name="belowLC" x="224" y="-24"/>
	<anchor name="baseLC" x="224" y="0"/>
</glyph>
<glyph name="T" format="2">
	<unicode hex="0054"/>
	<advance width="566"/>
	<outline>
		<contour>
			<point x="142" y="0" type="line"/>
			<point x="424" y="0" type="line"/>
			<point x="424" y="40" type="line"/>
			<point x="292" y="55" type="line"/>
			<point x="274" y="55" type="line"/>
			<point x="142" y="40" type="line"/>
		</contour>
		<contour>
			<point x="241" y="205"/>
			<point x="241" y="101"/>
			<point x="238" y="0" type="curve"/>
			<point x="328" y="0" type="line"/>
			<point x="325" y="103"/>
			<point x="325" y="207"/>
			<point x="325" y="310" type="curve" smooth="yes"/>
			<point x="325" y="360" type="line" smooth="yes"/>
			<point x="325" y="465"/>
			<point x="325" y="569"/>
			<point x="328" y="670" type="curve"/>
			<point x="238" y="670" type="line"/>
			<point x="241" y="567"/>
			<point x="241" y="463"/>
			<point x="241" y="360" type="curve" smooth="yes"/>
			<point x="241" y="310" type="line" smooth="yes"/>
		</contour>
		<contour>
			<point x="19" y="492" type="line"/>
			<point x="71" y="492" type="line"/>
			<point x="102" y="670" type="line"/>
			<point x="59" y="620" type="line"/>
			<point x="507" y="620" type="line"/>
			<point x="464" y="670" type="line"/>
			<point x="494" y="492" type="line"/>
			<point x="547" y="492" type="line"/>
			<point x="540" y="670" type="line"/>
			<point x="26" y="670" type="line"/>
		</contour>
	</outline>
	<anchor name="aboveUC" x="283" y="691"/>
	<anchor name="belowLC" x="283" y="-22"/>
	<anchor name="baseLC" x="283" y="0"/>
</glyph>
<glyph name="U" format="2">
	<unicode hex="0055"/>
	<advance width="683"/>
	<outline>
		<contour>
			<point x="118" y="66"/>
			<point x="210" y="-15"/>
			<point x="346" y="-15" type="curve" smooth="yes"/>
			<point x="473" y="-15"/>
			<point x="569" y="63"/>
			<point x="569" y="273" type="curve" smooth="yes"/>
			<point x="569" y="670" type="line"/>
			<point x="522" y="670" type="line"/>
			<point x="522" y="299" type="line" smooth="yes"/>
			<point x="522" y="120"/>
			<point x="467" y="55"/>
			<point x="359" y="55" type="curve" smooth="yes"/>
			<point x="263" y="55"/>
			<point x="202" y="109"/>
			<point x="202" y="281" type="curve" smooth="yes"/>
			<point x="202" y="360" type="line" smooth="yes"/>
			<point x="202" y="465"/>
			<point x="202" y="569"/>
			<point x="205" y="670" type="curve"/>
			<point x="115" y="670" type="line"/>
			<point x="118" y="567"/>
			<point x="118" y="463"/>
			<point x="118" y="360" type="curve" smooth="yes"/>
			<point x="118" y="252" type="line" smooth="yes"/>
		</contour>
		<contour>
			<point x="38" y="630" type="line"/>
			<point x="160" y="615" type="line"/>
			<point x="179" y="615" type="line"/>
			<point x="301" y="630" type="line"/>
			<point x="301" y="670" type="line"/>
			<point x="38" y="670" type="line"/>
		</contour>
		<contour>
			<point x="425" y="630" type="line"/>
			<point x="528" y="615" type="line"/>
			<point x="547" y="615" type="line"/>
			<point x="650" y="630" type="line"/>
			<point x="650" y="670" type="line"/>
			<point x="425" y="670" type="line"/>
		</contour>
	</outline>
	<anchor name="aboveUC" x="356" y="691"/>
	<anchor name="belowLC" x="351" y="-22"/>
	<anchor name="ogonek" x="425" y="0"/>
	<anchor name="hornLC" x="548" y="679"/>
</glyph>
<glyph name="V" format="2">
	<unicode hex="0056"/>
	<advance width="634"/>
	<outline>
		<contour>
			<point x="306" y="-7" type="line"/>
			<point x="344" y="-7" type="line"/>
			<point x="559" y="670" type="line"/>
			<point x="509" y="670" type="line"/>
			<point x="328" y="103" type="line"/>
			<point x="346" y="104" type="line"/>
			<point x="160" y="670" type="line"/>
			<point x="70" y="670" type="line"/>
		</contour>
		<contour>
			<point x="14" y="630" type="line"/>
			<point x="136" y="615" type="line"/>
			<point x="155" y="615" type="line"/>
			<point x="268" y="625" type="line"/>
			<point x="268" y="670" type="line"/>
			<point x="14" y="670" type="line"/>
		</contour>
		<contour>
			<point x="408" y="625" type="line"/>
			<point x="502" y="615" type="line"/>
			<point x="521" y="615" type="line"/>
			<point x="625" y="630" type="line"/>
			<point x="625" y="670" type="line"/>
			<point x="408" y="670" type="line"/>
		</contour>
	</outline>
	<anchor name="aboveUC" x="327" y="691"/>
	<anchor name="belowLC" x="326" y="-22"/>
</glyph>
<glyph name="W" format="2">
	<unicode hex="0057"/>
	<advance width="894"/>
	<outline>
		<contour>
			<point x="482" y="670" type="line"/>
			<point x="448" y="670" type="line"/>
			<point x="276" y="92" type="line"/>
			<point x="295" y="92" type="line"/>
			<point x="150" y="670" type="line"/>
			<point x="73" y="670" type="line"/>
			<point x="248" y="-6" type="line"/>
			<point x="280" y="-6" type="line"/>
		</contour>
		<contour>
			<point x="12" y="670" type="line"/>
			<point x="12" y="650" type="line"/>
			<point x="104" y="638" type="line"/>
			<point x="124" y="638" type="line"/>
			<point x="248" y="650" type="line"/>
			<point x="248" y="670" type="line"/>
		</contour>
		<contour>
			<point x="820" y="670" type="line"/>
			<point x="784" y="670" type="line"/>
			<point x="631" y="92" type="line"/>
			<point x="650" y="92" type="line"/>
			<point x="485" y="670" type="line"/>
			<point x="434" y="588" type="line"/>
			<point x="602" y="-6" type="line"/>
			<point x="634" y="-6" type="line"/>
		</contour>
		<contour>
			<point x="682" y="670" type="line"/>
			<point x="682" y="650" type="line"/>
			<point x="786" y="640" type="line"/>
			<point x="802" y="640" type="line"/>
			<point x="882" y="650" type="line"/>
			<point x="882" y="670" type="line"/>
		</contour>
		<contour>
			<point x="356" y="670" type="line"/>
			<point x="356" y="650" type="line"/>
			<point x="444" y="641" type="line"/>
			<point x="468" y="638" type="line"/>
			<point x="576" y="650" type="line"/>
			<point x="576" y="670" type="line"/>
		</contour>
	</outline>
	<anchor name="aboveUC" x="499" y="691"/>
	<anchor name="belowLC" x="499" y="-22"/>
</glyph>
<glyph name="X" format="2">
	<unicode hex="0058"/>
	<advance width="609"/>
	<outline>
		<contour>
			<point x="9" y="0" type="line"/>
			<point x="226" y="0" type="line"/>
			<point x="226" y="40" type="line"/>
			<point x="132" y="55" type="line"/>
			<point x="113" y="55" type="line"/>
			<point x="9" y="40" type="line"/>
		</contour>
		<contour>
			<point x="68" y="0" type="line"/>
			<point x="120" y="0" type="line"/>
			<point x="316" y="328" type="line"/>
			<point x="286" y="354" type="line"/>
		</contour>
		<contour>
			<point x="337" y="0" type="line"/>
			<point x="600" y="0" type="line"/>
			<point x="600" y="40" type="line"/>
			<point x="478" y="55" type="line"/>
			<point x="459" y="55" type="line"/>
			<point x="337" y="40" type="line"/>
		</contour>
		<contour>
			<point x="313" y="316" type="line"/>
			<point x="528" y="670" type="line"/>
			<point x="476" y="670" type="line"/>
			<point x="283" y="342" type="line"/>
		</contour>
		<contour>
			<point x="453" y="0" type="line"/>
			<point x="547" y="0" type="line"/>
			<point x="167" y="670" type="line"/>
			<point x="73" y="670" type="line"/>
		</contour>
		<contour>
			<point x="18" y="630" type="line"/>
			<point x="140" y="615" type="line"/>
			<point x="159" y="615" type="line"/>
			<point x="281" y="630" type="line"/>
			<point x="281" y="670" type="line"/>
			<point x="18" y="670" type="line"/>
		</contour>
		<contour>
			<point x="364" y="630" type="line"/>
			<point x="458" y="615" type="line"/>
			<point x="477" y="615" type="line"/>
			<point x="580" y="630" type="line"/>
			<point x="580" y="670" type="line"/>
			<point x="364" y="670" type="line"/>
		</contour>
	</outline>
	<anchor name="aboveUC" x="304" y="691"/>
	<anchor name="belowLC" x="294" y="-22"/>
</glyph>
<glyph name="Y" format="2">
	<unicode hex="0059"/>
	<advance width="595"/>
	<outline>
		<contour>
			<point x="158" y="0" type="line"/>
			<point x="440" y="0" type="line"/>
			<point x="440" y="40" type="line"/>
			<point x="308" y="55" type="line"/>
			<point x="290" y="55" type="line"/>
			<point x="158" y="40" type="line"/>
		</contour>
		<contour>
			<point x="254" y="0" type="curve"/>
			<point x="344" y="0" type="line"/>
			<point x="341" y="89"/>
			<point x="341" y="186"/>
			<point x="341" y="300" type="curve"/>
			<point x="257" y="300" type="line"/>
			<point x="257" y="185"/>
			<point x="257" y="87"/>
		</contour>
		<contour>
			<point x="273" y="225" type="line"/>
			<point x="324" y="225" type="line"/>
			<point x="526" y="670" type="line"/>
			<point x="478" y="670" type="line"/>
			<point x="303" y="276" type="line"/>
			<point x="336" y="276" type="line"/>
			<point x="164" y="670" type="line"/>
			<point x="67" y="670" type="line"/>
		</contour>
		<contour>
			<point x="14" y="630" type="line"/>
			<point x="136" y="615" type="line"/>
			<point x="155" y="615" type="line"/>
			<point x="277" y="630" type="line"/>
			<point x="277" y="670" type="line"/>
			<point x="14" y="670" type="line"/>
		</contour>
		<contour>
			<point x="369" y="630" type="line"/>
			<point x="474" y="615" type="line"/>
			<point x="492" y="615" type="line"/>
			<point x="586" y="630" type="line"/>
			<point x="586" y="670" type="line"/>
			<point x="369" y="670" type="line"/>
		</contour>
	</outline>
	<anchor name="aboveUC" x="315" y="691"/>
	<anchor name="belowLC" x="297" y="-22"/>
</glyph>
<glyph name="Z" format="2">
	<unicode hex="005A"/>
	<advance width="492"/>
	<outline>
		<contour>
			<point x="20" y="0" type="line"/>
			<point x="464" y="0" type="line"/>
			<point x="472" y="176" type="line"/>
			<point x="444" y="176" type="line"/>
			<point x="412" y="16" type="line"/>
			<point x="440" y="28" type="line"/>
			<point x="72" y="28" type="line"/>
			<point x="89" y="8" type="line"/>
			<point x="448" y="654" type="line"/>
			<point x="448" y="670" type="line"/>
			<point x="36" y="670" type="line"/>
			<point x="28" y="494" type="line"/>
			<point x="56" y="494" type="line"/>
			<point x="88" y="654" type="line"/>
			<point x="60" y="642" type="line"/>
			<point x="396" y="642" type="line"/>
			<point x="379" y="662" type="line"/>
			<point x="20" y="16" type="line"/>
		</contour>
	</outline>
	<anchor name="aboveUC" x="283" y="691"/>
	<anchor name="belowLC" x="283" y="-22"/>
</glyph>
<glyph name="bracketleft" format="2">
	<unicode hex="005B"/>
	<advance width="300"/>
	<outline>
		<contour>
			<point x="264" y="-160" type="line"/>
			<point x="264" y="-144" type="line"/>
			<point x="144" y="-130" type="line"/>
			<point x="124" y="-130" type="line"/>
			<point x="124" y="-160" type="line"/>
		</contour>
		<contour>
			<point x="124" y="716" type="line"/>
			<point x="124" y="686" type="line"/>
			<point x="144" y="686" type="line"/>
			<point x="264" y="700" type="line"/>
			<point x="264" y="716" type="line"/>
		</contour>
		<contour>
			<point x="100" y="716" type="line"/>
			<point x="104" y="636"/>
			<point x="104" y="511"/>
			<point x="104" y="408" type="curve" smooth="yes"/>
			<point x="104" y="156" type="line" smooth="yes"/>
			<point x="104" y="50"/>
			<point x="104" y="-80"/>
			<point x="100" y="-160" type="curve"/>
			<point x="168" y="-160" type="line"/>
			<point x="164" y="-80"/>
			<point x="164" y="50"/>
			<point x="164" y="156" type="curve" smooth="yes"/>
			<point x="164" y="408" type="line" smooth="yes"/>
			<point x="164" y="511"/>
			<point x="164" y="636"/>
			<point x="168" y="716" type="curve"/>
		</contour>
	</outline>
</glyph>
<glyph name="asciicircum" format="2">
	<unicode hex="005E"/>
	<advance width="496"/>
	<outline>
		<contour>
			<point x="84" y="232" type="line"/>
			<point x="110" y="216" type="line"/>
			<point x="259" y="468" type="line"/>
			<point x="241" y="468" type="line"/>
			<point x="390" y="216" type="line"/>
			<point x="416" y="232" type="line"/>
			<point x="260" y="500" type="line"/>
			<point x="240" y="500" type="line"/>
		</contour>
	</outline>
</glyph>
<glyph name="underscore" format="2">
	<unicode hex="005F"/>
	<advance width="477"/>
	<outline>
		<contour>
			<point x="-5" y="-81" type="line"/>
			<point x="482" y="-81" type="line"/>
			<point x="482" y="-45" type="line"/>
			<point x="-5" y="-45" type="line"/>
		</contour>
	</outline>
</glyph>
<glyph name="a" format="2">
	<unicode hex="0061"/>
	<advance width="452"/>
	<outline>
		<contour>
			<point x="187" y="36" type="curve" smooth="yes"/>
			<point x="144" y="36"/>
			<point x="112" y="59"/>
			<point x="112" y="116" type="curve" smooth="yes"/>
			<point x="112" y="148"/>
			<point x="120" y="189"/>
			<point x="205" y="225" type="curve" smooth="yes"/>
			<point x="224" y="233"/>
			<point x="259" y="246"/>
			<point x="328" y="266" type="curve"/>
			<point x="328" y="282" type="line"/>
			<point x="257" y="265"/>
			<point x="216" y="252"/>
			<point x="187" y="242" type="curve" smooth="yes"/>
			<point x="67" y="201"/>
			<point x="44" y="155"/>
			<point x="44" y="100" type="curve" smooth="yes"/>
			<point x="44" y="27"/>
			<point x="96" y="-12"/>
			<point x="160" y="-12" type="curve" smooth="yes"/>
			<point x="212" y="-12"/>
			<point x="255" y="11"/>
			<point x="298" y="68" type="curve"/>
			<point x="328" y="68" type="line"/>
			<point x="320" y="106" type="line"/>
			<point x="259" y="45"/>
			<point x="232" y="36"/>
		</contour>
		<contour>
			<point x="368" y="-8" type="curve" smooth="yes"/>
			<point x="407" y="-8"/>
			<point x="430" y="13"/>
			<point x="444" y="45" type="curve"/>
			<point x="432" y="55" type="line"/>
			<point x="415" y="35"/>
			<point x="405" y="28"/>
			<point x="388" y="28" type="curve" smooth="yes"/>
			<point x="369" y="28"/>
			<point x="356" y="41"/>
			<point x="356" y="84" type="curve" smooth="yes"/>
			<point x="356" y="306" type="line" smooth="yes"/>
			<point x="356" y="416"/>
			<point x="314" y="464"/>
			<point x="224" y="464" type="curve" smooth="yes"/>
			<point x="140" y="464"/>
			<point x="72" y="421"/>
			<point x="56" y="356" type="curve"/>
			<point x="58" y="334"/>
			<point x="68" y="320"/>
			<point x="90" y="320" type="curve" smooth="yes"/>
			<point x="112" y="320"/>
			<point x="126" y="335"/>
			<point x="132" y="360" type="curve" smooth="yes"/>
			<point x="152" y="440" type="line"/>
			<point x="124" y="418" type="line"/>
			<point x="151" y="427"/>
			<point x="174" y="434"/>
			<point x="200" y="434" type="curve" smooth="yes"/>
			<point x="263" y="434"/>
			<point x="292" y="406"/>
			<point x="292" y="328" type="curve" smooth="yes"/>
			<point x="292" y="76" type="line" smooth="yes"/>
			<point x="292" y="21"/>
			<point x="318" y="-8"/>
		</contour>
	</outline>
	<anchor name="aboveLC" x="244" y="506"/>
	<anchor name="belowLC" x="243" y="-22"/>
	<anchor name="ogonek" x="446" y="0"/>
</glyph>
<glyph name="b" format="2">
	<unicode hex="0062"/>
	<advance width="544"/>
	<outline>
		<contour>
			<point x="110" y="212" type="line" smooth="yes"/>
			<point x="110" y="161"/>
			<point x="110" y="88"/>
			<point x="109" y="29" type="curve"/>
			<point x="36" y="20" type="line"/>
			<point x="36" y="0" type="line"/>
			<point x="174" y="-10" type="line"/>
			<point x="174" y="61" type="line"/>
			<point x="174" y="369" type="line"/>
			<point x="172" y="380" type="line"/>
			<point x="172" y="616" type="line" smooth="yes"/>
			<point x="172" y="643"/>
			<point x="174" y="689"/>
			<point x="175" y="732" type="curve"/>
			<point x="163" y="740" type="line"/>
			<point x="32" y="707" type="line"/>
			<point x="32" y="691" type="line"/>
			<point x="110" y="680" type="line"/>
		</contour>
		<contour>
			<point x="312" y="-12" type="curve" smooth="yes"/>
			<point x="421" y="-12"/>
			<point x="500" y="82"/>
			<point x="500" y="232" type="curve" smooth="yes"/>
			<point x="500" y="376"/>
			<point x="430" y="464"/>
			<point x="316" y="464" type="curve" smooth="yes"/>
			<point x="248" y="464"/>
			<point x="193" y="427"/>
			<point x="163" y="371" type="curve"/>
			<point x="152" y="371" type="line"/>
			<point x="158" y="342" type="line"/>
			<point x="195" y="398"/>
			<point x="240" y="426"/>
			<point x="295" y="426" type="curve" smooth="yes"/>
			<point x="375" y="426"/>
			<point x="432" y="366"/>
			<point x="432" y="232" type="curve" smooth="yes"/>
			<point x="432" y="94"/>
			<point x="371" y="26"/>
			<point x="295" y="26" type="curve" smooth="yes"/>
			<point x="239" y="26"/>
			<point x="200" y="41"/>
			<point x="150" y="97" type="curve"/>
			<point x="145" y="71" type="line"/>
			<point x="158" y="71" type="line"/>
			<point x="199" y="8"/>
			<point x="254" y="-12"/>
		</contour>
	</outline>
	<anchor name="aboveLC" x="131" y="739"/>
	<anchor name="belowLC" x="327" y="-22"/>
</glyph>
<glyph name="c" format="2">
	<unicode hex="0063"/>
	<advance width="446"/>
	<outline>
		<contour>
			<point x="44" y="220" type="curve" smooth="yes"/>
			<point x="44" y="79"/>
			<point x="120" y="-12"/>
			<point x="242" y="-12" type="curve" smooth="yes"/>
			<point x="327" y="-12"/>
			<point x="381" y="29"/>
			<point x="414" y="96" type="curve"/>
			<point x="398" y="106" type="line"/>
			<point x="366" y="57"/>
			<point x="323" y="36"/>
			<point x="262" y="36" type="curve" smooth="yes"/>
			<point x="173" y="36"/>
			<point x="112" y="102"/>
			<point x="112" y="232" type="curve" smooth="yes"/>
			<point x="112" y="372"/>
			<point x="174" y="438"/>
			<point x="254" y="438" type="curve" smooth="yes"/>
			<point x="276" y="438"/>
			<point x="305" y="431"/>
			<point x="335" y="412" type="curve"/>
			<point x="304" y="440" type="line"/>
			<point x="324" y="360" type="line" smooth="yes"/>
			<point x="330" y="335"/>
			<point x="346" y="320"/>
			<point x="368" y="320" type="curve" smooth="yes"/>
			<point x="390" y="320"/>
			<point x="400" y="332"/>
			<point x="402" y="354" type="curve"/>
			<point x="390" y="418"/>
			<point x="332" y="464"/>
			<point x="256" y="464" type="curve" smooth="yes"/>
			<point x="148" y="464"/>
			<point x="44" y="382"/>
		</contour>
	</outline>
	<anchor name="aboveLC" x="273" y="506"/>
	<anchor name="belowLC" x="275" y="-22"/>
	<anchor name="baseLC" x="275" y="0"/>
</glyph>
<glyph name="d" format="2">
	<unicode hex="0064"/>
	<advance width="514"/>
	<outline>
		<contour>
			<point x="42" y="84"/>
			<point x="116" y="-12"/>
			<point x="228" y="-12" type="curve" smooth="yes"/>
			<point x="290" y="-12"/>
			<point x="331" y="19"/>
			<point x="364" y="70" type="curve"/>
			<point x="376" y="70" type="line"/>
			<point x="368" y="117" type="line"/>
			<point x="326" y="61"/>
			<point x="294" y="40"/>
			<point x="248" y="40" type="curve" smooth="yes"/>
			<point x="174" y="40"/>
			<point x="119" y="97"/>
			<point x="119" y="223" type="curve" smooth="yes"/>
			<point x="119" y="353"/>
			<point x="178" y="410"/>
			<point x="247" y="410" type="curve" smooth="yes"/>
			<point x="281" y="410"/>
			<point x="318" y="395"/>
			<point x="370" y="342" type="curve"/>
			<point x="379" y="387" type="line"/>
			<point x="366" y="387" type="line"/>
			<point x="324" y="445"/>
			<point x="283" y="463"/>
			<point x="236" y="463" type="curve" smooth="yes"/>
			<point x="124" y="463"/>
			<point x="42" y="366"/>
			<point x="42" y="221" type="curve" smooth="yes"/>
		</contour>
		<contour>
			<point x="361" y="-10" type="line"/>
			<point x="500" y="0" type="line"/>
			<point x="500" y="33" type="line"/>
			<point x="425" y="46" type="line"/>
			<point x="425" y="560" type="line"/>
			<point x="429" y="695" type="line"/>
			<point x="416" y="703" type="line"/>
			<point x="277" y="660" type="line"/>
			<point x="277" y="627" type="line"/>
			<point x="355" y="618" type="line"/>
			<point x="355" y="378" type="line"/>
			<point x="352" y="366" type="line"/>
			<point x="352" y="87" type="line"/>
		</contour>
	</outline>
	<anchor name="aboveLC" x="360" y="702"/>
	<anchor name="belowLC" x="260" y="-21"/>
</glyph>
<glyph name="e" format="2">
	<unicode hex="0065"/>
	<advance width="454"/>
	<outline>
		<contour>
			<point x="38" y="76"/>
			<point x="123" y="-12"/>
			<point x="245" y="-12" type="curve" smooth="yes"/>
			<point x="330" y="-12"/>
			<point x="382" y="31"/>
			<point x="415" y="98" type="curve"/>
			<point x="402" y="105" type="line"/>
			<point x="370" y="56"/>
			<point x="327" y="34"/>
			<point x="266" y="34" type="curve" smooth="yes"/>
			<point x="177" y="34"/>
			<point x="115" y="103"/>
			<point x="115" y="233" type="curve" smooth="yes"/>
			<point x="115" y="383"/>
			<point x="181" y="439"/>
			<point x="247" y="439" type="curve" smooth="yes"/>
			<point x="312" y="439"/>
			<point x="352" y="392"/>
			<point x="352" y="313" type="curve" smooth="yes"/>
			<point x="352" y="284"/>
			<point x="339" y="270"/>
			<point x="303" y="270" type="curve" smooth="yes"/>
			<point x="72" y="270" type="line"/>
			<point x="72" y="245" type="line"/>
			<point x="407" y="245" type="line"/>
			<point x="411" y="257"/>
			<point x="414" y="276"/>
			<point x="414" y="298" type="curve" smooth="yes"/>
			<point x="414" y="402"/>
			<point x="342" y="463"/>
			<point x="251" y="463" type="curve" smooth="yes"/>
			<point x="135" y="463"/>
			<point x="38" y="366"/>
			<point x="38" y="213" type="curve" smooth="yes"/>
		</contour>
	</outline>
	<anchor name="aboveLC" x="247" y="481"/>
	<anchor name="belowLC" x="254" y="-21"/>
	<anchor name="ogonek" x="308" y="0"/>
</glyph>
<glyph name="f" format="2">
	<unicode hex="0066"/>
	<advance width="318"/>
	<outline>
		<contour>
			<point x="138" y="424" type="line"/>
			<point x="298" y="424" type="line"/>
			<point x="298" y="452" type="line"/>
			<point x="138" y="452" type="line"/>
		</contour>
		<contour>
			<point x="36" y="0" type="line"/>
			<point x="268" y="0" type="line"/>
			<point x="268" y="20" type="line"/>
			<point x="156" y="32" type="line"/>
			<point x="132" y="32" type="line"/>
			<point x="36" y="20" type="line"/>
		</contour>
		<contour>
			<point x="218" y="706" type="curve" smooth="yes"/>
			<point x="235" y="724"/>
			<point x="258" y="730"/>
			<point x="274" y="730" type="curve" smooth="yes"/>
			<point x="285" y="730"/>
			<point x="301" y="718"/>
			<point x="310" y="714" type="curve"/>
			<point x="294" y="747" type="line"/>
			<point x="220" y="730" type="line"/>
			<point x="261" y="701" type="line" smooth="yes"/>
			<point x="288" y="681"/>
			<point x="304" y="672"/>
			<point x="326" y="672" type="curve" smooth="yes"/>
			<point x="352" y="672"/>
			<point x="372" y="686"/>
			<point x="374" y="708" type="curve"/>
			<point x="365" y="735"/>
			<point x="333" y="750"/>
			<point x="294" y="750" type="curve" smooth="yes"/>
			<point x="255" y="750"/>
			<point x="214" y="738"/>
			<point x="182" y="702" type="curve" smooth="yes"/>
			<point x="137" y="652"/>
			<point x="116" y="589"/>
			<point x="111" y="453" type="curve" smooth="yes"/>
			<point x="110" y="426" type="line"/>
			<point x="110" y="424" type="line"/>
			<point x="130" y="460" type="line"/>
			<point x="32" y="444" type="line"/>
			<point x="32" y="424" type="line"/>
			<point x="110" y="424" type="line"/>
			<point x="110" y="212" type="line" smooth="yes"/>
			<point x="110" y="148"/>
			<point x="109" y="46"/>
			<point x="108" y="0" type="curve"/>
			<point x="176" y="0" type="line"/>
			<point x="175" y="46"/>
			<point x="174" y="148"/>
			<point x="174" y="212" type="curve" smooth="yes"/>
			<point x="174" y="444" type="line"/>
			<point x="167" y="577"/>
			<point x="186" y="671"/>
		</contour>
	</outline>
	<anchor name="aboveLC" x="294" y="750"/>
	<anchor name="belowLC" x="158" y="-22"/>
</glyph>
<glyph name="g" format="2">
	<unicode hex="0067"/>
	<advance width="476"/>
	<outline>
		<contour>
			<point x="220" y="464" type="curve" smooth="yes"/>
			<point x="138" y="464"/>
			<point x="58" y="407"/>
			<point x="58" y="300" type="curve" smooth="yes"/>
			<point x="58" y="193"/>
			<point x="138" y="140"/>
			<point x="220" y="140" type="curve" smooth="yes"/>
			<point x="302" y="140"/>
			<point x="382" y="197"/>
			<point x="382" y="304" type="curve" smooth="yes"/>
			<point x="382" y="411"/>
			<point x="302" y="464"/>
		</contour>
		<contour>
			<point x="220" y="164" type="curve" smooth="yes"/>
			<point x="161" y="164"/>
			<point x="124" y="208"/>
			<point x="124" y="300" type="curve" smooth="yes"/>
			<point x="124" y="392"/>
			<point x="161" y="440"/>
			<point x="220" y="440" type="curve" smooth="yes"/>
			<point x="279" y="440"/>
			<point x="316" y="396"/>
			<point x="316" y="304" type="curve" smooth="yes"/>
			<point x="316" y="212"/>
			<point x="279" y="164"/>
		</contour>
		<contour>
			<point x="32" y="-138" type="curve" smooth="yes"/>
			<point x="32" y="-210"/>
			<point x="84" y="-260"/>
			<point x="222" y="-260" type="curve" smooth="yes"/>
			<point x="370" y="-260"/>
			<point x="448" y="-174"/>
			<point x="448" y="-86" type="curve" smooth="yes"/>
			<point x="448" y="-2"/>
			<point x="396" y="40"/>
			<point x="296" y="40" type="curve" smooth="yes"/>
			<point x="172" y="40" type="line" smooth="yes"/>
			<point x="122" y="40"/>
			<point x="100" y="58"/>
			<point x="100" y="92" type="curve" smooth="yes"/>
			<point x="100" y="114"/>
			<point x="107" y="137"/>
			<point x="136" y="164" type="curve"/>
			<point x="124" y="180" type="line"/>
			<point x="124" y="174" type="line"/>
			<point x="77" y="132"/>
			<point x="56" y="104"/>
			<point x="56" y="68" type="curve" smooth="yes"/>
			<point x="56" y="21"/>
			<point x="78" y="-6"/>
			<point x="132" y="-18" type="curve"/>
			<point x="132" y="-20" type="line"/>
			<point x="154" y="-24"/>
			<point x="151" y="-24"/>
			<point x="176" y="-24" type="curve" smooth="yes"/>
			<point x="284" y="-24" type="line" smooth="yes"/>
			<point x="357" y="-24"/>
			<point x="388" y="-62"/>
			<point x="388" y="-114" type="curve" smooth="yes"/>
			<point x="388" y="-182"/>
			<point x="330" y="-236"/>
			<point x="222" y="-236" type="curve" smooth="yes"/>
			<point x="145" y="-236"/>
			<point x="92" y="-202"/>
			<point x="92" y="-126" type="curve" smooth="yes"/>
			<point x="92" y="-60"/>
			<point x="127" y="-34"/>
			<point x="156" y="-12" type="curve"/>
			<point x="152" y="-4" type="line"/>
			<point x="70" y="-39"/>
			<point x="32" y="-83"/>
		</contour>
		<contour>
			<point x="332" y="392" type="line"/>
			<point x="452" y="392" type="line"/>
			<point x="452" y="456" type="line"/>
			<point x="440" y="464" type="line"/>
			<point x="336" y="408" type="line"/>
			<point x="332" y="408" type="line"/>
		</contour>
	</outline>
	<anchor name="aboveLC" x="259" y="506"/>
	<anchor name="belowLC" x="264" y="-243"/>
</glyph>
<glyph name="h" format="2">
	<unicode hex="0068"/>
	<advance width="533"/>
	<outline>
		<contour>
			<point x="28" y="0" type="line"/>
			<point x="238" y="0" type="line"/>
			<point x="238" y="20" type="line"/>
			<point x="141" y="39" type="line"/>
			<point x="122" y="39" type="line"/>
			<point x="28" y="20" type="line"/>
		</contour>
		<contour>
			<point x="101" y="134"/>
			<point x="99" y="78"/>
			<point x="96" y="0" type="curve"/>
			<point x="171" y="0" type="line"/>
			<point x="168" y="78"/>
			<point x="166" y="134"/>
			<point x="166" y="231" type="curve" smooth="yes"/>
			<point x="166" y="347" type="line"/>
			<point x="163" y="359" type="line"/>
			<point x="163" y="600" type="line"/>
			<point x="170" y="739" type="line"/>
			<point x="161" y="743" type="line"/>
			<point x="18" y="710" type="line"/>
			<point x="18" y="697" type="line"/>
			<point x="101" y="678" type="line"/>
			<point x="101" y="231" type="line" smooth="yes"/>
		</contour>
		<contour>
			<point x="309" y="0" type="line"/>
			<point x="520" y="0" type="line"/>
			<point x="520" y="20" type="line"/>
			<point x="421" y="39" type="line"/>
			<point x="403" y="39" type="line"/>
			<point x="309" y="20" type="line"/>
		</contour>
		<contour>
			<point x="386" y="134"/>
			<point x="384" y="78"/>
			<point x="381" y="0" type="curve"/>
			<point x="456" y="0" type="line"/>
			<point x="453" y="78"/>
			<point x="451" y="134"/>
			<point x="451" y="231" type="curve" smooth="yes"/>
			<point x="451" y="296" type="line" smooth="yes"/>
			<point x="451" y="414"/>
			<point x="410" y="463"/>
			<point x="334" y="463" type="curve" smooth="yes"/>
			<point x="261" y="463"/>
			<point x="195" y="411"/>
			<point x="157" y="360" type="curve"/>
			<point x="151" y="360" type="line"/>
			<point x="158" y="339" type="line"/>
			<point x="207" y="385"/>
			<point x="251" y="406"/>
			<point x="299" y="406" type="curve" smooth="yes"/>
			<point x="361" y="406"/>
			<point x="386" y="372"/>
			<point x="386" y="275" type="curve" smooth="yes"/>
			<point x="386" y="231" type="line" smooth="yes"/>
		</contour>
	</outline>
	<anchor name="aboveLC" x="120" y="738"/>
	<anchor name="belowLC" x="280" y="-21"/>
</glyph>
<glyph name="i" format="2">
	<unicode hex="0069"/>
	<advance width="260"/>
	<outline>
		<contour>
			<point x="28" y="0" type="line"/>
			<point x="237" y="0" type="line"/>
			<point x="237" y="21" type="line"/>
			<point x="146" y="40" type="line"/>
			<point x="128" y="40" type="line"/>
			<point x="28" y="21" type="line"/>
		</contour>
		<contour>
			<point x="106" y="155"/>
			<point x="105" y="47"/>
			<point x="103" y="0" type="curve"/>
			<point x="173" y="0" type="line"/>
			<point x="172" y="47"/>
			<point x="171" y="155"/>
			<point x="171" y="220" type="curve" smooth="yes"/>
			<point x="171" y="325" type="line" smooth="yes"/>
			<point x="171" y="368"/>
			<point x="172" y="410"/>
			<point x="173" y="453" type="curve"/>
			<point x="160" y="463" type="line"/>
			<point x="22" y="416" type="line"/>
			<point x="22" y="402" type="line"/>
			<point x="103" y="384" type="line"/>
			<point x="105" y="337"/>
			<point x="106" y="299"/>
			<point x="106" y="234" type="curve" smooth="yes"/>
			<point x="106" y="220" type="line" smooth="yes"/>
		</contour>
		<contour>
			<point x="134" y="594" type="curve" smooth="yes"/>
			<point x="161" y="594"/>
			<point x="182" y="614"/>
			<point x="182" y="642" type="curve" smooth="yes"/>
			<point x="182" y="671"/>
			<point x="161" y="690"/>
			<point x="134" y="690" type="curve" smooth="yes"/>
			<point x="108" y="690"/>
			<point x="86" y="671"/>
			<point x="86" y="642" type="curve" smooth="yes"/>
			<point x="86" y="614"/>
			<point x="108" y="594"/>
		</contour>
	</outline>
	<anchor name="aboveLC" x="133" y="671"/>
	<anchor name="belowLC" x="136" y="-21"/>
	<anchor name="ogonek" x="164" y="0"/>
</glyph>
<glyph name="j" format="2">
	<unicode hex="006A"/>
	<advance width="250"/>
	<outline>
		<contour>
			<point x="-74" y="-208"/>
			<point x="-49" y="-238"/>
			<point x="5" y="-238" type="curve" smooth="yes"/>
			<point x="59" y="-238"/>
			<point x="85" y="-219"/>
			<point x="116" y="-187" type="curve" smooth="yes"/>
			<point x="166" y="-135"/>
			<point x="172" y="-60"/>
			<point x="172" y="98" type="curve" smooth="yes"/>
			<point x="172" y="325" type="line"/>
			<point x="175" y="453" type="line"/>
			<point x="161" y="463" type="line"/>
			<point x="27" y="406" type="line"/>
			<point x="27" y="372" type="line"/>
			<point x="100" y="364" type="line"/>
			<point x="102" y="326"/>
			<point x="103" y="296"/>
			<point x="103" y="244" type="curve" smooth="yes"/>
			<point x="103" y="98" type="line" smooth="yes"/>
			<point x="103" y="-48"/>
			<point x="97" y="-124"/>
			<point x="83" y="-163" type="curve" smooth="yes"/>
			<point x="69" y="-200"/>
			<point x="48" y="-205"/>
			<point x="23" y="-205" type="curve"/>
			<point x="25" y="-224" type="line"/>
			<point x="87" y="-204" type="line"/>
			<point x="46" y="-174" type="line" smooth="yes"/>
			<point x="22" y="-156"/>
			<point x="3" y="-146"/>
			<point x="-21" y="-146" type="curve" smooth="yes"/>
			<point x="-47" y="-146"/>
			<point x="-66" y="-159"/>
			<point x="-74" y="-183" type="curve"/>
		</contour>
		<contour>
			<point x="138" y="570" type="curve" smooth="yes"/>
			<point x="172" y="570"/>
			<point x="198" y="595"/>
			<point x="198" y="630" type="curve" smooth="yes"/>
			<point x="198" y="666"/>
			<point x="172" y="690"/>
			<point x="138" y="690" type="curve" smooth="yes"/>
			<point x="105" y="690"/>
			<point x="78" y="666"/>
			<point x="78" y="630" type="curve" smooth="yes"/>
			<point x="78" y="595"/>
			<point x="105" y="570"/>
		</contour>
	</outline>
	<anchor name="aboveLC" x="138" y="671"/>
	<anchor name="belowLC" x="48" y="-238"/>
</glyph>
<glyph name="k" format="2">
	<unicode hex="006B"/>
	<advance width="495"/>
	<outline>
		<contour>
			<point x="23" y="0" type="line"/>
			<point x="247" y="0" type="line"/>
			<point x="247" y="33" type="line"/>
			<point x="144" y="52" type="line"/>
			<point x="126" y="52" type="line"/>
			<point x="23" y="33" type="line"/>
		</contour>
		<contour>
			<point x="98" y="133"/>
			<point x="97" y="66"/>
			<point x="96" y="0" type="curve"/>
			<point x="174" y="0" type="line"/>
			<point x="172" y="66"/>
			<point x="171" y="133"/>
			<point x="171" y="200" type="curve" smooth="yes"/>
			<point x="171" y="560" type="line"/>
			<point x="175" y="695" type="line"/>
			<point x="162" y="703" type="line"/>
			<point x="23" y="660" type="line"/>
			<point x="23" y="627" type="line"/>
			<point x="98" y="618" type="line"/>
			<point x="98" y="200" type="line" smooth="yes"/>
		</contour>
		<contour>
			<point x="135" y="131" type="line"/>
			<point x="432" y="450" type="line"/>
			<point x="377" y="450" type="line"/>
			<point x="135" y="186" type="line"/>
		</contour>
		<contour>
			<point x="375" y="0" type="line"/>
			<point x="495" y="0" type="line"/>
			<point x="495" y="33" type="line"/>
			<point x="435" y="45" type="line"/>
			<point x="274" y="308" type="line"/>
			<point x="223" y="253" type="line"/>
		</contour>
		<contour>
			<point x="260" y="414" type="line"/>
			<point x="343" y="392" type="line"/>
			<point x="370" y="398" type="line"/>
			<point x="471" y="414" type="line"/>
			<point x="471" y="450" type="line"/>
			<point x="260" y="450" type="line"/>
		</contour>
	</outline>
	<anchor name="aboveLC" x="136" y="702"/>
	<anchor name="belowLC" x="278" y="-21"/>
</glyph>
<glyph name="l" format="2">
	<unicode hex="006C"/>
	<advance width="269"/>
	<outline>
		<contour>
			<point x="23" y="0" type="line"/>
			<point x="247" y="0" type="line"/>
			<point x="247" y="33" type="line"/>
			<point x="144" y="52" type="line"/>
			<point x="126" y="52" type="line"/>
			<point x="23" y="33" type="line"/>
		</contour>
		<contour>
			<point x="98" y="133"/>
			<point x="97" y="66"/>
			<point x="96" y="0" type="curve"/>
			<point x="174" y="0" type="line"/>
			<point x="172" y="66"/>
			<point x="171" y="133"/>
			<point x="171" y="200" type="curve" smooth="yes"/>
			<point x="171" y="560" type="line"/>
			<point x="175" y="695" type="line"/>
			<point x="162" y="703" type="line"/>
			<point x="23" y="660" type="line"/>
			<point x="23" y="627" type="line"/>
			<point x="98" y="618" type="line"/>
			<point x="98" y="200" type="line" smooth="yes"/>
		</contour>
	</outline>
	<anchor name="aboveLC" x="130" y="702"/>
	<anchor name="belowLC" x="137" y="-21"/>
</glyph>
<glyph name="m" format="2">
	<unicode hex="006D"/>
	<advance width="820"/>
	<outline>
		<contour>
			<point x="37" y="0" type="line"/>
			<point x="247" y="0" type="line"/>
			<point x="247" y="20" type="line"/>
			<point x="149" y="39" type="line"/>
			<point x="130" y="39" type="line"/>
			<point x="37" y="20" type="line"/>
		</contour>
		<contour>
			<point x="102" y="0" type="curve"/>
			<point x="176" y="0" type="line"/>
			<point x="174" y="76"/>
			<point x="171" y="147"/>
			<point x="171" y="231" type="curve" smooth="yes"/>
			<point x="171" y="355" type="line"/>
			<point x="169" y="460" type="line"/>
			<point x="162" y="463" type="line"/>
			<point x="27" y="416" type="line"/>
			<point x="27" y="402" type="line"/>
			<point x="102" y="384" type="line"/>
			<point x="105" y="342"/>
			<point x="106" y="297"/>
			<point x="106" y="239" type="curve" smooth="yes"/>
			<point x="106" y="231" type="line" smooth="yes"/>
			<point x="106" y="147"/>
			<point x="104" y="76"/>
		</contour>
		<contour>
			<point x="304" y="0" type="line"/>
			<point x="514" y="0" type="line"/>
			<point x="514" y="20" type="line"/>
			<point x="420" y="39" type="line"/>
			<point x="402" y="39" type="line"/>
			<point x="304" y="20" type="line"/>
		</contour>
		<contour>
			<point x="379" y="0" type="curve"/>
			<point x="454" y="0" type="line"/>
			<point x="452" y="76"/>
			<point x="449" y="145"/>
			<point x="449" y="231" type="curve" smooth="yes"/>
			<point x="449" y="296" type="line" smooth="yes"/>
			<point x="449" y="414"/>
			<point x="410" y="463"/>
			<point x="337" y="463" type="curve" smooth="yes"/>
			<point x="265" y="463"/>
			<point x="201" y="412"/>
			<point x="162" y="360" type="curve"/>
			<point x="156" y="360" type="line"/>
			<point x="163" y="339" type="line"/>
			<point x="212" y="385"/>
			<point x="255" y="406"/>
			<point x="302" y="406" type="curve" smooth="yes"/>
			<point x="360" y="406"/>
			<point x="384" y="372"/>
			<point x="384" y="275" type="curve" smooth="yes"/>
			<point x="384" y="231" type="line" smooth="yes"/>
			<point x="384" y="145"/>
			<point x="381" y="76"/>
		</contour>
		<contour>
			<point x="581" y="0" type="line"/>
			<point x="791" y="0" type="line"/>
			<point x="791" y="20" type="line"/>
			<point x="697" y="39" type="line"/>
			<point x="679" y="39" type="line"/>
			<point x="581" y="20" type="line"/>
		</contour>
		<contour>
			<point x="656" y="0" type="curve"/>
			<point x="731" y="0" type="line"/>
			<point x="729" y="76"/>
			<point x="726" y="145"/>
			<point x="726" y="231" type="curve" smooth="yes"/>
			<point x="726" y="296" type="line" smooth="yes"/>
			<point x="726" y="414"/>
			<point x="685" y="463"/>
			<point x="609" y="463" type="curve" smooth="yes"/>
			<point x="536" y="463"/>
			<point x="472" y="412"/>
			<point x="433" y="361" type="curve"/>
			<point x="426" y="361" type="line"/>
			<point x="433" y="339" type="line"/>
			<point x="482" y="385"/>
			<point x="526" y="406"/>
			<point x="574" y="406" type="curve" smooth="yes"/>
			<point x="636" y="406"/>
			<point x="661" y="372"/>
			<point x="661" y="275" type="curve" smooth="yes"/>
			<point x="661" y="231" type="line" smooth="yes"/>
			<point x="661" y="145"/>
			<point x="658" y="76"/>
		</contour>
	</outline>
	<anchor name="aboveLC" x="410" y="481"/>
	<anchor name="belowLC" x="418" y="-21"/>
</glyph>
<glyph name="n" format="2">
	<unicode hex="006E"/>
	<advance width="541"/>
	<outline>
		<contour>
			<point x="30" y="0" type="line"/>
			<point x="240" y="0" type="line"/>
			<point x="240" y="20" type="line"/>
			<point x="149" y="39" type="line"/>
			<point x="130" y="39" type="line"/>
			<point x="30" y="20" type="line"/>
		</contour>
		<contour>
			<point x="102" y="0" type="curve"/>
			<point x="176" y="0" type="line"/>
			<point x="174" y="76"/>
			<point x="171" y="147"/>
			<point x="171" y="231" type="curve" smooth="yes"/>
			<point x="171" y="355" type="line"/>
			<point x="169" y="460" type="line"/>
			<point x="162" y="463" type="line"/>
			<point x="27" y="416" type="line"/>
			<point x="27" y="402" type="line"/>
			<point x="102" y="384" type="line"/>
			<point x="105" y="342"/>
			<point x="106" y="297"/>
			<point x="106" y="239" type="curve" smooth="yes"/>
			<point x="106" y="231" type="line" smooth="yes"/>
			<point x="106" y="147"/>
			<point x="104" y="76"/>
		</contour>
		<contour>
			<point x="309" y="0" type="line"/>
			<point x="528" y="0" type="line"/>
			<point x="528" y="20" type="line"/>
			<point x="427" y="39" type="line"/>
			<point x="409" y="39" type="line"/>
			<point x="309" y="20" type="line"/>
		</contour>
		<contour>
			<point x="386" y="0" type="curve"/>
			<point x="461" y="0" type="line"/>
			<point x="459" y="76"/>
			<point x="456" y="145"/>
			<point x="456" y="231" type="curve" smooth="yes"/>
			<point x="456" y="296" type="line" smooth="yes"/>
			<point x="456" y="414"/>
			<point x="415" y="463"/>
			<point x="339" y="463" type="curve" smooth="yes"/>
			<point x="266" y="463"/>
			<point x="201" y="412"/>
			<point x="162" y="361" type="curve"/>
			<point x="156" y="361" type="line"/>
			<point x="163" y="339" type="line"/>
			<point x="212" y="385"/>
			<point x="256" y="406"/>
			<point x="304" y="406" type="curve" smooth="yes"/>
			<point x="366" y="406"/>
			<point x="391" y="372"/>
			<point x="391" y="275" type="curve" smooth="yes"/>
			<point x="391" y="231" type="line" smooth="yes"/>
			<point x="391" y="145"/>
			<point x="388" y="76"/>
		</contour>
	</outline>
	<anchor name="aboveLC" x="276" y="481"/>
	<anchor name="belowLC" x="280" y="-21"/>
</glyph>
<glyph name="o" format="2">
	<unicode hex="006F"/>
	<advance width="491"/>
	<outline>
		<contour>
			<point x="245" y="-12" type="curve" smooth="yes"/>
			<point x="348" y="-12"/>
			<point x="453" y="66"/>
			<point x="453" y="223" type="curve" smooth="yes"/>
			<point x="453" y="381"/>
			<point x="348" y="463"/>
			<point x="245" y="463" type="curve" smooth="yes"/>
			<point x="141" y="463"/>
			<point x="38" y="381"/>
			<point x="38" y="223" type="curve" smooth="yes"/>
			<point x="38" y="66"/>
			<point x="141" y="-12"/>
		</contour>
		<contour>
			<point x="245" y="8" type="curve" smooth="yes"/>
			<point x="161" y="8"/>
			<point x="113" y="82"/>
			<point x="113" y="223" type="curve" smooth="yes"/>
			<point x="113" y="365"/>
			<point x="161" y="443"/>
			<point x="245" y="443" type="curve" smooth="yes"/>
			<point x="328" y="443"/>
			<point x="378" y="365"/>
			<point x="378" y="223" type="curve" smooth="yes"/>
			<point x="378" y="82"/>
			<point x="328" y="8"/>
		</contour>
	</outline>
	<anchor name="aboveLC" x="245" y="481"/>
	<anchor name="belowLC" x="246" y="-21"/>
	<anchor name="hornLC" x="353" y="456"/>
	<anchor name="ogonek" x="314" y="0"/>
</glyph>
<glyph name="p" format="2">
	<unicode hex="0070"/>
	<advance width="544"/>
	<outline>
		<contour>
			<point x="172" y="60" type="line"/>
			<point x="174" y="64" type="line"/>
			<point x="174" y="368" type="line"/>
			<point x="174" y="372" type="line"/>
			<point x="174" y="456" type="line"/>
			<point x="162" y="464" type="line"/>
			<point x="32" y="418" type="line"/>
			<point x="32" y="402" type="line"/>
			<point x="107" y="389" type="line"/>
			<point x="109" y="348"/>
			<point x="110" y="314"/>
			<point x="110" y="258" type="curve" smooth="yes"/>
			<point x="110" y="-48" type="line" smooth="yes"/>
			<point x="110" y="-112"/>
			<point x="109" y="-214"/>
			<point x="108" y="-260" type="curve"/>
			<point x="174" y="-260" type="line"/>
			<point x="173" y="-214"/>
			<point x="172" y="-112"/>
			<point x="172" y="-48" type="curve"/>
		</contour>
		<contour>
			<point x="36" y="-260" type="line"/>
			<point x="264" y="-260" type="line"/>
			<point x="264" y="-240" type="line"/>
			<point x="148" y="-228" type="line"/>
			<point x="132" y="-228" type="line"/>
			<point x="36" y="-240" type="line"/>
		</contour>
		<contour>
			<point x="312" y="-12" type="curve" smooth="yes"/>
			<point x="421" y="-12"/>
			<point x="500" y="82"/>
			<point x="500" y="232" type="curve" smooth="yes"/>
			<point x="500" y="376"/>
			<point x="430" y="464"/>
			<point x="316" y="464" type="curve" smooth="yes"/>
			<point x="248" y="464"/>
			<point x="193" y="427"/>
			<point x="163" y="371" type="curve"/>
			<point x="152" y="371" type="line"/>
			<point x="158" y="342" type="line"/>
			<point x="195" y="398"/>
			<point x="240" y="426"/>
			<point x="295" y="426" type="curve" smooth="yes"/>
			<point x="375" y="426"/>
			<point x="432" y="366"/>
			<point x="432" y="232" type="curve" smooth="yes"/>
			<point x="432" y="94"/>
			<point x="371" y="26"/>
			<point x="295" y="26" type="curve" smooth="yes"/>
			<point x="239" y="26"/>
			<point x="200" y="41"/>
			<point x="150" y="97" type="curve"/>
			<point x="145" y="71" type="line"/>
			<point x="158" y="71" type="line"/>
			<point x="199" y="8"/>
			<point x="254" y="-12"/>
		</contour>
	</outline>
	<anchor name="aboveLC" x="304" y="506"/>
	<anchor name="belowLC" x="162" y="-251"/>
</glyph>
<glyph name="q" format="2">
	<unicode hex="0071"/>
	<advance width="516"/>
	<outline>
		<contour>
			<point x="434" y="256" type="line"/>
			<point x="438" y="450" type="line"/>
			<point x="422" y="460" type="line"/>
			<point x="370" y="392" type="line"/>
			<point x="370" y="80" type="line"/>
			<point x="372" y="76" type="line"/>
			<point x="372" y="-48" type="line"/>
			<point x="372" y="-112"/>
			<point x="371" y="-214"/>
			<point x="370" y="-260" type="curve"/>
			<point x="436" y="-260" type="line"/>
			<point x="435" y="-214"/>
			<point x="434" y="-112"/>
			<point x="434" y="-48" type="curve" smooth="yes"/>
		</contour>
		<contour>
			<point x="508" y="-240" type="line"/>
			<point x="412" y="-228" type="line"/>
			<point x="396" y="-228" type="line"/>
			<point x="280" y="-240" type="line"/>
			<point x="280" y="-260" type="line"/>
			<point x="508" y="-260" type="line"/>
		</contour>
		<contour>
			<point x="240" y="464" type="curve" smooth="yes"/>
			<point x="131" y="464"/>
			<point x="44" y="370"/>
			<point x="44" y="220" type="curve" smooth="yes"/>
			<point x="44" y="76"/>
			<point x="114" y="-12"/>
			<point x="228" y="-12" type="curve" smooth="yes"/>
			<point x="296" y="-12"/>
			<point x="351" y="25"/>
			<point x="381" y="81" type="curve"/>
			<point x="392" y="81" type="line"/>
			<point x="386" y="110" type="line"/>
			<point x="349" y="54"/>
			<point x="304" y="26"/>
			<point x="249" y="26" type="curve" smooth="yes"/>
			<point x="169" y="26"/>
			<point x="112" y="86"/>
			<point x="112" y="220" type="curve" smooth="yes"/>
			<point x="112" y="358"/>
			<point x="181" y="426"/>
			<point x="257" y="426" type="curve" smooth="yes"/>
			<point x="313" y="426"/>
			<point x="344" y="411"/>
			<point x="394" y="355" type="curve"/>
			<point x="399" y="381" type="line"/>
			<point x="386" y="381" type="line"/>
			<point x="345" y="444"/>
			<point x="298" y="464"/>
		</contour>
	</outline>
	<anchor name="aboveLC" x="300" y="506"/>
	<anchor name="belowLC" x="427" y="-251"/>
</glyph>
<glyph name="r" format="2">
	<unicode hex="0072"/>
	<advance width="382"/>
	<outline>
		<contour>
			<point x="39" y="0" type="line"/>
			<point x="258" y="0" type="line"/>
			<point x="258" y="20" type="line"/>
			<point x="157" y="39" type="line"/>
			<point x="139" y="39" type="line"/>
			<point x="39" y="20" type="line"/>
		</contour>
		<contour>
			<point x="102" y="0" type="curve"/>
			<point x="177" y="0" type="line"/>
			<point x="174" y="49"/>
			<point x="172" y="160"/>
			<point x="172" y="228" type="curve" smooth="yes"/>
			<point x="172" y="314" type="line"/>
			<point x="169" y="461" type="line"/>
			<point x="163" y="463" type="line"/>
			<point x="27" y="416" type="line"/>
			<point x="27" y="402" type="line"/>
			<point x="103" y="384" type="line"/>
			<point x="106" y="337"/>
			<point x="107" y="300"/>
			<point x="107" y="236" type="curve" smooth="yes"/>
			<point x="107" y="228" type="line" smooth="yes"/>
			<point x="107" y="160"/>
			<point x="105" y="49"/>
		</contour>
		<contour>
			<point x="164" y="257" type="line"/>
			<point x="188" y="343"/>
			<point x="224" y="390"/>
			<point x="281" y="425" type="curve"/>
			<point x="250" y="423" type="line"/>
			<point x="274" y="395" type="line" smooth="yes"/>
			<point x="289" y="378"/>
			<point x="303" y="369"/>
			<point x="325" y="369" type="curve" smooth="yes"/>
			<point x="354" y="369"/>
			<point x="376" y="391"/>
			<point x="376" y="432" type="curve"/>
			<point x="366" y="450"/>
			<point x="340" y="463"/>
			<point x="315" y="463" type="curve" smooth="yes"/>
			<point x="263" y="463"/>
			<point x="199" y="407"/>
			<point x="166" y="316" type="curve"/>
			<point x="153" y="316" type="line"/>
		</contour>
	</outline>
	<anchor name="aboveLC" x="219" y="481"/>
	<anchor name="belowLC" x="148" y="-21"/>
</glyph>
<glyph name="s" format="2">
	<unicode hex="0073"/>
	<advance width="392"/>
	<outline>
		<contour>
			<point x="188" y="-12" type="curve" smooth="yes"/>
			<point x="298" y="-12"/>
			<point x="352" y="47"/>
			<point x="352" y="122" type="curve" smooth="yes"/>
			<point x="352" y="183"/>
			<point x="318" y="217"/>
			<point x="234" y="250" type="curve" smooth="yes"/>
			<point x="190" y="267" type="line" smooth="yes"/>
			<point x="132" y="290"/>
			<point x="104" y="315"/>
			<point x="104" y="358" type="curve" smooth="yes"/>
			<point x="104" y="403"/>
			<point x="140" y="440"/>
			<point x="204" y="440" type="curve" smooth="yes"/>
			<point x="248" y="440"/>
			<point x="284" y="425"/>
			<point x="319" y="400" type="curve"/>
			<point x="312" y="428" type="line"/>
			<point x="285" y="431" type="line"/>
			<point x="302" y="324" type="line"/>
			<point x="328" y="324" type="line"/>
			<point x="332" y="428" type="line"/>
			<point x="293" y="453"/>
			<point x="253" y="464"/>
			<point x="204" y="464" type="curve" smooth="yes"/>
			<point x="103" y="464"/>
			<point x="52" y="406"/>
			<point x="52" y="334" type="curve" smooth="yes"/>
			<point x="52" y="265"/>
			<point x="105" y="232"/>
			<point x="171" y="206" type="curve" smooth="yes"/>
			<point x="215" y="189" type="line" smooth="yes"/>
			<point x="268" y="168"/>
			<point x="296" y="144"/>
			<point x="296" y="102" type="curve" smooth="yes"/>
			<point x="296" y="52"/>
			<point x="258" y="12"/>
			<point x="188" y="12" type="curve" smooth="yes"/>
			<point x="135" y="12"/>
			<point x="97" y="27"/>
			<point x="55" y="51" type="curve"/>
			<point x="60" y="24" type="line"/>
			<point x="95" y="18" type="line"/>
			<point x="66" y="140" type="line"/>
			<point x="40" y="140" type="line"/>
			<point x="45" y="23" type="line"/>
			<point x="90" y="-1"/>
			<point x="131" y="-12"/>
		</contour>
	</outline>
	<anchor name="aboveLC" x="225" y="506"/>
	<anchor name="belowLC" x="218" y="-22"/>
	<anchor name="baseLC" x="214" y="0"/>
</glyph>
<glyph name="t" format="2">
	<unicode hex="0074"/>
	<advance width="296"/>
	<outline>
		<contour>
			<point x="83" y="88" type="curve" smooth="yes"/>
			<point x="83" y="22"/>
			<point x="122" y="-12"/>
			<point x="184" y="-12" type="curve" smooth="yes"/>
			<point x="236" y="-12"/>
			<point x="263" y="11"/>
			<point x="284" y="48" type="curve"/>
			<point x="273" y="57" type="line"/>
			<point x="254" y="36"/>
			<point x="231" y="24"/>
			<point x="204" y="24" type="curve" smooth="yes"/>
			<point x="169" y="24"/>
			<point x="148" y="44"/>
			<point x="148" y="96" type="curve" smooth="yes"/>
			<point x="148" y="436" type="line"/>
			<point x="148" y="440" type="line"/>
			<point x="152" y="604" type="line"/>
			<point x="132" y="604" type="line"/>
			<point x="84" y="440" type="line"/>
			<point x="120" y="462" type="line"/>
			<point x="8" y="444" type="line"/>
			<point x="8" y="428" type="line"/>
			<point x="84" y="428" type="line"/>
			<point x="84" y="196" type="line" smooth="yes"/>
			<point x="84" y="152"/>
			<point x="83" y="125"/>
		</contour>
		<contour>
			<point x="120" y="428" type="line"/>
			<point x="274" y="428" type="line"/>
			<point x="274" y="452" type="line"/>
			<point x="120" y="452" type="line"/>
		</contour>
	</outline>
	<anchor name="aboveLC" x="148" y="604"/>
	<anchor name="belowLC" x="184" y="-24"/>
	<anchor name="baseLC" x="184" y="0"/>
</glyph>
<glyph name="u" format="2">
	<unicode hex="0075"/>
	<advance width="542"/>
	<outline>
		<contour>
			<point x="154" y="464" type="line"/>
			<point x="24" y="432" type="line"/>
			<point x="24" y="418" type="line"/>
			<point x="115" y="399" type="line"/>
			<point x="94" y="429" type="line"/>
			<point x="94" y="128" type="line" smooth="yes"/>
			<point x="94" y="30"/>
			<point x="138" y="-12"/>
			<point x="214" y="-12" type="curve" smooth="yes"/>
			<point x="287" y="-12"/>
			<point x="351" y="45"/>
			<point x="390" y="96" type="curve"/>
			<point x="394" y="96" type="line"/>
			<point x="386" y="110" type="line"/>
			<point x="334" y="63"/>
			<point x="290" y="36"/>
			<point x="241" y="36" type="curve" smooth="yes"/>
			<point x="182" y="36"/>
			<point x="158" y="59"/>
			<point x="158" y="148" type="curve" smooth="yes"/>
			<point x="158" y="260" type="line"/>
			<point x="158" y="319"/>
			<point x="159" y="413"/>
			<point x="162" y="456" type="curve"/>
		</contour>
		<contour>
			<point x="444" y="260" type="line" smooth="yes"/>
			<point x="444" y="319"/>
			<point x="445" y="413"/>
			<point x="448" y="456" type="curve"/>
			<point x="440" y="464" type="line"/>
			<point x="306" y="432" type="line"/>
			<point x="306" y="418" type="line"/>
			<point x="401" y="399" type="line"/>
			<point x="380" y="429" type="line"/>
			<point x="380" y="76" type="line"/>
			<point x="380" y="-10" type="line"/>
			<point x="514" y="0" type="line"/>
			<point x="514" y="16" type="line"/>
			<point x="446" y="25" type="line"/>
			<point x="445" y="84"/>
			<point x="444" y="161"/>
			<point x="444" y="212" type="curve" smooth="yes"/>
		</contour>
	</outline>
	<anchor name="aboveLC" x="282" y="506"/>
	<anchor name="belowLC" x="299" y="-22"/>
	<anchor name="hornLC" x="449" y="471"/>
	<anchor name="ogonek" x="493" y="0"/>
	<anchor name="aboveLC" x="286" y="506"/>
	<anchor name="belowLC" x="303" y="-22"/>
	<anchor name="hornLC" x="453" y="471"/>
	<anchor name="ogonek" x="497" y="0"/>
</glyph>
<glyph name="v" format="2">
	<unicode hex="0076"/>
	<advance width="460"/>
	<outline>
		<contour>
			<point x="220" y="-4" type="line"/>
			<point x="244" y="-4" type="line"/>
			<point x="416" y="452" type="line"/>
			<point x="384" y="452" type="line"/>
			<point x="242" y="68" type="line"/>
			<point x="260" y="68" type="line"/>
			<point x="120" y="452" type="line"/>
			<point x="44" y="452" type="line"/>
		</contour>
		<contour>
			<point x="8" y="432" type="line"/>
			<point x="92" y="420" type="line"/>
			<point x="108" y="420" type="line"/>
			<point x="208" y="434" type="line"/>
			<point x="208" y="452" type="line"/>
			<point x="8" y="452" type="line"/>
		</contour>
		<contour>
			<point x="452" y="452" type="line"/>
			<point x="304" y="452" type="line"/>
			<point x="304" y="434" type="line"/>
			<point x="380" y="424" type="line"/>
			<point x="392" y="424" type="line"/>
			<point x="452" y="432" type="line"/>
		</contour>
	</outline>
	<anchor name="aboveLC" x="263" y="506"/>
	<anchor name="belowLC" x="254" y="-22"/>
</glyph>
<glyph name="w" format="2">
	<unicode hex="0077"/>
	<advance width="693"/>
	<outline>
		<contour>
			<point x="199" y="-6" type="line"/>
			<point x="231" y="-6" type="line"/>
			<point x="362" y="360" type="line"/>
			<point x="342" y="360" type="line"/>
			<point x="471" y="-6" type="line"/>
			<point x="503" y="-6" type="line"/>
			<point x="652" y="450" type="line"/>
			<point x="601" y="450" type="line"/>
			<point x="491" y="80" type="line"/>
			<point x="510" y="81" type="line"/>
			<point x="377" y="450" type="line"/>
			<point x="349" y="450" type="line"/>
			<point x="219" y="80" type="line"/>
			<point x="238" y="79" type="line"/>
			<point x="118" y="450" type="line"/>
			<point x="36" y="450" type="line"/>
		</contour>
		<contour>
			<point x="0" y="414" type="line"/>
			<point x="89" y="398" type="line"/>
			<point x="107" y="398" type="line"/>
			<point x="206" y="414" type="line"/>
			<point x="206" y="450" type="line"/>
			<point x="0" y="450" type="line"/>
		</contour>
		<contour>
			<point x="264" y="414" type="line"/>
			<point x="359" y="398" type="line"/>
			<point x="378" y="398" type="line"/>
			<point x="464" y="414" type="line"/>
			<point x="464" y="450" type="line"/>
			<point x="264" y="450" type="line"/>
		</contour>
		<contour>
			<point x="518" y="414" type="line"/>
			<point x="602" y="398" type="line"/>
			<point x="621" y="398" type="line"/>
			<point x="684" y="414" type="line"/>
			<point x="684" y="450" type="line"/>
			<point x="518" y="450" type="line"/>
		</contour>
	</outline>
	<anchor name="aboveLC" x="356" y="481"/>
	<anchor name="belowLC" x="352" y="-21"/>
</glyph>
<glyph name="x" format="2">
	<unicode hex="0078"/>
	<advance width="456"/>
	<outline>
		<contour>
			<point x="16" y="432" type="line"/>
			<point x="92" y="420" type="line"/>
			<point x="108" y="420" type="line"/>
			<point x="208" y="434" type="line"/>
			<point x="208" y="452" type="line"/>
			<point x="16" y="452" type="line"/>
		</contour>
		<contour>
			<point x="233" y="212" type="line"/>
			<point x="408" y="452" type="line"/>
			<point x="373" y="452" type="line"/>
			<point x="212" y="227" type="line"/>
		</contour>
		<contour>
			<point x="436" y="452" type="line"/>
			<point x="296" y="452" type="line"/>
			<point x="296" y="434" type="line"/>
			<point x="360" y="424" type="line"/>
			<point x="376" y="424" type="line"/>
			<point x="436" y="432" type="line"/>
		</contour>
		<contour>
			<point x="448" y="20" type="line"/>
			<point x="368" y="32" type="line"/>
			<point x="352" y="32" type="line"/>
			<point x="256" y="18" type="line"/>
			<point x="256" y="0" type="line"/>
			<point x="448" y="0" type="line"/>
		</contour>
		<contour>
			<point x="199" y="216" type="line"/>
			<point x="335" y="0" type="line"/>
			<point x="416" y="0" type="line"/>
			<point x="249" y="252" type="line"/>
			<point x="125" y="452" type="line"/>
			<point x="44" y="452" type="line"/>
		</contour>
		<contour>
			<point x="211" y="240" type="line"/>
			<point x="36" y="0" type="line"/>
			<point x="71" y="0" type="line"/>
			<point x="232" y="225" type="line"/>
		</contour>
		<contour>
			<point x="8" y="0" type="line"/>
			<point x="148" y="0" type="line"/>
			<point x="148" y="18" type="line"/>
			<point x="84" y="28" type="line"/>
			<point x="68" y="28" type="line"/>
			<point x="8" y="20" type="line"/>
		</contour>
	</outline>
	<anchor name="aboveLC" x="268" y="506"/>
	<anchor name="belowLC" x="253" y="-22"/>
</glyph>
<glyph name="y" format="2">
	<unicode hex="0079"/>
	<advance width="465"/>
	<outline>
		<contour>
			<point x="83" y="-238" type="curve" smooth="yes"/>
			<point x="157" y="-238"/>
			<point x="208" y="-165"/>
			<point x="270" y="6" type="curve" smooth="yes"/>
			<point x="432" y="450" type="line"/>
			<point x="383" y="450" type="line"/>
			<point x="243" y="47" type="line"/>
			<point x="215" y="-36" type="line" smooth="yes"/>
			<point x="192" y="-103"/>
			<point x="156" y="-168"/>
			<point x="95" y="-200" type="curve"/>
			<point x="119" y="-220" type="line"/>
			<point x="155" y="-200" type="line"/>
			<point x="126" y="-170" type="line" smooth="yes"/>
			<point x="102" y="-144"/>
			<point x="84" y="-135"/>
			<point x="60" y="-135" type="curve" smooth="yes"/>
			<point x="33" y="-135"/>
			<point x="6" y="-148"/>
			<point x="0" y="-175" type="curve"/>
			<point x="0" y="-212"/>
			<point x="38" y="-238"/>
		</contour>
		<contour>
			<point x="228" y="-49" type="line"/>
			<point x="266" y="46" type="line"/>
			<point x="259" y="65" type="line"/>
			<point x="123" y="450" type="line"/>
			<point x="38" y="450" type="line"/>
		</contour>
		<contour>
			<point x="4" y="417" type="line"/>
			<point x="93" y="403" type="line"/>
			<point x="111" y="403" type="line"/>
			<point x="220" y="416" type="line"/>
			<point x="220" y="450" type="line"/>
			<point x="4" y="450" type="line"/>
		</contour>
		<contour>
			<point x="287" y="417" type="line"/>
			<point x="383" y="403" type="line"/>
			<point x="401" y="403" type="line"/>
			<point x="465" y="417" type="line"/>
			<point x="465" y="450" type="line"/>
			<point x="287" y="450" type="line"/>
		</contour>
	</outline>
	<anchor name="aboveLC" x="246" y="481"/>
	<anchor name="belowLC" x="112" y="-242"/>
</glyph>
<glyph name="z" format="2">
	<unicode hex="007A"/>
	<advance width="414"/>
	<outline>
		<contour>
			<point x="27" y="0" type="line"/>
			<point x="382" y="0" type="line"/>
			<point x="391" y="155" type="line"/>
			<point x="346" y="155" type="line"/>
			<point x="311" y="11" type="line"/>
			<point x="348" y="40" type="line"/>
			<point x="86" y="40" type="line"/>
			<point x="99" y="15" type="line"/>
			<point x="378" y="417" type="line"/>
			<point x="378" y="450" type="line"/>
			<point x="40" y="450" type="line"/>
			<point x="33" y="309" type="line"/>
			<point x="78" y="305" type="line"/>
			<point x="110" y="439" type="line"/>
			<point x="73" y="410" type="line"/>
			<point x="319" y="410" type="line"/>
			<point x="306" y="435" type="line"/>
			<point x="27" y="33" type="line"/>
		</contour>
	</outline>
	<anchor name="aboveLC" x="217" y="481"/>
	<anchor name="belowLC" x="219" y="-21"/>
</glyph>
<glyph name="braceleft" format="2">
	<unicode hex="007B"/>
	<advance width="326"/>
	<outline>
		<contour>
			<point x="64" y="271" type="line"/>
			<point x="143" y="258"/>
			<point x="170" y="227"/>
			<point x="170" y="184" type="curve" smooth="yes"/>
			<point x="170" y="124"/>
			<point x="114" y="41"/>
			<point x="114" y="-46" type="curve" smooth="yes"/>
			<point x="114" y="-109"/>
			<point x="138" y="-158"/>
			<point x="246" y="-158" type="curve" smooth="yes"/>
			<point x="278" y="-158" type="line"/>
			<point x="278" y="-142" type="line"/>
			<point x="256" y="-140" type="line" smooth="yes"/>
			<point x="185" y="-134"/>
			<point x="174" y="-92"/>
			<point x="174" y="-38" type="curve" smooth="yes"/>
			<point x="174" y="30"/>
			<point x="204" y="112"/>
			<point x="204" y="174" type="curve" smooth="yes"/>
			<point x="204" y="233"/>
			<point x="169" y="273"/>
			<point x="80" y="283" type="curve"/>
			<point x="80" y="275" type="line"/>
			<point x="169" y="285"/>
			<point x="204" y="325"/>
			<point x="204" y="384" type="curve" smooth="yes"/>
			<point x="204" y="446"/>
			<point x="174" y="528"/>
			<point x="174" y="596" type="curve" smooth="yes"/>
			<point x="174" y="650"/>
			<point x="185" y="692"/>
			<point x="256" y="698" type="curve" smooth="yes"/>
			<point x="278" y="700" type="line"/>
			<point x="278" y="716" type="line"/>
			<point x="246" y="716" type="line" smooth="yes"/>
			<point x="138" y="716"/>
			<point x="114" y="667"/>
			<point x="114" y="604" type="curve" smooth="yes"/>
			<point x="114" y="517"/>
			<point x="170" y="434"/>
			<point x="170" y="374" type="curve" smooth="yes"/>
			<point x="170" y="331"/>
			<point x="143" y="300"/>
			<point x="64" y="287" type="curve"/>
		</contour>
	</outline>
</glyph>
<glyph name="asciitilde" format="2">
	<unicode hex="007E"/>
	<advance width="496"/>
	<outline>
		<contour>
			<point x="52" y="292" type="line"/>
			<point x="61" y="365"/>
			<point x="98" y="408"/>
			<point x="156" y="408" type="curve" smooth="yes"/>
			<point x="200" y="408"/>
			<point x="228" y="383"/>
			<point x="256" y="358" type="curve" smooth="yes"/>
			<point x="282" y="335"/>
			<point x="308" y="312"/>
			<point x="344" y="312" type="curve" smooth="yes"/>
			<point x="378" y="312"/>
			<point x="406" y="333"/>
			<point x="418" y="400" type="curve"/>
			<point x="444" y="396" type="line"/>
			<point x="435" y="323"/>
			<point x="398" y="280"/>
			<point x="340" y="280" type="curve" smooth="yes"/>
			<point x="296" y="280"/>
			<point x="267" y="307"/>
			<point x="238" y="332" type="curve" smooth="yes"/>
			<point x="212" y="355"/>
			<point x="187" y="376"/>
			<point x="152" y="376" type="curve" smooth="yes"/>
			<point x="118" y="376"/>
			<point x="90" y="355"/>
			<point x="78" y="288" type="curve"/>
		</contour>
	</outline>
</glyph>
<glyph name="cent" format="2">
	<unicode hex="00A2"/>
	<advance width="468"/>
	<outline>
		<contour>
			<point x="268" y="-44" type="line"/>
			<point x="268" y="660" type="line"/>
			<point x="244" y="660" type="line"/>
			<point x="244" y="-44" type="line"/>
		</contour>
		<contour>
			<point x="52" y="304" type="curve" smooth="yes"/>
			<point x="52" y="156"/>
			<point x="144" y="72"/>
			<point x="254" y="72" type="curve" smooth="yes"/>
			<point x="328" y="72"/>
			<point x="384" y="108"/>
			<point x="418" y="184" type="curve"/>
			<point x="404" y="192" type="line"/>
			<point x="372" y="147"/>
			<point x="331" y="120"/>
			<point x="270" y="120" type="curve" smooth="yes"/>
			<point x="168" y="120"/>
			<point x="120" y="214"/>
			<point x="120" y="321" type="curve" smooth="yes"/>
			<point x="120" y="429"/>
			<point x="169" y="526"/>
			<point x="268" y="526" type="curve" smooth="yes"/>
			<point x="288" y="526"/>
			<point x="317" y="524"/>
			<point x="339" y="500" type="curve"/>
			<point x="316" y="524" type="line"/>
			<point x="336" y="444" type="line" smooth="yes"/>
			<point x="342" y="419"/>
			<point x="358" y="404"/>
			<point x="380" y="404" type="curve" smooth="yes"/>
			<point x="402" y="404"/>
			<point x="412" y="416"/>
			<point x="414" y="438" type="curve"/>
			<point x="402" y="502"/>
			<point x="348" y="548"/>
			<point x="268" y="548" type="curve" smooth="yes"/>
			<point x="160" y="548"/>
			<point x="52" y="464"/>
		</contour>
	</outline>
</glyph>
<glyph name="sterling" format="2">
	<unicode hex="00A3"/>
	<advance width="468"/>
	<outline>
		<contour>
			<point x="40" y="300" type="line"/>
			<point x="364" y="300" type="line"/>
			<point x="364" y="320" type="line"/>
			<point x="40" y="320" type="line"/>
		</contour>
		<contour>
			<point x="264" y="660" type="curve" smooth="yes"/>
			<point x="162" y="660"/>
			<point x="88" y="593"/>
			<point x="88" y="484" type="curve" smooth="yes"/>
			<point x="88" y="388"/>
			<point x="144" y="320"/>
			<point x="144" y="228" type="curve" smooth="yes"/>
			<point x="144" y="149"/>
			<point x="104" y="72"/>
			<point x="36" y="32" type="curve"/>
			<point x="36" y="0" type="line"/>
			<point x="440" y="0" type="line"/>
			<point x="440" y="62" type="line"/>
			<point x="88" y="62" type="line"/>
			<point x="72" y="44" type="line"/>
			<point x="138" y="82"/>
			<point x="192" y="156"/>
			<point x="192" y="256" type="curve" smooth="yes"/>
			<point x="192" y="344"/>
			<point x="158" y="393"/>
			<point x="158" y="480" type="curve" smooth="yes"/>
			<point x="158" y="589"/>
			<point x="204" y="639"/>
			<point x="271" y="639" type="curve" smooth="yes"/>
			<point x="301" y="639"/>
			<point x="327" y="630"/>
			<point x="358" y="611" type="curve"/>
			<point x="316" y="644" type="line"/>
			<point x="342" y="553" type="line" smooth="yes"/>
			<point x="354" y="512"/>
			<point x="363" y="493"/>
			<point x="388" y="493" type="curve" smooth="yes"/>
			<point x="407" y="493"/>
			<point x="416" y="501"/>
			<point x="424" y="520" type="curve"/>
			<point x="412" y="604"/>
			<point x="359" y="660"/>
		</contour>
	</outline>
</glyph>
<glyph name="currency" format="2">
	<unicode hex="00A4"/>
	<advance width="470"/>
	<outline>
		<contour>
			<point x="335" y="428" type="line"/>
			<point x="375" y="458" type="line" smooth="yes"/>
			<point x="402" y="479"/>
			<point x="428" y="492"/>
			<point x="428" y="513" type="curve" smooth="yes"/>
			<point x="428" y="524"/>
			<point x="419" y="536"/>
			<point x="406" y="536" type="curve" smooth="yes"/>
			<point x="387" y="536"/>
			<point x="374" y="507"/>
			<point x="354" y="476" type="curve" smooth="yes"/>
			<point x="326" y="435" type="line"/>
		</contour>
		<contour>
			<point x="119" y="332" type="curve" smooth="yes"/>
			<point x="119" y="402"/>
			<point x="170" y="455"/>
			<point x="237" y="455" type="curve" smooth="yes"/>
			<point x="304" y="455"/>
			<point x="355" y="402"/>
			<point x="355" y="332" type="curve" smooth="yes"/>
			<point x="355" y="261"/>
			<point x="304" y="208"/>
			<point x="237" y="208" type="curve" smooth="yes"/>
			<point x="170" y="208"/>
			<point x="119" y="261"/>
		</contour>
		<contour>
			<point x="91" y="332" type="curve" smooth="yes"/>
			<point x="91" y="245"/>
			<point x="157" y="183"/>
			<point x="237" y="183" type="curve" smooth="yes"/>
			<point x="316" y="183"/>
			<point x="383" y="245"/>
			<point x="383" y="332" type="curve" smooth="yes"/>
			<point x="383" y="419"/>
			<point x="316" y="480"/>
			<point x="237" y="480" type="curve" smooth="yes"/>
			<point x="157" y="480"/>
			<point x="91" y="419"/>
		</contour>
		<contour>
			<point x="148" y="435" type="line"/>
			<point x="120" y="476" type="line" smooth="yes"/>
			<point x="100" y="507"/>
			<point x="87" y="536"/>
			<point x="67" y="536" type="curve" smooth="yes"/>
			<point x="55" y="536"/>
			<point x="46" y="524"/>
			<point x="46" y="513" type="curve" smooth="yes"/>
			<point x="46" y="492"/>
			<point x="71" y="479"/>
			<point x="98" y="458" type="curve" smooth="yes"/>
			<point x="139" y="428" type="line"/>
		</contour>
		<contour>
			<point x="139" y="235" type="line"/>
			<point x="98" y="205" type="line" smooth="yes"/>
			<point x="71" y="184"/>
			<point x="46" y="171"/>
			<point x="46" y="150" type="curve" smooth="yes"/>
			<point x="46" y="139"/>
			<point x="55" y="128"/>
			<point x="67" y="128" type="curve" smooth="yes"/>
			<point x="87" y="128"/>
			<point x="100" y="156"/>
			<point x="120" y="186" type="curve" smooth="yes"/>
			<point x="148" y="228" type="line"/>
		</contour>
		<contour>
			<point x="326" y="228" type="line"/>
			<point x="354" y="186" type="line" smooth="yes"/>
			<point x="374" y="156"/>
			<point x="387" y="128"/>
			<point x="406" y="128" type="curve" smooth="yes"/>
			<point x="419" y="128"/>
			<point x="428" y="139"/>
			<point x="428" y="150" type="curve" smooth="yes"/>
			<point x="428" y="171"/>
			<point x="402" y="184"/>
			<point x="375" y="205" type="curve" smooth="yes"/>
			<point x="335" y="235" type="line"/>
		</contour>
	</outline>
</glyph>
<glyph name="yen" format="2">
	<unicode hex="00A5"/>
	<advance width="468"/>
	<outline>
		<contour>
			<point x="240" y="210" type="line"/>
			<point x="428" y="648" type="line"/>
			<point x="399" y="648" type="line"/>
			<point x="252" y="296" type="line"/>
			<point x="261" y="296" type="line"/>
			<point x="108" y="648" type="line"/>
			<point x="33" y="648" type="line"/>
			<point x="228" y="210" type="line"/>
		</contour>
		<contour>
			<point x="68" y="620" type="line"/>
			<point x="98" y="620" type="line"/>
			<point x="206" y="632" type="line"/>
			<point x="206" y="648" type="line"/>
			<point x="-4" y="648" type="line"/>
			<point x="-4" y="632" type="line"/>
		</contour>
		<contour>
			<point x="220" y="28" type="line"/>
			<point x="104" y="16" type="line"/>
			<point x="104" y="0" type="line"/>
			<point x="364" y="0" type="line"/>
			<point x="364" y="16" type="line"/>
			<point x="248" y="28" type="line"/>
		</contour>
		<contour>
			<point x="200" y="180" type="curve" smooth="yes"/>
			<point x="200" y="118"/>
			<point x="199" y="69"/>
			<point x="196" y="0" type="curve"/>
			<point x="271" y="0" type="line"/>
			<point x="269" y="69"/>
			<point x="268" y="118"/>
			<point x="268" y="180" type="curve" smooth="yes"/>
			<point x="268" y="213"/>
			<point x="268" y="249"/>
			<point x="268" y="294" type="curve"/>
			<point x="200" y="294" type="line"/>
			<point x="200" y="249"/>
			<point x="200" y="213"/>
		</contour>
		<contour>
			<point x="389" y="622" type="line"/>
			<point x="410" y="622" type="line"/>
			<point x="470" y="632" type="line"/>
			<point x="470" y="648" type="line"/>
			<point x="301" y="648" type="line"/>
			<point x="301" y="632" type="line"/>
		</contour>
		<contour>
			<point x="48" y="168" type="line"/>
			<point x="428" y="168" type="line"/>
			<point x="428" y="188" type="line"/>
			<point x="48" y="188" type="line"/>
		</contour>
		<contour>
			<point x="48" y="268" type="line"/>
			<point x="428" y="268" type="line"/>
			<point x="428" y="288" type="line"/>
			<point x="48" y="288" type="line"/>
		</contour>
	</outline>
</glyph>
<glyph name="section" format="2">
	<unicode hex="00A7"/>
	<advance width="439"/>
	<outline>
		<contour>
			<point x="276" y="665" type="line"/>
			<point x="301" y="607" type="line" smooth="yes"/>
			<point x="312" y="581"/>
			<point x="325" y="571"/>
			<point x="344" y="571" type="curve" smooth="yes"/>
			<point x="357" y="571"/>
			<point x="371" y="579"/>
			<point x="375" y="597" type="curve"/>
			<point x="374" y="646"/>
			<point x="320" y="684"/>
			<point x="239" y="684" type="curve" smooth="yes"/>
			<point x="127" y="684"/>
			<point x="80" y="613"/>
			<point x="80" y="544" type="curve" smooth="yes"/>
			<point x="80" y="380"/>
			<point x="348" y="385"/>
			<point x="348" y="252" type="curve" smooth="yes"/>
			<point x="348" y="213"/>
			<point x="316" y="166"/>
			<point x="279" y="146" type="curve"/>
			<point x="283" y="132" type="line"/>
			<point x="352" y="163"/>
			<point x="400" y="206"/>
			<point x="400" y="276" type="curve" smooth="yes"/>
			<point x="400" y="440"/>
			<point x="135" y="431"/>
			<point x="135" y="564" type="curve" smooth="yes"/>
			<point x="135" y="623"/>
			<point x="172" y="664"/>
			<point x="241" y="664" type="curve" smooth="yes"/>
			<point x="257" y="664"/>
			<point x="275" y="661"/>
			<point x="291" y="656" type="curve"/>
		</contour>
		<contour>
			<point x="151" y="-81" type="line"/>
			<point x="126" y="-23" type="line" smooth="yes"/>
			<point x="115" y="3"/>
			<point x="102" y="13"/>
			<point x="83" y="13" type="curve" smooth="yes"/>
			<point x="70" y="13"/>
			<point x="56" y="5"/>
			<point x="52" y="-13" type="curve"/>
			<point x="53" y="-62"/>
			<point x="111" y="-100"/>
			<point x="192" y="-100" type="curve" smooth="yes"/>
			<point x="312" y="-100"/>
			<point x="359" y="-29"/>
			<point x="359" y="40" type="curve" smooth="yes"/>
			<point x="359" y="204"/>
			<point x="92" y="199"/>
			<point x="92" y="332" type="curve" smooth="yes"/>
			<point x="92" y="371"/>
			<point x="123" y="418"/>
			<point x="160" y="438" type="curve"/>
			<point x="156" y="452" type="line"/>
			<point x="87" y="421"/>
			<point x="40" y="378"/>
			<point x="40" y="308" type="curve" smooth="yes"/>
			<point x="40" y="144"/>
			<point x="304" y="153"/>
			<point x="304" y="20" type="curve" smooth="yes"/>
			<point x="304" y="-39"/>
			<point x="267" y="-80"/>
			<point x="190" y="-80" type="curve" smooth="yes"/>
			<point x="174" y="-80"/>
			<point x="152" y="-77"/>
			<point x="136" y="-72" type="curve"/>
		</contour>
	</outline>
</glyph>
<glyph name="copyright" format="2">
	<unicode hex="00A9"/>
	<advance width="756"/>
	<outline>
		<contour>
			<point x="62" y="337" type="curve" smooth="yes"/>
			<point x="62" y="542"/>
			<point x="198" y="663"/>
			<point x="378" y="663" type="curve" smooth="yes"/>
			<point x="558" y="663"/>
			<point x="694" y="541"/>
			<point x="694" y="337" type="curve" smooth="yes"/>
			<point x="694" y="133"/>
			<point x="558" y="9"/>
			<point x="378" y="9" type="curve" smooth="yes"/>
			<point x="198" y="9"/>
			<point x="62" y="132"/>
		</contour>
		<contour>
			<point x="30" y="337" type="curve" smooth="yes"/>
			<point x="30" y="119"/>
			<point x="184" y="-15"/>
			<point x="378" y="-15" type="curve" smooth="yes"/>
			<point x="572" y="-15"/>
			<point x="726" y="119"/>
			<point x="726" y="337" type="curve" smooth="yes"/>
			<point x="726" y="555"/>
			<point x="572" y="687"/>
			<point x="378" y="687" type="curve" smooth="yes"/>
			<point x="184" y="687"/>
			<point x="30" y="555"/>
		</contour>
		<contour>
			<point x="394" y="149" type="curve" smooth="yes"/>
			<point x="321" y="149"/>
			<point x="265" y="208"/>
			<point x="265" y="337" type="curve" smooth="yes"/>
			<point x="265" y="467"/>
			<point x="325" y="528"/>
			<point x="396" y="528" type="curve" smooth="yes"/>
			<point x="425" y="528"/>
			<point x="454" y="522"/>
			<point x="485" y="502" type="curve"/>
			<point x="451" y="525" type="line"/>
			<point x="492" y="423" type="line"/>
			<point x="503" y="423" type="line"/>
			<point x="497" y="518" type="line"/>
			<point x="463" y="537"/>
			<point x="423" y="543"/>
			<point x="393" y="543" type="curve" smooth="yes"/>
			<point x="290" y="543"/>
			<point x="204" y="471"/>
			<point x="204" y="338" type="curve" smooth="yes"/>
			<point x="204" y="205"/>
			<point x="285" y="135"/>
			<point x="392" y="135" type="curve" smooth="yes"/>
			<point x="430" y="135"/>
			<point x="467" y="142"/>
			<point x="501" y="159" type="curve"/>
			<point x="507" y="257" type="line"/>
			<point x="496" y="257" type="line"/>
			<point x="456" y="152" type="line"/>
			<point x="487" y="175" type="line"/>
			<point x="456" y="155"/>
			<point x="422" y="149"/>
		</contour>
	</outline>
</glyph>
<glyph name="logicalnot" format="2">
	<unicode hex="00AC"/>
	<advance width="496"/>
	<outline>
		<contour>
			<point x="24" y="356" type="line"/>
			<point x="446" y="356" type="line"/>
			<point x="430" y="376" type="line"/>
			<point x="430" y="172" type="line"/>
			<point x="464" y="172" type="line"/>
			<point x="464" y="388" type="line"/>
			<point x="24" y="388" type="line"/>
		</contour>
	</outline>
</glyph>
<glyph name="registered" format="2">
	<unicode hex="00AE"/>
	<advance width="458"/>
	<outline>
		<contour>
			<point x="64" y="516" type="curve" smooth="yes"/>
			<point x="64" y="618"/>
			<point x="139" y="682"/>
			<point x="229" y="682" type="curve" smooth="yes"/>
			<point x="319" y="682"/>
			<point x="394" y="618"/>
			<point x="394" y="516" type="curve" smooth="yes"/>
			<point x="394" y="414"/>
			<point x="319" y="348"/>
			<point x="229" y="348" type="curve" smooth="yes"/>
			<point x="139" y="348"/>
			<point x="64" y="414"/>
		</contour>
		<contour>
			<point x="166" y="419" type="line"/>
			<point x="208" y="419" type="line"/>
			<point x="208" y="620" type="line"/>
			<point x="166" y="620" type="line"/>
		</contour>
		<contour>
			<point x="181" y="439" type="line"/>
			<point x="137" y="434" type="line"/>
			<point x="137" y="419" type="line"/>
			<point x="237" y="419" type="line"/>
			<point x="237" y="434" type="line"/>
			<point x="189" y="439" type="line"/>
		</contour>
		<contour>
			<point x="181" y="599" type="line"/>
			<point x="187" y="599" type="line"/>
			<point x="187" y="620" type="line"/>
			<point x="137" y="620" type="line"/>
			<point x="137" y="604" type="line"/>
		</contour>
		<contour>
			<point x="30" y="516" type="curve" smooth="yes"/>
			<point x="30" y="393"/>
			<point x="119" y="318"/>
			<point x="229" y="318" type="curve" smooth="yes"/>
			<point x="337" y="318"/>
			<point x="428" y="393"/>
			<point x="428" y="516" type="curve" smooth="yes"/>
			<point x="428" y="639"/>
			<point x="335" y="712"/>
			<point x="229" y="712" type="curve" smooth="yes"/>
			<point x="123" y="712"/>
			<point x="30" y="639"/>
		</contour>
		<contour>
			<point x="336" y="434" type="line"/>
			<point x="289" y="439" type="line"/>
			<point x="314" y="426" type="line"/>
			<point x="303" y="478" type="line" smooth="yes"/>
			<point x="297" y="506"/>
			<point x="270" y="519"/>
			<point x="234" y="519" type="curve"/>
			<point x="218" y="512" type="line"/>
			<point x="285" y="512"/>
			<point x="307" y="542"/>
			<point x="307" y="569" type="curve" smooth="yes"/>
			<point x="307" y="599"/>
			<point x="279" y="620"/>
			<point x="231" y="620" type="curve" smooth="yes"/>
			<point x="187" y="620" type="line"/>
			<point x="187" y="603" type="line"/>
			<point x="222" y="603" type="line" smooth="yes"/>
			<point x="249" y="603"/>
			<point x="262" y="590"/>
			<point x="262" y="565" type="curve" smooth="yes"/>
			<point x="262" y="543"/>
			<point x="251" y="525"/>
			<point x="222" y="525" type="curve" smooth="yes"/>
			<point x="187" y="525" type="line"/>
			<point x="187" y="508" type="line"/>
			<point x="223" y="508" type="line" smooth="yes"/>
			<point x="242" y="508"/>
			<point x="255" y="501"/>
			<point x="258" y="484" type="curve" smooth="yes"/>
			<point x="267" y="441" type="line" smooth="yes"/>
			<point x="271" y="420"/>
			<point x="281" y="415"/>
			<point x="306" y="415" type="curve" smooth="yes"/>
			<point x="317" y="415"/>
			<point x="323" y="416"/>
			<point x="336" y="419" type="curve"/>
		</contour>
	</outline>
</glyph>
<glyph name="degree" format="2">
	<unicode hex="00B0"/>
	<advance width="328"/>
	<outline>
		<contour>
			<point x="164" y="460" type="curve"/>
			<point x="112" y="460"/>
			<point x="72" y="500"/>
			<point x="72" y="556" type="curve"/>
			<point x="72" y="612"/>
			<point x="112" y="652"/>
			<point x="164" y="652" type="curve" smooth="yes"/>
			<point x="216" y="652"/>
			<point x="256" y="612"/>
			<point x="256" y="556" type="curve" smooth="yes"/>
			<point x="256" y="500"/>
			<point x="216" y="460"/>
		</contour>
		<contour>
			<point x="164" y="428" type="curve"/>
			<point x="233" y="428"/>
			<point x="292" y="478"/>
			<point x="292" y="556" type="curve" smooth="yes"/>
			<point x="292" y="634"/>
			<point x="233" y="684"/>
			<point x="164" y="684" type="curve"/>
			<point x="95" y="684"/>
			<point x="36" y="634"/>
			<point x="36" y="556" type="curve"/>
			<point x="36" y="478"/>
			<point x="95" y="428"/>
		</contour>
	</outline>
</glyph>
<glyph name="plusminus" format="2">
	<unicode hex="00B1"/>
	<advance width="496"/>
	<outline>
		<contour>
			<point x="231" y="100" type="line"/>
			<point x="265" y="100" type="line"/>
			<point x="265" y="556" type="line"/>
			<point x="231" y="556" type="line"/>
		</contour>
		<contour>
			<point x="468" y="316" type="line"/>
			<point x="468" y="348" type="line"/>
			<point x="28" y="348" type="line"/>
			<point x="28" y="316" type="line"/>
		</contour>
		<contour>
			<point x="468" y="0" type="line"/>
			<point x="468" y="32" type="line"/>
			<point x="28" y="32" type="line"/>
			<point x="28" y="0" type="line"/>
		</contour>
	</outline>
</glyph>
<glyph name="two.sups" format="2">
	<unicode hex="00B2"/>
	<advance width="326"/>
	<outline>
		<contour>
			<point x="34" y="428" type="line"/>
			<point x="300" y="428" type="line"/>
			<point x="300" y="476" type="line"/>
			<point x="66" y="476" type="line"/>
			<point x="66" y="482" type="line"/>
			<point x="58" y="465" type="line"/>
			<point x="142" y="539" type="line" smooth="yes"/>
			<point x="243" y="626"/>
			<point x="283" y="674"/>
			<point x="283" y="733" type="curve" smooth="yes"/>
			<point x="283" y="795"/>
			<point x="250" y="841"/>
			<point x="156" y="841" type="curve"/>
			<point x="87" y="841"/>
			<point x="38" y="805"/>
			<point x="30" y="751" type="curve"/>
			<point x="36" y="738"/>
			<point x="45" y="732"/>
			<point x="58" y="732" type="curve" smooth="yes"/>
			<point x="77" y="732"/>
			<point x="85" y="744"/>
			<point x="92" y="772" type="curve" smooth="yes"/>
			<point x="108" y="831" type="line"/>
			<point x="81" y="811" type="line"/>
			<point x="104" y="823"/>
			<point x="125" y="827"/>
			<point x="145" y="827" type="curve"/>
			<point x="193" y="827"/>
			<point x="224" y="795"/>
			<point x="224" y="729" type="curve" smooth="yes"/>
			<point x="224" y="678"/>
			<point x="188" y="623"/>
			<point x="126" y="557" type="curve" smooth="yes"/>
			<point x="34" y="459" type="line"/>
		</contour>
	</outline>
</glyph>
<glyph name="three.sups" format="2">
	<unicode hex="00B3"/>
	<advance width="370"/>
	<outline>
		<contour>
			<point x="129" y="654" type="line"/>
			<point x="129" y="614" type="line"/>
			<point x="160" y="614" type="line" smooth="yes"/>
			<point x="225" y="614"/>
			<point x="253" y="584"/>
			<point x="253" y="535" type="curve" smooth="yes"/>
			<point x="253" y="482"/>
			<point x="220" y="450"/>
			<point x="161" y="450" type="curve" smooth="yes"/>
			<point x="149" y="450"/>
			<point x="138" y="451"/>
			<point x="126" y="454" type="curve"/>
			<point x="119" y="490" type="line" smooth="yes"/>
			<point x="112" y="527"/>
			<point x="98" y="537"/>
			<point name="hr01" x="80" y="537" type="curve" smooth="yes"/>
			<point x="66" y="537"/>
			<point x="53" y="531"/>
			<point x="46" y="511" type="curve"/>
			<point x="56" y="451"/>
			<point x="102" y="417"/>
			<point x="179" y="417" type="curve" smooth="yes"/>
			<point x="252" y="417"/>
			<point x="324" y="449"/>
			<point x="324" y="532" type="curve" smooth="yes"/>
			<point x="324" y="588"/>
			<point x="291" y="624"/>
			<point x="232" y="635" type="curve"/>
			<point x="275" y="648"/>
			<point x="306" y="687"/>
			<point name="hr02" x="306" y="734" type="curve" smooth="yes"/>
			<point x="306" y="793"/>
			<point x="256" y="832"/>
			<point x="183" y="832" type="curve" smooth="yes"/>
			<point x="120" y="832"/>
			<point x="68" y="803"/>
			<point x="59" y="740" type="curve"/>
			<point x="66" y="726"/>
			<point x="79" y="719"/>
			<point x="93" y="719" type="curve" smooth="yes"/>
			<point x="111" y="719"/>
			<point x="127" y="731"/>
			<point x="132" y="760" type="curve" smooth="yes"/>
			<point x="139" y="796" type="line"/>
			<point x="148" y="797"/>
			<point x="156" y="798"/>
			<point name="hr03" x="164" y="798" type="curve" smooth="yes"/>
			<point x="209" y="798"/>
			<point x="237" y="773"/>
			<point x="237" y="726" type="curve" smooth="yes"/>
			<point x="237" y="679"/>
			<point x="210" y="654"/>
			<point x="155" y="654" type="curve" smooth="yes"/>
		</contour>
	</outline>
</glyph>
<glyph name="paragraph" format="2">
	<unicode hex="00B6"/>
	<advance width="580"/>
	<outline>
		<contour>
			<point x="396" y="668" type="line"/>
			<point x="396" y="638" type="line"/>
			<point x="416" y="638" type="line"/>
			<point x="536" y="652" type="line"/>
			<point x="536" y="668" type="line"/>
		</contour>
		<contour>
			<point x="376" y="184" type="line" smooth="yes"/>
			<point x="376" y="78"/>
			<point x="376" y="-52"/>
			<point x="372" y="-132" type="curve"/>
			<point x="440" y="-132" type="line"/>
			<point x="436" y="-52"/>
			<point x="436" y="78"/>
			<point x="436" y="184" type="curve" smooth="yes"/>
			<point x="436" y="360" type="line" smooth="yes"/>
			<point x="436" y="463"/>
			<point x="436" y="588"/>
			<point x="440" y="668" type="curve"/>
			<point x="376" y="668" type="line"/>
		</contour>
		<contour>
			<point x="316" y="644" type="line"/>
			<point x="408" y="644" type="line"/>
			<point x="408" y="668" type="line"/>
			<point x="347" y="668" type="line" smooth="yes"/>
			<point x="150" y="668"/>
			<point x="24" y="570"/>
			<point x="24" y="416" type="curve" smooth="yes"/>
			<point x="24" y="265"/>
			<point x="130" y="161"/>
			<point x="316" y="160" type="curve"/>
		</contour>
	</outline>
</glyph>
<glyph name="one.sups" format="2">
	<unicode hex="00B9"/>
	<advance width="326"/>
	<outline>
		<contour>
			<point x="57" y="798" type="line"/>
			<point x="57" y="788" type="line"/>
			<point x="140" y="796" type="line"/>
			<point x="140" y="428" type="line"/>
			<point x="197" y="428" type="line"/>
			<point x="197" y="831" type="line"/>
			<point x="191" y="837" type="line"/>
		</contour>
		<contour>
			<point x="178" y="451" type="line"/>
			<point x="156" y="451" type="line"/>
			<point x="50" y="439" type="line"/>
			<point x="50" y="428" type="line"/>
			<point x="287" y="428" type="line"/>
			<point x="287" y="439" type="line"/>
		</contour>
	</outline>
</glyph>
<glyph name="AE" format="2">
	<unicode hex="00C6"/>
	<advance width="868"/>
	<outline>
		<contour>
			<point x="493" y="0" type="line"/>
			<point x="493" y="28" type="line"/>
			<point x="468" y="28" type="line"/>
			<point x="364" y="16" type="line"/>
			<point x="364" y="0" type="line"/>
		</contour>
		<contour>
			<point x="481" y="0" type="line"/>
			<point x="812" y="0" type="line"/>
			<point x="824" y="188" type="line"/>
			<point x="808" y="188" type="line"/>
			<point x="748" y="12" type="line"/>
			<point x="786" y="24" type="line"/>
			<point x="481" y="24" type="line"/>
		</contour>
		<contour>
			<point x="481" y="330" type="line"/>
			<point x="661" y="330" type="line"/>
			<point x="661" y="354" type="line"/>
			<point x="481" y="354" type="line"/>
		</contour>
		<contour>
			<point x="678" y="232" type="line"/>
			<point x="694" y="232" type="line"/>
			<point x="694" y="452" type="line"/>
			<point x="678" y="452" type="line"/>
			<point x="648" y="352" type="line"/>
			<point x="648" y="332" type="line"/>
		</contour>
		<contour>
			<point x="481" y="644" type="line"/>
			<point x="770" y="644" type="line"/>
			<point x="732" y="656" type="line"/>
			<point x="792" y="488" type="line"/>
			<point x="808" y="488" type="line"/>
			<point x="796" y="668" type="line"/>
			<point x="481" y="668" type="line"/>
		</contour>
		<contour>
			<point x="444" y="668" type="line"/>
			<point x="448" y="588"/>
			<point x="448" y="463"/>
			<point x="448" y="360" type="curve" smooth="yes"/>
			<point x="448" y="316" type="line" smooth="yes"/>
			<point x="448" y="210"/>
			<point x="448" y="80"/>
			<point x="444" y="0" type="curve"/>
			<point x="520" y="0" type="line"/>
			<point x="516" y="80"/>
			<point x="516" y="210"/>
			<point x="516" y="316" type="curve" smooth="yes"/>
			<point x="516" y="360" type="line" smooth="yes"/>
			<point x="516" y="463"/>
			<point x="516" y="588"/>
			<point x="520" y="668" type="curve"/>
		</contour>
		<contour>
			<point x="340" y="668" type="line"/>
			<point x="340" y="652" type="line"/>
			<point x="444" y="640" type="line"/>
			<point x="469" y="640" type="line"/>
			<point x="469" y="668" type="line"/>
		</contour>
		<contour>
			<point x="457" y="668" type="line"/>
			<point x="428" y="668" type="line"/>
			<point x="68" y="0" type="line"/>
			<point x="99" y="0" type="line"/>
		</contour>
		<contour>
			<point x="206" y="228" type="line"/>
			<point x="490" y="228" type="line"/>
			<point x="474" y="252" type="line"/>
			<point x="222" y="252" type="line"/>
		</contour>
		<contour>
			<point x="208" y="0" type="line"/>
			<point x="208" y="16" type="line"/>
			<point x="108" y="26" type="line"/>
			<point x="88" y="26" type="line"/>
			<point x="12" y="16" type="line"/>
			<point x="12" y="0" type="line"/>
		</contour>
	</outline>
	<anchor name="aboveUC" x="612" y="692"/>
</glyph>
<glyph name="Idieresis" format="2">
	<unicode hex="00CF"/>
	<advance width="316"/>
	<outline>
		<contour>
			<point x="86" y="748" type="curve" smooth="yes"/>
			<point x="112" y="748"/>
			<point x="134" y="767"/>
			<point x="134" y="796" type="curve" smooth="yes"/>
			<point x="134" y="825"/>
			<point x="112" y="844"/>
			<point x="86" y="844" type="curve" smooth="yes"/>
			<point x="60" y="844"/>
			<point x="38" y="825"/>
			<point x="38" y="796" type="curve" smooth="yes"/>
			<point x="38" y="767"/>
			<point x="60" y="748"/>
		</contour>
		<contour>
			<point x="230" y="748" type="curve" smooth="yes"/>
			<point x="256" y="748"/>
			<point x="278" y="767"/>
			<point x="278" y="796" type="curve" smooth="yes"/>
			<point x="278" y="825"/>
			<point x="256" y="844"/>
			<point x="230" y="844" type="curve" smooth="yes"/>
			<point x="204" y="844"/>
			<point x="182" y="825"/>
			<point x="182" y="796" type="curve" smooth="yes"/>
			<point x="182" y="767"/>
			<point x="204" y="748"/>
		</contour>
		<component base="I"/>
	</outline>
</glyph>
<glyph name="Eth" format="2">
	<unicode hex="00D0"/>
	<advance width="636"/>
	<outline>
		<contour>
			<point x="373" y="332" type="line"/>
			<point x="373" y="354" type="line"/>
			<point x="52" y="354" type="line"/>
			<point x="52" y="332" type="line"/>
		</contour>
		<component base="D"/>
	</outline>
</glyph>
<glyph name="multiply" format="2">
	<unicode hex="00D7"/>
	<advance width="496"/>
	<outline>
		<contour>
			<point x="425" y="113" type="line"/>
			<point x="448" y="136" type="line"/>
			<point x="71" y="547" type="line"/>
			<point x="48" y="524" type="line"/>
		</contour>
		<contour>
			<point x="447" y="525" type="line"/>
			<point x="426" y="546" type="line"/>
			<point x="49" y="135" type="line"/>
			<point x="70" y="114" type="line"/>
		</contour>
	</outline>
</glyph>
<glyph name="Oslash" format="2">
	<unicode hex="00D8"/>
	<advance width="624"/>
	<outline>
		<contour>
			<point x="582" y="668" type="line"/>
			<point x="566" y="680" type="line"/>
			<point x="42" y="0" type="line"/>
			<point x="58" y="-12" type="line"/>
		</contour>
		<component base="O" xOffset="-8"/>
	</outline>
	<anchor name="aboveUC" x="312" y="691"/>
</glyph>
<glyph name="Thorn" format="2">
	<unicode hex="00DE"/>
	<advance width="512"/>
	<outline>
		<contour>
			<point x="488" y="354" type="curve" smooth="yes"/>
			<point x="488" y="459"/>
			<point x="412" y="530"/>
			<point x="260" y="530" type="curve" smooth="yes"/>
			<point x="150" y="530" type="line"/>
			<point x="150" y="506" type="line"/>
			<point x="253" y="506" type="line" smooth="yes"/>
			<point x="367" y="506"/>
			<point x="416" y="447"/>
			<point x="416" y="354" type="curve" smooth="yes"/>
			<point x="416" y="261"/>
			<point x="367" y="194"/>
			<point x="253" y="194" type="curve" smooth="yes"/>
			<point x="150" y="194" type="line"/>
			<point x="150" y="170" type="line"/>
			<point x="260" y="170" type="line" smooth="yes"/>
			<point x="412" y="170"/>
			<point x="488" y="249"/>
		</contour>
		<contour>
			<point x="124" y="340" type="line" smooth="yes"/>
			<point x="124" y="211"/>
			<point x="123" y="105"/>
			<point x="122" y="0" type="curve"/>
			<point x="194" y="0" type="line"/>
			<point x="193" y="105"/>
			<point x="192" y="211"/>
			<point x="192" y="340" type="curve" smooth="yes"/>
			<point x="192" y="362" type="line" smooth="yes"/>
			<point x="192" y="479"/>
			<point x="193" y="577"/>
			<point x="194" y="670" type="curve"/>
			<point x="122" y="670" type="line"/>
			<point x="123" y="577"/>
			<point x="124" y="479"/>
			<point x="124" y="362" type="curve" smooth="yes"/>
		</contour>
		<contour>
			<point x="276" y="0" type="line"/>
			<point x="276" y="20" type="line"/>
			<point x="172" y="32" type="line"/>
			<point x="144" y="32" type="line"/>
			<point x="40" y="20" type="line"/>
			<point x="40" y="0" type="line"/>
		</contour>
		<contour>
			<point x="40" y="670" type="line"/>
			<point x="40" y="650" type="line"/>
			<point x="144" y="638" type="line"/>
			<point x="172" y="638" type="line"/>
			<point x="276" y="650" type="line"/>
			<point x="276" y="670" type="line"/>
		</contour>
	</outline>
</glyph>
<glyph name="germandbls" format="2">
	<unicode hex="00DF"/>
	<advance width="576"/>
	<outline>
		<contour>
			<point x="137" y="28" type="line"/>
			<point x="129" y="28" type="line"/>
			<point x="32" y="16" type="line"/>
			<point x="32" y="0" type="line"/>
			<point x="137" y="0" type="line"/>
		</contour>
		<contour>
			<point x="532" y="132" type="curve" smooth="yes"/>
			<point x="532" y="213"/>
			<point x="473" y="254"/>
			<point x="419" y="291" type="curve" smooth="yes"/>
			<point x="377" y="320"/>
			<point x="338" y="347"/>
			<point x="338" y="392" type="curve" smooth="yes"/>
			<point x="338" y="439"/>
			<point x="370" y="467"/>
			<point x="405" y="499" type="curve" smooth="yes"/>
			<point x="443" y="533"/>
			<point x="486" y="568"/>
			<point x="486" y="624" type="curve" smooth="yes"/>
			<point x="486" y="696"/>
			<point x="430" y="752"/>
			<point x="330" y="752" type="curve" smooth="yes"/>
			<point x="190" y="752"/>
			<point x="106" y="636"/>
			<point x="106" y="464" type="curve" smooth="yes"/>
			<point x="106" y="212" type="line" smooth="yes"/>
			<point x="106" y="142"/>
			<point x="105" y="70"/>
			<point x="104" y="0" type="curve"/>
			<point x="172" y="0" type="line"/>
			<point x="171" y="70"/>
			<point x="170" y="142"/>
			<point x="170" y="212" type="curve" smooth="yes"/>
			<point x="170" y="464" type="line" smooth="yes"/>
			<point x="170" y="661"/>
			<point x="224" y="732"/>
			<point x="326" y="732" type="curve" smooth="yes"/>
			<point x="384" y="732"/>
			<point x="428" y="692"/>
			<point x="428" y="620" type="curve" smooth="yes"/>
			<point x="428" y="569"/>
			<point x="406" y="537"/>
			<point x="379" y="509" type="curve" smooth="yes"/>
			<point x="338" y="467"/>
			<point x="286" y="436"/>
			<point x="286" y="368" type="curve" smooth="yes"/>
			<point x="286" y="304"/>
			<point x="335" y="270"/>
			<point x="383" y="237" type="curve" smooth="yes"/>
			<point x="431" y="205"/>
			<point x="474" y="173"/>
			<point x="474" y="116" type="curve" smooth="yes"/>
			<point x="474" y="48"/>
			<point x="430" y="7"/>
			<point x="366" y="7" type="curve" smooth="yes"/>
			<point x="340" y="7"/>
			<point x="303" y="12"/>
			<point x="258" y="39" type="curve"/>
			<point x="298" y="11" type="line"/>
			<point x="258" y="145" type="line"/>
			<point x="245" y="145" type="line"/>
			<point x="238" y="20" type="line"/>
			<point x="281" y="-1"/>
			<point x="327" y="-12"/>
			<point x="366" y="-12" type="curve" smooth="yes"/>
			<point x="466" y="-12"/>
			<point x="532" y="45"/>
		</contour>
	</outline>
</glyph>
<glyph name="ae" format="2">
	<unicode hex="00E6"/>
	<advance width="688"/>
	<outline>
		<contour>
			<point x="156" y="-12" type="curve" smooth="yes"/>
			<point x="228" y="-12"/>
			<point x="284" y="37"/>
			<point x="327" y="94" type="curve"/>
			<point x="354" y="94" type="line"/>
			<point x="320" y="106" type="line"/>
			<point x="259" y="45"/>
			<point x="228" y="36"/>
			<point x="183" y="36" type="curve" smooth="yes"/>
			<point x="140" y="36"/>
			<point x="108" y="59"/>
			<point x="108" y="116" type="curve" smooth="yes"/>
			<point x="108" y="148"/>
			<point x="116" y="189"/>
			<point x="201" y="225" type="curve" smooth="yes"/>
			<point x="220" y="233"/>
			<point x="259" y="246"/>
			<point x="328" y="266" type="curve"/>
			<point x="328" y="282" type="line"/>
			<point x="257" y="265"/>
			<point x="212" y="252"/>
			<point x="183" y="242" type="curve" smooth="yes"/>
			<point x="63" y="201"/>
			<point x="40" y="155"/>
			<point x="40" y="100" type="curve" smooth="yes"/>
			<point x="40" y="27"/>
			<point x="92" y="-12"/>
		</contour>
		<contour>
			<point x="479" y="-12" type="curve" smooth="yes"/>
			<point x="547" y="-12"/>
			<point x="607" y="19"/>
			<point x="642" y="96" type="curve"/>
			<point x="628" y="104" type="line"/>
			<point x="596" y="60"/>
			<point x="553" y="36"/>
			<point x="496" y="36" type="curve" smooth="yes"/>
			<point x="415" y="36"/>
			<point x="358" y="110"/>
			<point x="358" y="232" type="curve" smooth="yes"/>
			<point x="358" y="382"/>
			<point x="422" y="442"/>
			<point x="480" y="442" type="curve" smooth="yes"/>
			<point x="536" y="442"/>
			<point x="580" y="391"/>
			<point x="580" y="316" type="curve" smooth="yes"/>
			<point x="580" y="283"/>
			<point x="568" y="268"/>
			<point x="532" y="268" type="curve" smooth="yes"/>
			<point x="316" y="268" type="line"/>
			<point x="316" y="246" type="line"/>
			<point x="634" y="246" type="line"/>
			<point x="638" y="258"/>
			<point x="640" y="274"/>
			<point x="640" y="296" type="curve" smooth="yes"/>
			<point x="640" y="400"/>
			<point x="571" y="464"/>
			<point x="488" y="464" type="curve" smooth="yes"/>
			<point x="404" y="464"/>
			<point x="332" y="404"/>
			<point x="304" y="308" type="curve"/>
			<point x="352" y="306" type="line"/>
			<point x="352" y="416"/>
			<point x="314" y="464"/>
			<point x="224" y="464" type="curve" smooth="yes"/>
			<point x="140" y="464"/>
			<point x="72" y="421"/>
			<point x="56" y="356" type="curve"/>
			<point x="58" y="334"/>
			<point x="68" y="320"/>
			<point x="90" y="320" type="curve" smooth="yes"/>
			<point x="112" y="320"/>
			<point x="126" y="335"/>
			<point x="132" y="360" type="curve" smooth="yes"/>
			<point x="152" y="440" type="line"/>
			<point x="124" y="422" type="line"/>
			<point x="151" y="431"/>
			<point x="174" y="438"/>
			<point x="200" y="438" type="curve" smooth="yes"/>
			<point x="263" y="438"/>
			<point x="292" y="406"/>
			<point x="292" y="308" type="curve" smooth="yes"/>
			<point x="292" y="216" type="line"/>
			<point x="292" y="74"/>
			<point x="376" y="-12"/>
		</contour>
	</outline>
	<anchor name="aboveLC" x="332" y="480"/>
	<anchor name="belowLC" x="328" y="-24"/>
</glyph>
<glyph name="idieresis" format="2">
	<unicode hex="00EF"/>
	<advance width="272"/>
	<outline>
		<contour>
			<point x="60" y="568" type="curve" smooth="yes"/>
			<point x="87" y="568"/>
			<point x="110" y="588"/>
			<point x="110" y="618" type="curve" smooth="yes"/>
			<point x="110" y="648"/>
			<point x="87" y="668"/>
			<point x="60" y="668" type="curve" smooth="yes"/>
			<point x="33" y="668"/>
			<point x="10" y="648"/>
			<point x="10" y="618" type="curve" smooth="yes"/>
			<point x="10" y="588"/>
			<point x="33" y="568"/>
		</contour>
		<contour>
			<point x="224" y="568" type="curve" smooth="yes"/>
			<point x="251" y="568"/>
			<point x="274" y="588"/>
			<point x="274" y="618" type="curve" smooth="yes"/>
			<point x="274" y="648"/>
			<point x="251" y="668"/>
			<point x="224" y="668" type="curve" smooth="yes"/>
			<point x="197" y="668"/>
			<point x="174" y="648"/>
			<point x="174" y="618" type="curve" smooth="yes"/>
			<point x="174" y="588"/>
			<point x="197" y="568"/>
		</contour>
		<component base="dotlessi"/>
	</outline>
</glyph>
<glyph name="eth" format="2">
	<unicode hex="00F0"/>
	<advance width="500"/>
	<outline>
		<contour>
			<point x="250" y="-12" type="curve" smooth="yes"/>
			<point x="385" y="-12"/>
			<point x="456" y="100"/>
			<point x="456" y="280" type="curve" smooth="yes"/>
			<point x="456" y="513"/>
			<point x="338" y="662"/>
			<point x="164" y="750" type="curve"/>
			<point x="152" y="734" type="line"/>
			<point x="293" y="637"/>
			<point x="357" y="546"/>
			<point x="392" y="376" type="curve"/>
			<point x="398" y="368" type="line"/>
			<point x="375" y="433"/>
			<point x="319" y="464"/>
			<point x="250" y="464" type="curve" smooth="yes"/>
			<point x="142" y="464"/>
			<point x="44" y="380"/>
			<point x="44" y="224" type="curve" smooth="yes"/>
			<point x="44" y="67"/>
			<point x="142" y="-12"/>
		</contour>
		<contour>
			<point x="250" y="9" type="curve" smooth="yes"/>
			<point x="166" y="9"/>
			<point x="114" y="86"/>
			<point x="114" y="224" type="curve" smooth="yes"/>
			<point x="114" y="363"/>
			<point x="166" y="443"/>
			<point x="250" y="443" type="curve" smooth="yes"/>
			<point x="334" y="443"/>
			<point x="386" y="366"/>
			<point x="386" y="228" type="curve" smooth="yes"/>
			<point x="386" y="89"/>
			<point x="334" y="9"/>
		</contour>
		<contour>
			<point x="148" y="532" type="line"/>
			<point x="460" y="704" type="line"/>
			<point x="450" y="723" type="line"/>
			<point x="138" y="551" type="line"/>
		</contour>
	</outline>
</glyph>
<glyph name="divide" format="2">
	<unicode hex="00F7"/>
	<advance width="496"/>
	<outline>
		<contour>
			<point x="248" y="92" type="curve" smooth="yes"/>
			<point x="278" y="92"/>
			<point x="302" y="113"/>
			<point x="302" y="146" type="curve" smooth="yes"/>
			<point x="302" y="179"/>
			<point x="278" y="200"/>
			<point x="248" y="200" type="curve" smooth="yes"/>
			<point x="218" y="200"/>
			<point x="194" y="179"/>
			<point x="194" y="146" type="curve" smooth="yes"/>
			<point x="194" y="113"/>
			<point x="218" y="92"/>
		</contour>
		<contour>
			<point x="248" y="460" type="curve" smooth="yes"/>
			<point x="278" y="460"/>
			<point x="302" y="481"/>
			<point x="302" y="514" type="curve" smooth="yes"/>
			<point x="302" y="547"/>
			<point x="278" y="568"/>
			<point x="248" y="568" type="curve" smooth="yes"/>
			<point x="218" y="568"/>
			<point x="194" y="547"/>
			<point x="194" y="514" type="curve" smooth="yes"/>
			<point x="194" y="481"/>
			<point x="218" y="460"/>
		</contour>
		<component base="minus"/>
	</outline>
</glyph>
<glyph name="oslash" format="2">
	<unicode hex="00F8"/>
	<advance width="508"/>
	<outline>
		<contour>
			<point x="456" y="448" type="line"/>
			<point x="440" y="460" type="line"/>
			<point x="52" y="4" type="line"/>
			<point x="68" y="-8" type="line"/>
		</contour>
		<contour>
			<point x="254" y="-12" type="curve"/>
			<point x="362" y="-12"/>
			<point x="464" y="72"/>
			<point x="464" y="228" type="curve" smooth="yes"/>
			<point x="464" y="385"/>
			<point x="362" y="464"/>
			<point x="254" y="464" type="curve"/>
			<point x="146" y="464"/>
			<point x="44" y="380"/>
			<point x="44" y="224" type="curve" smooth="yes"/>
			<point x="44" y="67"/>
			<point x="146" y="-12"/>
		</contour>
		<contour>
			<point x="254" y="9" type="curve"/>
			<point x="170" y="9"/>
			<point x="114" y="86"/>
			<point x="114" y="224" type="curve" smooth="yes"/>
			<point x="114" y="363"/>
			<point x="170" y="443"/>
			<point x="254" y="443" type="curve"/>
			<point x="338" y="443"/>
			<point x="394" y="366"/>
			<point x="394" y="228" type="curve" smooth="yes"/>
			<point x="394" y="89"/>
			<point x="338" y="9"/>
		</contour>
	</outline>
	<anchor name="aboveLC" x="250" y="472"/>
</glyph>
<glyph name="thorn" format="2">
	<unicode hex="00FE"/>
	<advance width="532"/>
	<outline>
		<contour>
			<point x="100" y="-260" type="curve"/>
			<point x="168" y="-260" type="line"/>
			<point x="167" y="-189"/>
			<point x="166" y="-119"/>
			<point x="166" y="-48" type="curve" smooth="yes"/>
			<point x="166" y="68" type="line"/>
			<point x="166" y="72" type="line"/>
			<point x="166" y="369" type="line"/>
			<point x="166" y="372" type="line"/>
			<point x="166" y="541" type="line"/>
			<point x="170" y="737" type="line"/>
			<point x="162" y="745" type="line"/>
			<point x="24" y="709" type="line"/>
			<point x="24" y="695" type="line"/>
			<point x="102" y="678" type="line"/>
			<point x="102" y="-48" type="line" smooth="yes"/>
			<point x="102" y="-112"/>
			<point x="101" y="-214"/>
		</contour>
		<contour>
			<point x="298" y="-12" type="curve" smooth="yes"/>
			<point x="402" y="-12"/>
			<point x="488" y="78"/>
			<point x="488" y="236" type="curve" smooth="yes"/>
			<point x="488" y="388"/>
			<point x="404" y="464"/>
			<point x="306" y="464" type="curve" smooth="yes"/>
			<point x="238" y="464"/>
			<point x="187" y="419"/>
			<point x="157" y="363" type="curve"/>
			<point x="144" y="363" type="line"/>
			<point x="150" y="334" type="line"/>
			<point x="187" y="390"/>
			<point x="230" y="428"/>
			<point x="285" y="428" type="curve" smooth="yes"/>
			<point x="363" y="428"/>
			<point x="420" y="366"/>
			<point x="420" y="232" type="curve" smooth="yes"/>
			<point x="420" y="94"/>
			<point x="363" y="25"/>
			<point x="289" y="25" type="curve" smooth="yes"/>
			<point x="233" y="25"/>
			<point x="196" y="45"/>
			<point x="146" y="105" type="curve"/>
			<point x="139" y="80" type="line"/>
			<point x="153" y="80" type="line"/>
			<point x="190" y="13"/>
			<point x="244" y="-12"/>
		</contour>
		<contour>
			<point x="28" y="-260" type="line"/>
			<point x="246" y="-260" type="line"/>
			<point x="246" y="-244" type="line"/>
			<point x="138" y="-232" type="line"/>
			<point x="124" y="-232" type="line"/>
			<point x="28" y="-244" type="line"/>
		</contour>
	</outline>
	<anchor name="aboveLC" x="134" y="740"/>
	<anchor name="belowLC" x="288" y="-24"/>
</glyph>
<glyph name="aogonek" format="2">
	<unicode hex="0105"/>
	<advance width="452"/>
	<outline>
		<contour>
			<point x="156" y="-12" type="curve" smooth="yes"/>
			<point x="208" y="-12"/>
			<point x="255" y="11"/>
			<point x="298" y="68" type="curve"/>
			<point x="328" y="68" type="line"/>
			<point x="320" y="106" type="line"/>
			<point x="259" y="45"/>
			<point x="228" y="36"/>
			<point x="183" y="36" type="curve" smooth="yes"/>
			<point x="140" y="36"/>
			<point x="108" y="59"/>
			<point x="108" y="116" type="curve" smooth="yes"/>
			<point x="108" y="148"/>
			<point x="116" y="189"/>
			<point x="201" y="225" type="curve" smooth="yes"/>
			<point x="220" y="233"/>
			<point x="259" y="246"/>
			<point x="328" y="266" type="curve"/>
			<point x="328" y="282" type="line"/>
			<point x="257" y="265"/>
			<point x="212" y="252"/>
			<point x="183" y="242" type="curve" smooth="yes"/>
			<point x="63" y="201"/>
			<point x="40" y="155"/>
			<point x="40" y="100" type="curve" smooth="yes"/>
			<point x="40" y="27"/>
			<point x="92" y="-12"/>
		</contour>
		<contour>
			<point x="366" y="-220" type="curve" smooth="yes"/>
			<point x="401" y="-220"/>
			<point x="440" y="-202"/>
			<point x="463" y="-169" type="curve"/>
			<point x="454" y="-158" type="line"/>
			<point x="434" y="-174"/>
			<point x="410" y="-177"/>
			<point x="397" y="-177" type="curve" smooth="yes"/>
			<point x="355" y="-177"/>
			<point x="328" y="-156"/>
			<point x="328" y="-113" type="curve" smooth="yes"/>
			<point x="328" y="-67"/>
			<point x="377" y="-23"/>
			<point x="411" y="4" type="curve" smooth="yes"/>
			<point x="426" y="16"/>
			<point x="435" y="30"/>
			<point x="442" y="47" type="curve"/>
			<point x="432" y="55" type="line"/>
			<point x="415" y="35"/>
			<point x="405" y="28"/>
			<point x="388" y="28" type="curve" smooth="yes"/>
			<point x="369" y="28"/>
			<point x="356" y="41"/>
			<point x="356" y="84" type="curve" smooth="yes"/>
			<point x="356" y="306" type="line" smooth="yes"/>
			<point x="356" y="416"/>
			<point x="314" y="464"/>
			<point x="224" y="464" type="curve" smooth="yes"/>
			<point x="140" y="464"/>
			<point x="72" y="421"/>
			<point x="56" y="356" type="curve"/>
			<point x="58" y="334"/>
			<point x="68" y="320"/>
			<point x="90" y="320" type="curve" smooth="yes"/>
			<point x="112" y="320"/>
			<point x="126" y="335"/>
			<point x="132" y="360" type="curve" smooth="yes"/>
			<point x="154" y="446" type="line"/>
			<point x="121" y="421" type="line"/>
			<point x="166" y="435"/>
			<point x="183" y="438"/>
			<point x="200" y="438" type="curve" smooth="yes"/>
			<point x="263" y="438"/>
			<point x="292" y="406"/>
			<point x="292" y="308" type="curve" smooth="yes"/>
			<point x="292" y="77" type="line"/>
			<point x="292" y="75" type="line" smooth="yes"/>
			<point x="292" y="21"/>
			<point x="318" y="-8"/>
			<point x="368" y="-8" type="curve" smooth="yes"/>
			<point x="371" y="-8" type="line"/>
			<point x="324" y="-36"/>
			<point x="276" y="-80"/>
			<point x="276" y="-136" type="curve" smooth="yes"/>
			<point x="276" y="-183"/>
			<point x="312" y="-220"/>
		</contour>
	</outline>
	<anchor name="aboveLC" x="212" y="480"/>
	<anchor name="belowLC" x="224" y="-24"/>
</glyph>
<glyph name="dcroat" format="2">
	<unicode hex="0111"/>
	<advance width="528"/>
	<outline>
		<contour>
			<point x="168" y="550" type="line"/>
			<point x="500" y="550" type="line"/>
			<point x="500" y="572" type="line"/>
			<point x="168" y="572" type="line"/>
		</contour>
		<contour>
			<point x="112" y="212" type="curve" smooth="yes"/>
			<point x="112" y="342"/>
			<point x="173" y="411"/>
			<point x="247" y="411" type="curve" smooth="yes"/>
			<point x="303" y="411"/>
			<point x="336" y="391"/>
			<point x="386" y="331" type="curve"/>
			<point x="393" y="356" type="line"/>
			<point x="379" y="356" type="line"/>
			<point x="342" y="423"/>
			<point x="292" y="448"/>
			<point x="238" y="448" type="curve"/>
			<point x="134" y="448"/>
			<point x="44" y="358"/>
			<point x="44" y="208" type="curve" smooth="yes"/>
			<point x="44" y="64"/>
			<point x="128" y="-12"/>
			<point x="226" y="-12" type="curve" smooth="yes"/>
			<point x="294" y="-12"/>
			<point x="345" y="33"/>
			<point x="375" y="89" type="curve"/>
			<point x="388" y="89" type="line"/>
			<point x="382" y="118" type="line"/>
			<point x="345" y="62"/>
			<point x="302" y="24"/>
			<point x="247" y="24" type="curve" smooth="yes"/>
			<point x="169" y="24"/>
			<point x="112" y="86"/>
		</contour>
		<contour>
			<point x="500" y="0" type="line"/>
			<point x="500" y="16" type="line"/>
			<point x="430" y="26" type="line"/>
			<point x="430" y="536" type="line" smooth="yes"/>
			<point x="430" y="643"/>
			<point x="431" y="689"/>
			<point x="434" y="732" type="curve"/>
			<point x="426" y="740" type="line"/>
			<point x="290" y="704" type="line"/>
			<point x="290" y="690" type="line"/>
			<point x="366" y="673" type="line"/>
			<point x="366" y="366" type="line"/>
			<point x="366" y="362" type="line"/>
			<point x="366" y="85" type="line"/>
			<point x="366" y="79" type="line"/>
			<point x="366" y="-10" type="line"/>
		</contour>
	</outline>
</glyph>
<glyph name="eogonek" format="2">
	<unicode hex="0119"/>
	<advance width="456"/>
	<outline>
		<contour>
			<point x="282" y="-220" type="curve" smooth="yes"/>
			<point x="317" y="-220"/>
			<point x="356" y="-202"/>
			<point x="379" y="-169" type="curve"/>
			<point x="370" y="-158" type="line"/>
			<point x="350" y="-174"/>
			<point x="326" y="-177"/>
			<point x="313" y="-177" type="curve" smooth="yes"/>
			<point x="271" y="-177"/>
			<point x="244" y="-156"/>
			<point x="244" y="-113" type="curve" smooth="yes"/>
			<point x="244" y="-65"/>
			<point x="293" y="-16"/>
			<point x="333" y="8" type="curve" smooth="yes"/>
			<point x="366" y="28"/>
			<point x="394" y="56"/>
			<point x="414" y="100" type="curve"/>
			<point x="400" y="108" type="line"/>
			<point x="368" y="64"/>
			<point x="325" y="36"/>
			<point x="264" y="36" type="curve" smooth="yes"/>
			<point x="175" y="36"/>
			<point x="110" y="110"/>
			<point x="110" y="232" type="curve" smooth="yes"/>
			<point x="110" y="382"/>
			<point x="178" y="442"/>
			<point x="244" y="442" type="curve" smooth="yes"/>
			<point x="308" y="442"/>
			<point x="348" y="391"/>
			<point x="348" y="316" type="curve" smooth="yes"/>
			<point x="348" y="283"/>
			<point x="336" y="268"/>
			<point x="300" y="268" type="curve" smooth="yes"/>
			<point x="68" y="268" type="line"/>
			<point x="68" y="246" type="line"/>
			<point x="402" y="246" type="line"/>
			<point x="406" y="258"/>
			<point x="408" y="274"/>
			<point x="408" y="296" type="curve" smooth="yes"/>
			<point x="408" y="400"/>
			<point x="335" y="464"/>
			<point x="244" y="464" type="curve" smooth="yes"/>
			<point x="136" y="464"/>
			<point x="44" y="364"/>
			<point x="44" y="216" type="curve" smooth="yes"/>
			<point x="44" y="74"/>
			<point x="132" y="-12"/>
			<point x="247" y="-12" type="curve" smooth="yes"/>
			<point x="265" y="-12"/>
			<point x="283" y="-9"/>
			<point x="299" y="-5" type="curve"/>
			<point x="317" y="9" type="line"/>
			<point x="264" y="-16"/>
			<point x="192" y="-67"/>
			<point x="192" y="-136" type="curve" smooth="yes"/>
			<point x="192" y="-183"/>
			<point x="228" y="-220"/>
		</contour>
	</outline>
	<anchor name="aboveLC" x="244" y="480"/>
	<anchor name="belowLC" x="244" y="-24"/>
</glyph>
<glyph name="Hbar" format="2">
	<unicode hex="0126"/>
	<advance width="700"/>
	<outline>
		<contour>
			<point x="28" y="485" type="line"/>
			<point x="672" y="485" type="line"/>
			<point x="672" y="507" type="line"/>
			<point x="28" y="507" type="line"/>
		</contour>
		<component base="H"/>
	</outline>
</glyph>
<glyph name="hbar" format="2">
	<unicode hex="0127"/>
	<advance width="558"/>
	<outline>
		<contour>
			<point x="106" y="0" type="curve"/>
			<point x="178" y="0" type="line"/>
			<point x="175" y="46"/>
			<point x="174" y="148"/>
			<point x="174" y="212" type="curve" smooth="yes"/>
			<point x="174" y="336" type="line"/>
			<point x="174" y="341" type="line"/>
			<point x="174" y="536" type="line" smooth="yes"/>
			<point x="174" y="595"/>
			<point x="175" y="689"/>
			<point x="178" y="732" type="curve"/>
			<point x="170" y="740" type="line"/>
			<point x="32" y="704" type="line"/>
			<point x="32" y="690" type="line"/>
			<point x="110" y="673" type="line"/>
			<point x="110" y="212" type="line" smooth="yes"/>
			<point x="110" y="148"/>
			<point x="109" y="46"/>
		</contour>
		<contour>
			<point x="36" y="0" type="line"/>
			<point x="244" y="0" type="line"/>
			<point x="244" y="16" type="line"/>
			<point x="148" y="28" type="line"/>
			<point x="132" y="28" type="line"/>
			<point x="36" y="16" type="line"/>
		</contour>
		<contour>
			<point x="322" y="0" type="line"/>
			<point x="530" y="0" type="line"/>
			<point x="530" y="16" type="line"/>
			<point x="434" y="28" type="line"/>
			<point x="418" y="28" type="line"/>
			<point x="322" y="16" type="line"/>
		</contour>
		<contour>
			<point x="32" y="550" type="line"/>
			<point x="364" y="550" type="line"/>
			<point x="364" y="572" type="line"/>
			<point x="32" y="572" type="line"/>
		</contour>
		<contour>
			<point x="392" y="0" type="curve"/>
			<point x="464" y="0" type="line"/>
			<point x="461" y="46"/>
			<point x="460" y="148"/>
			<point x="460" y="212" type="curve" smooth="yes"/>
			<point x="460" y="288" type="line" smooth="yes"/>
			<point x="460" y="406"/>
			<point x="420" y="448"/>
			<point x="344" y="448" type="curve" smooth="yes"/>
			<point x="271" y="448"/>
			<point x="203" y="391"/>
			<point x="164" y="340" type="curve"/>
			<point x="160" y="340" type="line"/>
			<point x="168" y="326" type="line"/>
			<point x="220" y="373"/>
			<point x="264" y="400"/>
			<point x="313" y="400" type="curve" smooth="yes"/>
			<point x="372" y="400"/>
			<point x="396" y="377"/>
			<point x="396" y="288" type="curve" smooth="yes"/>
			<point x="396" y="212" type="line" smooth="yes"/>
			<point x="396" y="148"/>
			<point x="395" y="46"/>
		</contour>
	</outline>
</glyph>
<glyph name="dotlessi" format="2">
	<unicode hex="0131"/>
	<advance width="272"/>
	<outline>
		<contour>
			<point x="106" y="0" type="curve"/>
			<point x="178" y="0" type="line"/>
			<point x="175" y="46"/>
			<point x="174" y="148"/>
			<point x="174" y="212" type="curve" smooth="yes"/>
			<point x="174" y="260" type="line"/>
			<point x="178" y="456" type="line"/>
			<point x="170" y="464" type="line"/>
			<point x="32" y="420" type="line"/>
			<point x="32" y="406" type="line"/>
			<point x="107" y="389" type="line"/>
			<point x="109" y="348"/>
			<point x="110" y="315"/>
			<point x="110" y="259" type="curve" smooth="yes"/>
			<point x="110" y="212" type="line" smooth="yes"/>
			<point x="110" y="148"/>
			<point x="109" y="46"/>
		</contour>
		<contour>
			<point x="36" y="0" type="line"/>
			<point x="244" y="0" type="line"/>
			<point x="244" y="16" type="line"/>
			<point x="148" y="28" type="line"/>
			<point x="132" y="28" type="line"/>
			<point x="36" y="16" type="line"/>
		</contour>
	</outline>
	<anchor name="aboveLC" x="140" y="480"/>
	<anchor name="belowLC" x="142" y="-24"/>
	<anchor name="ogonek" x="187" y="0"/>
</glyph>
<glyph name="kgreenlandic" format="2">
	<unicode hex="0138"/>
	<advance width="504"/>
	<outline>
		<contour>
			<point x="36" y="0" type="line"/>
			<point x="244" y="0" type="line"/>
			<point x="244" y="16" type="line"/>
			<point x="148" y="28" type="line"/>
			<point x="132" y="28" type="line"/>
			<point x="36" y="16" type="line"/>
		</contour>
		<contour>
			<point x="106" y="0" type="curve"/>
			<point x="178" y="0" type="line"/>
			<point x="175" y="46"/>
			<point x="174" y="148"/>
			<point x="174" y="212" type="curve" smooth="yes"/>
			<point x="174" y="260" type="line"/>
			<point x="178" y="456" type="line"/>
			<point x="170" y="464" type="line"/>
			<point x="32" y="420" type="line"/>
			<point x="32" y="406" type="line"/>
			<point x="107" y="389" type="line"/>
			<point x="109" y="348"/>
			<point x="110" y="315"/>
			<point x="110" y="259" type="curve" smooth="yes"/>
			<point x="110" y="212" type="line" smooth="yes"/>
			<point x="110" y="148"/>
			<point x="109" y="46"/>
		</contour>
		<contour>
			<point x="144" y="140" type="line"/>
			<point x="424" y="452" type="line"/>
			<point x="392" y="452" type="line"/>
			<point x="150" y="179" type="line"/>
			<point x="144" y="179" type="line"/>
		</contour>
		<contour>
			<point x="379" y="0" type="line"/>
			<point x="500" y="0" type="line"/>
			<point x="500" y="16" type="line"/>
			<point x="413" y="28" type="line"/>
			<point x="450" y="13" type="line"/>
			<point x="276" y="296" type="line"/>
			<point x="229" y="252" type="line"/>
		</contour>
		<contour>
			<point x="376" y="424" type="line"/>
			<point x="392" y="424" type="line"/>
			<point x="476" y="436" type="line"/>
			<point x="476" y="452" type="line"/>
			<point x="280" y="452" type="line"/>
			<point x="280" y="436" type="line"/>
		</contour>
	</outline>
</glyph>
<glyph name="Lslash" format="2">
	<unicode hex="0141"/>
	<advance width="520"/>
	<outline>
		<contour>
			<point x="368" y="435" type="line"/>
			<point x="156" y="315" type="line"/>
			<point x="156" y="293" type="line"/>
			<point x="368" y="413" type="line"/>
		</contour>
		<contour>
			<point x="156" y="319" type="line"/>
			<point x="44" y="258" type="line"/>
			<point x="44" y="236" type="line"/>
			<point x="156" y="297" type="line"/>
		</contour>
		<component base="L"/>
	</outline>
</glyph>
<glyph name="lslash" format="2">
	<unicode hex="0142"/>
	<advance width="272"/>
	<outline>
		<contour>
			<point x="140" y="390" type="line"/>
			<point x="32" y="334" type="line"/>
			<point x="32" y="312" type="line"/>
			<point x="140" y="368" type="line"/>
		</contour>
		<contour>
			<point x="248" y="438" type="line"/>
			<point x="140" y="382" type="line"/>
			<point x="140" y="360" type="line"/>
			<point x="248" y="416" type="line"/>
		</contour>
		<component base="l"/>
	</outline>
</glyph>
<glyph name="Eng" format="2">
	<unicode hex="014A"/>
	<advance width="674"/>
	<outline>
		<contour>
			<point x="40" y="0" type="line"/>
			<point x="246" y="0" type="line"/>
			<point x="246" y="16" type="line"/>
			<point x="146" y="26" type="line"/>
			<point x="132" y="26" type="line"/>
			<point x="40" y="16" type="line"/>
		</contour>
		<contour>
			<point x="40" y="652" type="line"/>
			<point x="105" y="645" type="line"/>
			<point x="540" y="-8" type="line"/>
			<point x="547" y="-8" type="line"/>
			<point x="536" y="124" type="line"/>
			<point x="173" y="668" type="line"/>
			<point x="40" y="668" type="line"/>
		</contour>
		<contour>
			<point x="125" y="0" type="line"/>
			<point x="153" y="0" type="line"/>
			<point x="153" y="654" type="line"/>
			<point x="125" y="654" type="line"/>
		</contour>
		<contour>
			<point x="436" y="652" type="line"/>
			<point x="536" y="642" type="line"/>
			<point x="550" y="642" type="line"/>
			<point x="634" y="652" type="line"/>
			<point x="634" y="668" type="line"/>
			<point x="436" y="668" type="line"/>
		</contour>
		<contour>
			<point x="408" y="-160" type="curve" smooth="yes"/>
			<point x="471" y="-160"/>
			<point x="511" y="-137"/>
			<point x="534" y="-88" type="curve" smooth="yes"/>
			<point x="551" y="-52"/>
			<point x="558" y="-3"/>
			<point x="558" y="60" type="curve" smooth="yes"/>
			<point x="558" y="668" type="line"/>
			<point x="530" y="668" type="line"/>
			<point x="530" y="67" type="line"/>
			<point x="530" y="-47"/>
			<point x="505" y="-108"/>
			<point x="458" y="-130" type="curve"/>
			<point x="469" y="-133" type="line"/>
			<point x="480" y="-136" type="line"/>
			<point x="440" y="-100" type="line" smooth="yes"/>
			<point x="422" y="-84"/>
			<point x="402" y="-76"/>
			<point x="380" y="-76" type="curve" smooth="yes"/>
			<point x="350" y="-76"/>
			<point x="330" y="-94"/>
			<point x="328" y="-115" type="curve"/>
			<point x="337" y="-147"/>
			<point x="369" y="-160"/>
		</contour>
	</outline>
</glyph>
<glyph name="eng" format="2">
	<unicode hex="014B"/>
	<advance width="540"/>
	<outline>
		<contour>
			<point x="310" y="-260" type="curve" smooth="yes"/>
			<point x="350" y="-260"/>
			<point x="380" y="-245"/>
			<point x="408" y="-215" type="curve" smooth="yes"/>
			<point x="450" y="-169"/>
			<point x="460" y="-102"/>
			<point x="460" y="38" type="curve"/>
			<point x="460" y="304" type="line" smooth="yes"/>
			<point x="460" y="422"/>
			<point x="420" y="464"/>
			<point x="344" y="464" type="curve" smooth="yes"/>
			<point x="271" y="464"/>
			<point x="203" y="407"/>
			<point x="164" y="356" type="curve"/>
			<point x="160" y="356" type="line"/>
			<point x="168" y="342" type="line"/>
			<point x="220" y="389"/>
			<point x="264" y="416"/>
			<point x="313" y="416" type="curve" smooth="yes"/>
			<point x="372" y="416"/>
			<point x="396" y="393"/>
			<point x="396" y="304" type="curve" smooth="yes"/>
			<point x="396" y="38" type="line"/>
			<point x="396" y="-92"/>
			<point x="399" y="-168"/>
			<point x="376" y="-212" type="curve" smooth="yes"/>
			<point x="363" y="-236"/>
			<point x="357" y="-239"/>
			<point x="334" y="-239" type="curve"/>
			<point x="323" y="-248" type="line"/>
			<point x="371" y="-236" type="line"/>
			<point x="339" y="-207" type="line"/>
			<point x="320" y="-193"/>
			<point x="304" y="-184"/>
			<point x="282" y="-184" type="curve" smooth="yes"/>
			<point x="256" y="-184"/>
			<point x="236" y="-196"/>
			<point x="234" y="-218" type="curve"/>
			<point x="243" y="-245"/>
			<point x="271" y="-260"/>
		</contour>
		<contour>
			<point x="106" y="0" type="curve"/>
			<point x="178" y="0" type="line"/>
			<point x="175" y="46"/>
			<point x="174" y="148"/>
			<point x="174" y="212" type="curve" smooth="yes"/>
			<point x="174" y="356" type="line"/>
			<point x="174" y="359" type="line"/>
			<point x="174" y="456" type="line"/>
			<point x="166" y="464" type="line"/>
			<point x="32" y="420" type="line"/>
			<point x="32" y="406" type="line"/>
			<point x="107" y="389" type="line"/>
			<point x="109" y="348"/>
			<point x="110" y="315"/>
			<point x="110" y="259" type="curve" smooth="yes"/>
			<point x="110" y="212" type="line" smooth="yes"/>
			<point x="110" y="148"/>
			<point x="109" y="46"/>
		</contour>
		<contour>
			<point x="36" y="0" type="line"/>
			<point x="244" y="0" type="line"/>
			<point x="244" y="16" type="line"/>
			<point x="148" y="28" type="line"/>
			<point x="132" y="28" type="line"/>
			<point x="36" y="16" type="line"/>
		</contour>
	</outline>
</glyph>
<glyph name="OE" format="2">
	<unicode hex="0152"/>
	<advance width="860"/>
	<outline>
		<contour>
			<point x="124" y="334" type="curve" smooth="yes"/>
			<point x="124" y="546"/>
			<point x="225" y="665"/>
			<point x="348" y="665" type="curve" smooth="yes"/>
			<point x="385" y="665"/>
			<point x="420" y="660"/>
			<point x="459" y="639" type="curve"/>
			<point x="460" y="665" type="line"/>
			<point x="418" y="682"/>
			<point x="376" y="686"/>
			<point x="344" y="686" type="curve" smooth="yes"/>
			<point x="176" y="686"/>
			<point x="48" y="536"/>
			<point x="48" y="336" type="curve" smooth="yes"/>
			<point x="48" y="132"/>
			<point x="169" y="-16"/>
			<point x="343" y="-16" type="curve" smooth="yes"/>
			<point x="385" y="-16"/>
			<point x="427" y="-9"/>
			<point x="468" y="7" type="curve"/>
			<point x="468" y="34" type="line"/>
			<point x="424" y="10"/>
			<point x="380" y="5"/>
			<point x="344" y="5" type="curve" smooth="yes"/>
			<point x="217" y="5"/>
			<point x="124" y="122"/>
		</contour>
		<contour>
			<point x="436" y="0" type="curve"/>
			<point x="512" y="0" type="line"/>
			<point x="508" y="80"/>
			<point x="508" y="210"/>
			<point x="508" y="316" type="curve" smooth="yes"/>
			<point x="508" y="360" type="line" smooth="yes"/>
			<point x="508" y="463"/>
			<point x="508" y="590"/>
			<point x="512" y="670" type="curve"/>
			<point x="436" y="670" type="line"/>
			<point x="440" y="590"/>
			<point x="440" y="463"/>
			<point x="440" y="360" type="curve" smooth="yes"/>
			<point x="440" y="316" type="line" smooth="yes"/>
			<point x="440" y="210"/>
			<point x="440" y="80"/>
		</contour>
		<contour>
			<point x="670" y="232" type="line"/>
			<point x="686" y="232" type="line"/>
			<point x="686" y="452" type="line"/>
			<point x="670" y="452" type="line"/>
			<point x="640" y="352" type="line"/>
			<point x="640" y="332" type="line"/>
		</contour>
		<contour>
			<point x="473" y="330" type="line"/>
			<point x="653" y="330" type="line"/>
			<point x="653" y="354" type="line"/>
			<point x="473" y="354" type="line"/>
		</contour>
		<contour>
			<point x="784" y="490" type="line"/>
			<point x="800" y="490" type="line"/>
			<point x="788" y="670" type="line"/>
			<point x="473" y="670" type="line"/>
			<point x="473" y="646" type="line"/>
			<point x="728" y="646" type="line"/>
		</contour>
		<contour>
			<point x="800" y="188" type="line"/>
			<point x="744" y="24" type="line"/>
			<point x="473" y="24" type="line"/>
			<point x="473" y="0" type="line"/>
			<point x="804" y="0" type="line"/>
			<point x="816" y="188" type="line"/>
		</contour>
	</outline>
	<anchor name="aboveUC" x="476" y="690"/>
</glyph>
<glyph name="oe" format="2">
	<unicode hex="0153"/>
	<advance width="782"/>
	<outline>
		<contour>
			<point x="242" y="443" type="curve" smooth="yes"/>
			<point x="326" y="443"/>
			<point x="370" y="366"/>
			<point x="370" y="228" type="curve" smooth="yes"/>
			<point x="370" y="89"/>
			<point x="326" y="9"/>
			<point x="242" y="9" type="curve" smooth="yes"/>
			<point x="158" y="9"/>
			<point x="114" y="86"/>
			<point x="114" y="224" type="curve" smooth="yes"/>
			<point x="114" y="363"/>
			<point x="158" y="443"/>
		</contour>
		<contour>
			<point x="242" y="-12" type="curve" smooth="yes"/>
			<point x="316" y="-12"/>
			<point x="379" y="27"/>
			<point x="412" y="102" type="curve"/>
			<point x="393" y="102" type="line"/>
			<point x="426" y="30"/>
			<point x="492" y="-12"/>
			<point x="569" y="-12" type="curve" smooth="yes"/>
			<point x="641" y="-12"/>
			<point x="701" y="23"/>
			<point x="736" y="100" type="curve"/>
			<point x="722" y="108" type="line"/>
			<point x="690" y="64"/>
			<point x="647" y="36"/>
			<point x="586" y="36" type="curve" smooth="yes"/>
			<point x="497" y="36"/>
			<point x="436" y="110"/>
			<point x="436" y="232" type="curve" smooth="yes"/>
			<point x="436" y="382"/>
			<point x="504" y="442"/>
			<point x="570" y="442" type="curve" smooth="yes"/>
			<point x="634" y="442"/>
			<point x="674" y="391"/>
			<point x="674" y="316" type="curve" smooth="yes"/>
			<point x="674" y="283"/>
			<point x="662" y="268"/>
			<point x="626" y="268" type="curve" smooth="yes"/>
			<point x="394" y="268" type="line"/>
			<point x="394" y="246" type="line"/>
			<point x="728" y="246" type="line"/>
			<point x="732" y="258"/>
			<point x="734" y="274"/>
			<point x="734" y="296" type="curve" smooth="yes"/>
			<point x="734" y="400"/>
			<point x="669" y="464"/>
			<point x="578" y="464" type="curve" smooth="yes"/>
			<point x="501" y="464"/>
			<point x="435" y="420"/>
			<point x="399" y="348" type="curve"/>
			<point x="415" y="348" type="line"/>
			<point x="383" y="425"/>
			<point x="318" y="464"/>
			<point x="242" y="464" type="curve" smooth="yes"/>
			<point x="134" y="464"/>
			<point x="44" y="380"/>
			<point x="44" y="224" type="curve" smooth="yes"/>
			<point x="44" y="67"/>
			<point x="134" y="-12"/>
		</contour>
	</outline>
	<anchor name="aboveLC" x="408" y="480"/>
</glyph>
<glyph name="Tbar" format="2">
	<unicode hex="0166"/>
	<advance width="569"/>
	<outline>
		<contour>
			<point x="95" y="333" type="line"/>
			<point x="474" y="333" type="line"/>
			<point x="474" y="355" type="line"/>
			<point x="95" y="355" type="line"/>
		</contour>
		<component base="T"/>
	</outline>
</glyph>
<glyph name="tbar" format="2">
	<unicode hex="0167"/>
	<advance width="298"/>
	<outline>
		<contour>
			<point x="8" y="242" type="line"/>
			<point x="276" y="242" type="line"/>
			<point x="276" y="264" type="line"/>
			<point x="8" y="264" type="line"/>
		</contour>
		<component base="t"/>
	</outline>
</glyph>
<glyph name="Uogonek" format="2">
	<unicode hex="0172"/>
	<advance width="662"/>
	<outline>
		<contour>
			<point x="40" y="668" type="line"/>
			<point x="40" y="652" type="line"/>
			<point x="136" y="640" type="line"/>
			<point x="164" y="640" type="line"/>
			<point x="268" y="652" type="line"/>
			<point x="268" y="668" type="line"/>
		</contour>
		<contour>
			<point x="438" y="668" type="line"/>
			<point x="438" y="652" type="line"/>
			<point x="530" y="642" type="line"/>
			<point x="542" y="642" type="line"/>
			<point x="626" y="652" type="line"/>
			<point x="626" y="668" type="line"/>
		</contour>
		<contour>
			<point x="433" y="9" type="line"/>
			<point x="380" y="-18"/>
			<point x="308" y="-67"/>
			<point x="308" y="-136" type="curve" smooth="yes"/>
			<point x="308" y="-183"/>
			<point x="344" y="-220"/>
			<point x="398" y="-220" type="curve" smooth="yes"/>
			<point x="433" y="-220"/>
			<point x="472" y="-202"/>
			<point x="495" y="-169" type="curve"/>
			<point x="486" y="-158" type="line"/>
			<point x="466" y="-174"/>
			<point x="442" y="-177"/>
			<point x="429" y="-177" type="curve" smooth="yes"/>
			<point x="387" y="-177"/>
			<point x="360" y="-156"/>
			<point x="360" y="-113" type="curve" smooth="yes"/>
			<point x="360" y="-65"/>
			<point x="408" y="-16"/>
			<point x="449" y="9" type="curve" smooth="yes"/>
			<point x="512" y="47"/>
			<point x="549" y="115"/>
			<point x="549" y="240" type="curve" smooth="yes"/>
			<point x="549" y="668" type="line"/>
			<point x="522" y="668" type="line"/>
			<point x="522" y="247" type="line" smooth="yes"/>
			<point x="522" y="76"/>
			<point x="453" y="28"/>
			<point x="346" y="28" type="curve" smooth="yes"/>
			<point x="252" y="28"/>
			<point x="184" y="84"/>
			<point x="184" y="236" type="curve" smooth="yes"/>
			<point x="184" y="360" type="line" smooth="yes"/>
			<point x="184" y="463"/>
			<point x="184" y="588"/>
			<point x="188" y="668" type="curve"/>
			<point x="112" y="668" type="line"/>
			<point x="116" y="588"/>
			<point x="116" y="463"/>
			<point x="116" y="360" type="curve" smooth="yes"/>
			<point x="116" y="225" type="line" smooth="yes"/>
			<point x="116" y="50"/>
			<point x="213" y="-16"/>
			<point x="339" y="-16" type="curve" smooth="yes"/>
			<point x="364" y="-16"/>
			<point x="387" y="-13"/>
			<point x="408" y="-7" type="curve"/>
		</contour>
	</outline>
	<anchor name="aboveUC" x="347" y="691"/>
	<anchor name="belowLC" x="341" y="-22"/>
	<anchor name="hornLC" x="551" y="679"/>
</glyph>
<glyph name="uogonek" format="2">
	<unicode hex="0173"/>
	<advance width="540"/>
	<outline>
		<contour>
			<point x="353" y="-134" type="curve" smooth="yes"/>
			<point x="353" y="-185"/>
			<point x="391" y="-220"/>
			<point x="442" y="-220" type="curve" smooth="yes"/>
			<point x="474" y="-220"/>
			<point x="513" y="-207"/>
			<point x="536" y="-175" type="curve"/>
			<point x="528" y="-164" type="line"/>
			<point x="508" y="-174"/>
			<point x="489" y="-177"/>
			<point x="477" y="-177" type="curve" smooth="yes"/>
			<point x="436" y="-177"/>
			<point x="404" y="-150"/>
			<point x="404" y="-103" type="curve" smooth="yes"/>
			<point x="404" y="-65"/>
			<point x="429" y="-27"/>
			<point x="466" y="1" type="curve"/>
			<point x="450" y="1" type="line"/>
			<point x="399" y="-25"/>
			<point x="353" y="-75"/>
		</contour>
		<component base="u"/>
	</outline>
	<anchor name="aboveLC" x="264" y="472"/>
	<anchor name="belowLC" x="268" y="-20"/>
</glyph>
<glyph name="Schwa" format="2">
	<unicode hex="018F"/>
	<advance width="584"/>
	<outline>
		<contour>
			<point x="44" y="272" type="curve" smooth="yes"/>
			<point x="44" y="134"/>
			<point x="115" y="-16"/>
			<point x="288" y="-16" type="curve" smooth="yes"/>
			<point x="427" y="-16"/>
			<point x="536" y="116"/>
			<point x="536" y="340" type="curve" smooth="yes"/>
			<point x="536" y="561"/>
			<point x="419" y="686"/>
			<point x="280" y="686" type="curve" smooth="yes"/>
			<point x="195" y="686"/>
			<point x="136" y="650"/>
			<point x="85" y="587" type="curve"/>
			<point x="97" y="576" type="line"/>
			<point x="144" y="615"/>
			<point x="197" y="636"/>
			<point x="264" y="636" type="curve" smooth="yes"/>
			<point x="368" y="636"/>
			<point x="460" y="547"/>
			<point x="460" y="328" type="curve" smooth="yes"/>
			<point x="460" y="104"/>
			<point x="395" y="6"/>
			<point x="288" y="6" type="curve" smooth="yes"/>
			<point x="154" y="6"/>
			<point x="114" y="154"/>
			<point x="114" y="270" type="curve" smooth="yes"/>
			<point x="114" y="291"/>
			<point x="114" y="311"/>
			<point x="117" y="329" type="curve"/>
			<point x="496" y="329" type="line"/>
			<point x="496" y="353" type="line"/>
			<point x="52" y="353" type="line"/>
			<point x="46" y="329"/>
			<point x="44" y="309"/>
		</contour>
	</outline>
	<anchor name="aboveUC" x="280" y="692"/>
	<anchor name="belowLC" x="288" y="-24"/>
</glyph>
<glyph name="florin" format="2">
	<unicode hex="0192"/>
	<advance width="468"/>
	<outline>
		<contour>
			<point x="270" y="354" type="line" smooth="yes"/>
			<point x="280" y="487"/>
			<point x="294" y="581"/>
			<point x="330" y="616" type="curve" smooth="yes"/>
			<point x="348" y="633"/>
			<point x="374" y="640"/>
			<point x="390" y="640" type="curve" smooth="yes"/>
			<point x="401" y="640"/>
			<point x="417" y="628"/>
			<point x="426" y="624" type="curve"/>
			<point x="410" y="657" type="line"/>
			<point x="340" y="640" type="line"/>
			<point x="377" y="611" type="line" smooth="yes"/>
			<point x="403" y="590"/>
			<point x="420" y="582"/>
			<point x="442" y="582" type="curve" smooth="yes"/>
			<point x="468" y="582"/>
			<point x="488" y="596"/>
			<point x="490" y="618" type="curve"/>
			<point x="481" y="645"/>
			<point x="445" y="660"/>
			<point x="410" y="660" type="curve" smooth="yes"/>
			<point x="371" y="660"/>
			<point x="328" y="646"/>
			<point x="294" y="612" type="curve" smooth="yes"/>
			<point x="245" y="562"/>
			<point x="217" y="499"/>
			<point x="206" y="354" type="curve" smooth="yes"/>
			<point x="195" y="206" type="line" smooth="yes"/>
			<point x="185" y="73"/>
			<point x="171" y="-21"/>
			<point x="135" y="-56" type="curve" smooth="yes"/>
			<point x="117" y="-73"/>
			<point x="91" y="-80"/>
			<point x="75" y="-80" type="curve" smooth="yes"/>
			<point x="64" y="-80"/>
			<point x="48" y="-68"/>
			<point x="39" y="-64" type="curve"/>
			<point x="55" y="-97" type="line"/>
			<point x="125" y="-80" type="line"/>
			<point x="88" y="-51" type="line" smooth="yes"/>
			<point x="62" y="-30"/>
			<point x="45" y="-22"/>
			<point x="23" y="-22" type="curve" smooth="yes"/>
			<point x="-3" y="-22"/>
			<point x="-23" y="-36"/>
			<point x="-25" y="-58" type="curve"/>
			<point x="-16" y="-85"/>
			<point x="20" y="-100"/>
			<point x="55" y="-100" type="curve" smooth="yes"/>
			<point x="94" y="-100"/>
			<point x="137" y="-86"/>
			<point x="171" y="-52" type="curve" smooth="yes"/>
			<point x="220" y="-2"/>
			<point x="248" y="61"/>
			<point x="259" y="206" type="curve" smooth="yes"/>
		</contour>
		<contour>
			<point x="100" y="360" type="line"/>
			<point x="400" y="360" type="line"/>
			<point x="400" y="380" type="line"/>
			<point x="100" y="380" type="line"/>
		</contour>
	</outline>
</glyph>
<glyph name="Uhorn" format="2">
	<unicode hex="01AF"/>
	<advance width="660"/>
	<outline>
		<contour>
			<point x="339" y="-16" type="curve" smooth="yes"/>
			<point x="462" y="-16"/>
			<point x="549" y="53"/>
			<point x="549" y="240" type="curve" smooth="yes"/>
			<point x="549" y="670" type="line"/>
			<point x="522" y="670" type="line"/>
			<point x="522" y="247" type="line" smooth="yes"/>
			<point x="522" y="76"/>
			<point x="453" y="28"/>
			<point x="346" y="28" type="curve" smooth="yes"/>
			<point x="252" y="28"/>
			<point x="184" y="84"/>
			<point x="184" y="236" type="curve" smooth="yes"/>
			<point x="184" y="360" type="line" smooth="yes"/>
			<point x="184" y="463"/>
			<point x="184" y="590"/>
			<point x="188" y="670" type="curve"/>
			<point x="112" y="670" type="line"/>
			<point x="116" y="590"/>
			<point x="116" y="463"/>
			<point x="116" y="360" type="curve" smooth="yes"/>
			<point x="116" y="225" type="line" smooth="yes"/>
			<point x="116" y="50"/>
			<point x="213" y="-16"/>
		</contour>
		<contour>
			<point x="545" y="644" type="line"/>
			<point x="602" y="647"/>
			<point x="644" y="666"/>
			<point x="644" y="730" type="curve" smooth="yes"/>
			<point x="644" y="750"/>
			<point x="641" y="776"/>
			<point x="633" y="792" type="curve"/>
			<point x="626" y="799"/>
			<point x="617" y="802"/>
			<point x="606" y="802" type="curve" smooth="yes"/>
			<point x="589" y="802"/>
			<point x="574" y="788"/>
			<point x="574" y="768" type="curve" smooth="yes"/>
			<point x="574" y="740"/>
			<point x="607" y="713"/>
			<point x="607" y="698" type="curve" smooth="yes"/>
			<point x="607" y="679"/>
			<point x="579" y="670"/>
			<point x="545" y="670" type="curve"/>
		</contour>
		<contour>
			<point x="40" y="654" type="line"/>
			<point x="136" y="642" type="line"/>
			<point x="164" y="642" type="line"/>
			<point x="268" y="654" type="line"/>
			<point x="268" y="670" type="line"/>
			<point x="40" y="670" type="line"/>
		</contour>
		<contour>
			<point x="438" y="654" type="line"/>
			<point x="530" y="644" type="line"/>
			<point x="542" y="644" type="line"/>
			<point x="542" y="670" type="line"/>
			<point x="438" y="670" type="line"/>
		</contour>
	</outline>
	<anchor name="aboveUC" x="352" y="690"/>
	<anchor name="belowLC" x="340" y="-20"/>
</glyph>
<glyph name="dotlessj" format="2">
	<unicode hex="0237"/>
	<advance width="260"/>
	<outline>
		<contour>
			<point x="24" y="-260" type="curve" smooth="yes"/>
			<point x="64" y="-260"/>
			<point x="94" y="-245"/>
			<point x="122" y="-215" type="curve" smooth="yes"/>
			<point x="164" y="-169"/>
			<point x="174" y="-102"/>
			<point x="174" y="38" type="curve" smooth="yes"/>
			<point x="174" y="260" type="line" smooth="yes"/>
			<point x="174" y="319"/>
			<point x="175" y="413"/>
			<point x="178" y="456" type="curve"/>
			<point x="170" y="464" type="line"/>
			<point x="32" y="420" type="line"/>
			<point x="32" y="406" type="line"/>
			<point x="107" y="389" type="line"/>
			<point x="109" y="348"/>
			<point x="110" y="315"/>
			<point x="110" y="259" type="curve" smooth="yes"/>
			<point x="110" y="38" type="line" smooth="yes"/>
			<point x="110" y="-92"/>
			<point x="113" y="-168"/>
			<point x="88" y="-216" type="curve" smooth="yes"/>
			<point x="77" y="-236"/>
			<point x="71" y="-239"/>
			<point x="48" y="-239" type="curve"/>
			<point x="65" y="-248" type="line"/>
			<point x="85" y="-237" type="line"/>
			<point x="53" y="-207" type="line" smooth="yes"/>
			<point x="36" y="-191"/>
			<point x="18" y="-184"/>
			<point x="-4" y="-184" type="curve" smooth="yes"/>
			<point x="-30" y="-184"/>
			<point x="-50" y="-196"/>
			<point x="-52" y="-218" type="curve"/>
			<point x="-43" y="-245"/>
			<point x="-15" y="-260"/>
		</contour>
	</outline>
	<anchor name="aboveLC" x="142" y="480"/>
</glyph>
